<svg xmlns="http://www.w3.org/2000/svg" width="826" height="238" viewBox="0 0 826 238"><image x="54.00" y="54.00" width="124.43" height="130" href="lupa_navy.png"></image><path d="M218.33 116.45L210.18 116.45L210.18 82.10L223.23 82.10L227.38 97.40Q227.63 98.20 227.98 99.57Q228.33 100.95 228.68 102.45Q229.03 103.95 229.28 105.15L229.28 105.15L229.68 105.15Q229.88 104.20 230.18 102.87Q230.48 101.55 230.83 100.07Q231.18 98.60 231.48 97.35L231.48 97.35L235.68 82.10L248.38 82.10L248.38 116.45L239.68 116.45L239.68 101.80Q239.68 99.65 239.71 97.45Q239.73 95.25 239.78 93.45Q239.83 91.65 239.83 90.85L239.83 90.85L239.43 90.85Q239.28 91.60 238.96 93.02Q238.63 94.45 238.26 95.97Q237.88 97.50 237.58 98.60L237.58 98.60L232.58 116.45L225.38 116.45L220.33 98.60L219.73 96.20Q219.38 94.80 219.06 93.35Q218.73 91.90 218.48 90.90L218.48 90.90L218.08 90.90Q218.13 92.20 218.18 94.07Q218.23 95.95 218.28 97.97Q218.33 100.00 218.33 101.80L218.33 101.80L218.33 116.45ZM270.88 117.05L270.88 117.05Q265.93 117.05 262.36 115.50Q258.78 113.95 256.88 110.85Q254.98 107.75 254.98 103.15L254.98 103.15L254.98 82.10L263.98 82.10L263.98 102.95Q263.98 106.25 265.73 108.15Q267.48 110.05 270.88 110.05L270.88 110.05Q274.28 110.05 276.08 108.15Q277.88 106.25 277.88 102.95L277.88 102.95L277.88 82.10L286.83 82.10L286.83 103.15Q286.83 107.75 284.93 110.85Q283.03 113.95 279.48 115.50Q275.93 117.05 270.88 117.05ZM319.83 116.45L293.43 116.45L293.43 82.10L302.38 82.10L302.38 109.10L319.83 109.10L319.83 116.45ZM338.13 116.45L323.78 116.45L323.78 82.10L338.13 82.10Q343.73 82.10 347.61 83.95Q351.48 85.80 353.51 89.57Q355.53 93.35 355.53 99.25L355.53 99.25Q355.53 105.10 353.51 108.92Q351.48 112.75 347.61 114.60Q343.73 116.45 338.13 116.45L338.13 116.45ZM332.73 89.10L332.73 109.45L338.03 109.45Q340.13 109.45 341.68 108.85Q343.23 108.25 344.28 107.10Q345.33 105.95 345.83 104.25Q346.33 102.55 346.33 100.35L346.33 100.35L346.33 98.25Q346.33 96.00 345.83 94.30Q345.33 92.60 344.28 91.45Q343.23 90.30 341.68 89.70Q340.13 89.10 338.03 89.10L338.03 89.10L332.73 89.10ZM389.53 116.45L360.83 116.45L360.83 82.10L389.18 82.10L389.18 89.10L369.78 89.10L369.78 95.55L386.73 95.55L386.73 102.40L369.78 102.40L369.78 109.45L389.53 109.45L389.53 116.45ZM403.83 116.45L394.88 116.45L394.88 82.10L414.83 82.10Q418.63 82.10 421.18 83.52Q423.73 84.95 425.01 87.42Q426.28 89.90 426.28 92.95L426.28 92.95Q426.28 96.25 424.76 98.82Q423.23 101.40 420.48 102.85L420.48 102.85L427.38 116.45L417.38 116.45L411.68 104.35L403.83 104.35L403.83 116.45ZM403.83 88.90L403.83 97.70L413.08 97.70Q414.93 97.70 416.06 96.47Q417.18 95.25 417.18 93.20L417.18 93.20Q417.18 91.85 416.68 90.90Q416.18 89.95 415.28 89.42Q414.38 88.90 413.08 88.90L413.08 88.90L403.83 88.90Z" fill="#142C5D"></path><path d="M473.58 116.45L446.68 116.45L446.68 82.15L473.28 82.15L473.28 86.95L452.28 86.95L452.28 96.50L471.08 96.50L471.08 101.30L452.28 101.30L452.28 111.65L473.58 111.65L473.58 116.45ZM484.98 116.45L479.58 116.45L479.58 82.15L484.98 82.15L500.63 103.65Q500.93 103.95 501.31 104.50Q501.68 105.05 502.03 105.60Q502.38 106.15 502.53 106.50L502.53 106.50L502.78 106.50L502.78 82.15L508.18 82.15L508.18 116.45L502.98 116.45L487.13 94.70Q486.73 94.10 486.13 93.17Q485.53 92.25 485.23 91.75L485.23 91.75L484.98 91.75L484.98 116.45ZM531.03 117.05L531.03 117.05Q522.88 117.05 518.51 112.75Q514.13 108.45 514.13 99.30L514.13 99.30Q514.13 93.30 516.18 89.37Q518.23 85.45 522.13 83.50Q526.03 81.55 531.63 81.55L531.63 81.55Q534.98 81.55 537.86 82.30Q540.73 83.05 542.91 84.57Q545.08 86.10 546.26 88.40Q547.43 90.70 547.43 93.85L547.43 93.85L541.73 93.85Q541.73 91.90 540.96 90.47Q540.18 89.05 538.81 88.10Q537.43 87.15 535.61 86.72Q533.78 86.30 531.73 86.30L531.73 86.30Q528.88 86.30 526.66 87.05Q524.43 87.80 522.93 89.35Q521.43 90.90 520.68 93.25Q519.93 95.60 519.93 98.80L519.93 98.80L519.93 99.85Q519.93 104.25 521.21 107.00Q522.48 109.75 525.01 111.02Q527.53 112.30 531.18 112.30L531.18 112.30Q534.63 112.30 536.98 111.30Q539.33 110.30 540.58 108.32Q541.83 106.35 541.83 103.40L541.83 103.40L541.83 102.90L530.28 102.90L530.28 98.25L547.43 98.25L547.43 116.45L543.38 116.45L542.83 112.35Q541.43 114.00 539.63 115.02Q537.83 116.05 535.71 116.55Q533.58 117.05 531.03 117.05ZM581.33 116.45L554.43 116.45L554.43 82.15L581.03 82.15L581.03 86.95L560.03 86.95L560.03 96.50L578.83 96.50L578.83 101.30L560.03 101.30L560.03 111.65L581.33 111.65L581.33 116.45ZM592.73 116.45L587.33 116.45L587.33 82.15L592.73 82.15L608.38 103.65Q608.68 103.95 609.06 104.50Q609.43 105.05 609.78 105.60Q610.13 106.15 610.28 106.50L610.28 106.50L610.53 106.50L610.53 82.15L615.93 82.15L615.93 116.45L610.73 116.45L594.88 94.70Q594.48 94.10 593.88 93.17Q593.28 92.25 592.98 91.75L592.98 91.75L592.73 91.75L592.73 116.45ZM628.83 116.45L623.23 116.45L623.23 82.15L628.83 82.15L628.83 96.50L646.23 96.50L646.23 82.15L651.83 82.15L651.83 116.45L646.23 116.45L646.23 101.30L628.83 101.30L628.83 116.45ZM661.13 116.45L655.38 116.45L668.83 82.15L675.98 82.15L689.48 116.45L683.48 116.45L680.43 108.50L664.18 108.50L661.13 116.45ZM669.78 93.70L665.98 103.75L678.58 103.75L674.73 93.70Q674.58 93.25 674.28 92.45Q673.98 91.65 673.66 90.70Q673.33 89.75 673.01 88.77Q672.68 87.80 672.43 87.00L672.43 87.00L672.13 87.00Q671.83 87.95 671.38 89.25Q670.93 90.55 670.51 91.75Q670.08 92.95 669.78 93.70L669.78 93.70ZM698.68 116.45L693.08 116.45L693.08 82.15L711.13 82.15Q714.78 82.15 717.18 83.45Q719.58 84.75 720.78 87.07Q721.98 89.40 721.98 92.50L721.98 92.50Q721.98 95.95 720.43 98.50Q718.88 101.05 716.03 102.25L716.03 102.25L723.18 116.45L717.08 116.45L710.58 103.20L698.68 103.20L698.68 116.45ZM698.68 86.95L698.68 98.50L710.68 98.50Q713.38 98.50 714.86 96.90Q716.33 95.30 716.33 92.45L716.33 92.45Q716.33 90.70 715.68 89.47Q715.03 88.25 713.78 87.60Q712.53 86.95 710.68 86.95L710.68 86.95L698.68 86.95ZM733.98 116.45L728.38 116.45L728.38 82.15L733.98 82.15L733.98 116.45ZM743.28 116.45L737.53 116.45L750.98 82.15L758.13 82.15L771.63 116.45L765.63 116.45L762.58 108.50L746.33 108.50L743.28 116.45ZM751.93 93.70L748.13 103.75L760.73 103.75L756.88 93.70Q756.73 93.25 756.43 92.45Q756.13 91.65 755.81 90.70Q755.48 89.75 755.16 88.77Q754.83 87.80 754.58 87.00L754.58 87.00L754.28 87.00Q753.98 87.95 753.53 89.25Q753.08 90.55 752.66 91.75Q752.23 92.95 751.93 93.70L751.93 93.70Z" fill="#142C5D"></path><rect x="206.43" y="128.45" width="565.55" height="3" fill="#142C5D"></rect><path d="M217.98 155.85L208.03 155.85L208.03 141.45L210.76 141.45L210.76 153.48L217.98 153.48L217.98 155.85ZM229.72 155.85L226.91 155.85L232.52 141.45L235.96 141.45L241.59 155.85L238.63 155.85L237.47 152.79L230.88 152.79L229.72 155.85ZM233.19 146.57L231.74 150.48L236.59 150.48L235.14 146.57Q235.06 146.36 234.94 146.04Q234.83 145.71 234.70 145.32Q234.57 144.93 234.45 144.53Q234.32 144.14 234.22 143.82L234.22 143.82L234.11 143.82Q233.99 144.24 233.81 144.79Q233.63 145.33 233.46 145.81Q233.29 146.30 233.19 146.57L233.19 146.57ZM257.67 156.11L257.67 156.11Q255.78 156.11 254.42 155.50Q253.05 154.89 252.33 153.64Q251.60 152.39 251.60 150.52L251.60 150.52L251.60 141.45L254.33 141.45L254.33 150.44Q254.33 152.09 255.21 152.94Q256.08 153.80 257.67 153.80L257.67 153.80Q259.27 153.80 260.16 152.94Q261.05 152.09 261.05 150.44L261.05 150.44L261.05 141.45L263.78 141.45L263.78 150.52Q263.78 152.39 263.05 153.64Q262.31 154.89 260.95 155.50Q259.58 156.11 257.67 156.11ZM281.07 155.85L275.29 155.85L275.29 141.45L281.07 141.45Q283.25 141.45 284.81 142.22Q286.36 143.00 287.20 144.59Q288.04 146.17 288.04 148.65L288.04 148.65Q288.04 151.11 287.20 152.70Q286.36 154.30 284.81 155.08Q283.25 155.85 281.07 155.85L281.07 155.85ZM278.02 143.78L278.02 153.52L281.07 153.52Q282.08 153.52 282.85 153.23Q283.63 152.93 284.15 152.36Q284.68 151.78 284.95 150.91Q285.23 150.04 285.23 148.88L285.23 148.88L285.23 148.44Q285.23 147.26 284.95 146.39Q284.68 145.52 284.15 144.94Q283.63 144.37 282.85 144.07Q282.08 143.78 281.07 143.78L281.07 143.78L278.02 143.78ZM305.60 156.11L305.60 156.11Q303.35 156.11 301.71 155.30Q300.07 154.49 299.20 152.83Q298.33 151.17 298.33 148.65L298.33 148.65Q298.33 146.11 299.20 144.46Q300.07 142.81 301.71 142.00Q303.35 141.19 305.60 141.19L305.60 141.19Q307.86 141.19 309.49 142.00Q311.12 142.81 311.99 144.46Q312.86 146.11 312.86 148.65L312.86 148.65Q312.86 151.17 311.99 152.83Q311.12 154.49 309.49 155.30Q307.86 156.11 305.60 156.11ZM305.60 153.80L305.60 153.80Q306.69 153.80 307.52 153.48Q308.35 153.17 308.91 152.55Q309.48 151.93 309.77 151.01Q310.07 150.10 310.07 148.90L310.07 148.90L310.07 148.44Q310.07 147.22 309.77 146.30Q309.48 145.37 308.91 144.75Q308.35 144.14 307.52 143.82Q306.69 143.50 305.60 143.50L305.60 143.50Q304.50 143.50 303.67 143.82Q302.84 144.14 302.28 144.75Q301.71 145.37 301.43 146.30Q301.14 147.22 301.14 148.44L301.14 148.44L301.14 148.90Q301.14 150.10 301.43 151.01Q301.71 151.93 302.28 152.55Q302.84 153.17 303.67 153.48Q304.50 153.80 305.60 153.80ZM329.18 156.11L329.18 156.11Q327.98 156.11 326.89 155.84Q325.80 155.58 324.96 155.02Q324.12 154.47 323.63 153.64Q323.15 152.81 323.15 151.67L323.15 151.67Q323.15 151.55 323.16 151.42Q323.17 151.30 323.17 151.23L323.17 151.23L325.92 151.23Q325.92 151.28 325.91 151.39Q325.90 151.51 325.90 151.59L325.90 151.59Q325.90 152.28 326.30 152.78Q326.70 153.27 327.46 153.53Q328.21 153.80 329.24 153.80L329.24 153.80Q329.93 153.80 330.47 153.71Q331.01 153.63 331.39 153.47Q331.78 153.31 332.03 153.09Q332.29 152.87 332.40 152.60Q332.52 152.33 332.52 152.01L332.52 152.01Q332.52 151.40 332.14 151.00Q331.76 150.60 331.12 150.33Q330.48 150.06 329.67 149.84Q328.86 149.62 328.01 149.39Q327.16 149.15 326.35 148.83Q325.55 148.50 324.90 148.04Q324.26 147.58 323.89 146.88Q323.51 146.17 323.51 145.19L323.51 145.19Q323.51 144.18 323.94 143.42Q324.37 142.67 325.16 142.17Q325.94 141.68 326.99 141.44Q328.04 141.19 329.28 141.19L329.28 141.19Q330.44 141.19 331.46 141.44Q332.48 141.68 333.25 142.19Q334.03 142.71 334.47 143.49Q334.91 144.28 334.91 145.37L334.91 145.37L334.91 145.63L332.20 145.63L332.20 145.42Q332.20 144.81 331.83 144.39Q331.47 143.97 330.81 143.74Q330.14 143.50 329.26 143.50L329.26 143.50Q328.32 143.50 327.65 143.68Q326.97 143.86 326.62 144.21Q326.26 144.56 326.26 145.06L326.26 145.06Q326.26 145.58 326.64 145.94Q327.02 146.30 327.66 146.55Q328.30 146.80 329.10 147.01Q329.91 147.22 330.76 147.46Q331.61 147.71 332.42 148.02Q333.23 148.34 333.87 148.81Q334.51 149.28 334.89 149.97Q335.27 150.67 335.27 151.63L335.27 151.63Q335.27 153.25 334.48 154.24Q333.69 155.22 332.32 155.66Q330.94 156.11 329.18 156.11ZM370.17 155.85L358.81 155.85L358.81 141.45L370.04 141.45L370.04 143.78L361.54 143.78L361.54 147.33L369.12 147.33L369.12 149.66L361.54 149.66L361.54 153.52L370.17 153.52L370.17 155.85ZM396.65 155.85L393.92 155.85L393.92 141.45L404.27 141.45L404.27 143.78L396.65 143.78L396.65 147.64L403.52 147.64L403.52 149.97L396.65 149.97L396.65 155.85ZM417.84 155.85L415.11 155.85L415.11 141.45L417.84 141.45L417.84 155.85ZM434.81 156.11L434.81 156.11Q433.61 156.11 432.52 155.84Q431.43 155.58 430.59 155.02Q429.75 154.47 429.26 153.64Q428.78 152.81 428.78 151.67L428.78 151.67Q428.78 151.55 428.79 151.42Q428.80 151.30 428.80 151.23L428.80 151.23L431.55 151.23Q431.55 151.28 431.54 151.39Q431.53 151.51 431.53 151.59L431.53 151.59Q431.53 152.28 431.93 152.78Q432.33 153.27 433.09 153.53Q433.84 153.80 434.87 153.80L434.87 153.80Q435.56 153.80 436.10 153.71Q436.64 153.63 437.02 153.47Q437.41 153.31 437.66 153.09Q437.92 152.87 438.03 152.60Q438.15 152.33 438.15 152.01L438.15 152.01Q438.15 151.40 437.77 151.00Q437.39 150.60 436.75 150.33Q436.11 150.06 435.30 149.84Q434.49 149.62 433.64 149.39Q432.79 149.15 431.98 148.83Q431.18 148.50 430.53 148.04Q429.89 147.58 429.52 146.88Q429.14 146.17 429.14 145.19L429.14 145.19Q429.14 144.18 429.57 143.42Q430.00 142.67 430.79 142.17Q431.57 141.68 432.62 141.44Q433.67 141.19 434.91 141.19L434.91 141.19Q436.07 141.19 437.09 141.44Q438.11 141.68 438.88 142.19Q439.66 142.71 440.10 143.49Q440.54 144.28 440.54 145.37L440.54 145.37L440.54 145.63L437.83 145.63L437.83 145.42Q437.83 144.81 437.46 144.39Q437.10 143.97 436.44 143.74Q435.77 143.50 434.89 143.50L434.89 143.50Q433.95 143.50 433.28 143.68Q432.60 143.86 432.25 144.21Q431.89 144.56 431.89 145.06L431.89 145.06Q431.89 145.58 432.27 145.94Q432.65 146.30 433.29 146.55Q433.93 146.80 434.73 147.01Q435.54 147.22 436.39 147.46Q437.24 147.71 438.05 148.02Q438.86 148.34 439.50 148.81Q440.14 149.28 440.52 149.97Q440.90 150.67 440.90 151.63L440.90 151.63Q440.90 153.25 440.11 154.24Q439.32 155.22 437.95 155.66Q436.57 156.11 434.81 156.11ZM458.18 156.11L458.18 156.11Q455.98 156.11 454.41 155.33Q452.85 154.55 452.02 152.90Q451.19 151.25 451.19 148.65L451.19 148.65Q451.19 144.85 453.04 143.02Q454.88 141.19 458.18 141.19L458.18 141.19Q459.97 141.19 461.40 141.80Q462.84 142.41 463.69 143.64Q464.54 144.87 464.54 146.76L464.54 146.76L461.75 146.76Q461.75 145.71 461.30 144.99Q460.85 144.26 460.05 143.88Q459.25 143.50 458.22 143.50L458.22 143.50Q456.80 143.50 455.85 144.06Q454.91 144.62 454.45 145.71Q454.00 146.80 454.00 148.42L454.00 148.42L454.00 148.88Q454.00 150.52 454.45 151.61Q454.91 152.70 455.84 153.25Q456.77 153.80 458.22 153.80L458.22 153.80Q459.32 153.80 460.13 153.43Q460.95 153.06 461.40 152.34Q461.86 151.61 461.86 150.56L461.86 150.56L464.54 150.56Q464.54 152.45 463.70 153.68Q462.86 154.91 461.43 155.51Q459.99 156.11 458.18 156.11ZM476.70 155.85L473.89 155.85L479.50 141.45L482.94 141.45L488.57 155.85L485.61 155.85L484.45 152.79L477.86 152.79L476.70 155.85ZM480.17 146.57L478.72 150.48L483.57 150.48L482.12 146.57Q482.04 146.36 481.92 146.04Q481.81 145.71 481.68 145.32Q481.55 144.93 481.43 144.53Q481.30 144.14 481.20 143.82L481.20 143.82L481.09 143.82Q480.97 144.24 480.79 144.79Q480.61 145.33 480.44 145.81Q480.27 146.30 480.17 146.57L480.17 146.57ZM508.62 155.85L498.67 155.85L498.67 141.45L501.40 141.45L501.40 153.48L508.62 153.48L508.62 155.85ZM521.77 155.85L519.04 155.85L519.04 141.45L521.77 141.45L521.77 155.85ZM544.30 155.85L532.37 155.85L532.37 154.55L540.06 143.78L532.92 143.78L532.92 141.45L544.11 141.45L544.11 142.77L536.43 153.52L544.30 153.52L544.30 155.85ZM556.40 155.85L553.58 155.85L559.19 141.45L562.64 141.45L568.26 155.85L565.30 155.85L564.15 152.79L557.55 152.79L556.40 155.85ZM559.86 146.57L558.41 150.48L563.27 150.48L561.82 146.57Q561.73 146.36 561.62 146.04Q561.50 145.71 561.38 145.32Q561.25 144.93 561.12 144.53Q561.00 144.14 560.89 143.82L560.89 143.82L560.79 143.82Q560.66 144.24 560.48 144.79Q560.30 145.33 560.14 145.81Q559.97 146.30 559.86 146.57L559.86 146.57ZM584.64 159.68L584.64 159.68Q584.12 159.68 583.55 159.63Q582.98 159.59 582.52 159.51L582.52 159.51L582.52 158.48L584.45 158.48Q584.87 158.48 585.12 158.37Q585.36 158.27 585.36 157.97L585.36 157.97Q585.36 157.72 585.18 157.60Q585.00 157.47 584.50 157.47L584.50 157.47L583.57 157.47L583.80 156.06Q582.17 155.94 580.95 155.33L580.95 155.33Q579.37 154.55 578.54 152.90Q577.71 151.25 577.71 148.65L577.71 148.65Q577.71 144.85 579.56 143.02Q581.41 141.19 584.71 141.19L584.71 141.19Q586.49 141.19 587.93 141.80Q589.37 142.41 590.22 143.64Q591.07 144.87 591.07 146.76L591.07 146.76L588.28 146.76Q588.28 145.71 587.82 144.99Q587.37 144.26 586.58 143.88Q585.78 143.50 584.75 143.50L584.75 143.50Q583.32 143.50 582.38 144.06Q581.43 144.62 580.98 145.71Q580.53 146.80 580.53 148.42L580.53 148.42L580.53 148.88Q580.53 150.52 580.98 151.61Q581.43 152.70 582.36 153.25Q583.30 153.80 584.75 153.80L584.75 153.80Q585.84 153.80 586.66 153.43Q587.48 153.06 587.93 152.34Q588.38 151.61 588.38 150.56L588.38 150.56L591.07 150.56Q591.07 152.45 590.23 153.68Q589.39 154.91 587.96 155.50L587.96 155.50Q586.81 155.98 585.44 156.08L585.44 156.08L585.38 156.57Q585.92 156.59 586.39 156.75Q586.85 156.90 587.12 157.20Q587.39 157.49 587.39 157.97L587.39 157.97Q587.39 158.50 587.12 158.84Q586.85 159.17 586.43 159.35Q586.01 159.53 585.54 159.60Q585.06 159.68 584.64 159.68ZM608.52 156.11L608.52 156.11Q606.27 156.11 604.64 155.30Q603.00 154.49 602.13 152.83Q601.25 151.17 601.25 148.65L601.25 148.65Q601.25 146.11 602.13 144.46Q603.00 142.81 604.64 142.00Q606.27 141.19 608.52 141.19L608.52 141.19Q610.79 141.19 612.42 142.00Q614.04 142.81 614.91 144.46Q615.79 146.11 615.79 148.65L615.79 148.65Q615.79 151.17 614.91 152.83Q614.04 154.49 612.42 155.30Q610.79 156.11 608.52 156.11ZM608.52 153.80L608.52 153.80Q609.61 153.80 610.44 153.48Q611.27 153.17 611.84 152.55Q612.41 151.93 612.70 151.01Q612.99 150.10 612.99 148.90L612.99 148.90L612.99 148.44Q612.99 147.22 612.70 146.30Q612.41 145.37 611.84 144.75Q611.27 144.14 610.44 143.82Q609.61 143.50 608.52 143.50L608.52 143.50Q607.43 143.50 606.60 143.82Q605.77 144.14 605.20 144.75Q604.64 145.37 604.35 146.30Q604.07 147.22 604.07 148.44L604.07 148.44L604.07 148.90Q604.07 150.10 604.35 151.01Q604.64 151.93 605.20 152.55Q605.77 153.17 606.60 153.48Q607.43 153.80 608.52 153.80ZM606.46 139.98L605.01 139.98Q605.01 139.31 605.21 138.75Q605.41 138.19 605.85 137.86Q606.29 137.52 606.99 137.52L606.99 137.52Q607.53 137.52 608.01 137.70Q608.48 137.88 608.94 138.07Q609.40 138.25 609.89 138.25L609.89 138.25Q610.18 138.25 610.36 138.10Q610.54 137.94 610.58 137.52L610.58 137.52L612.01 137.52Q612.01 138.17 611.81 138.73Q611.61 139.28 611.18 139.63Q610.75 139.98 610.03 139.98L610.03 139.98Q609.51 139.98 609.02 139.79Q608.54 139.60 608.09 139.41Q607.64 139.22 607.16 139.22L607.16 139.22Q606.88 139.22 606.69 139.39Q606.50 139.56 606.46 139.98L606.46 139.98ZM638.09 155.85L626.73 155.85L626.73 141.45L637.96 141.45L637.96 143.78L629.46 143.78L629.46 147.33L637.04 147.33L637.04 149.66L629.46 149.66L629.46 153.52L638.09 153.52L638.09 155.85ZM654.62 156.11L654.62 156.11Q653.42 156.11 652.33 155.84Q651.23 155.58 650.39 155.02Q649.55 154.47 649.07 153.64Q648.59 152.81 648.59 151.67L648.59 151.67Q648.59 151.55 648.60 151.42Q648.61 151.30 648.61 151.23L648.61 151.23L651.36 151.23Q651.36 151.28 651.35 151.39Q651.34 151.51 651.34 151.59L651.34 151.59Q651.34 152.28 651.74 152.78Q652.14 153.27 652.89 153.53Q653.65 153.80 654.68 153.80L654.68 153.80Q655.37 153.80 655.91 153.71Q656.44 153.63 656.83 153.47Q657.22 153.31 657.47 153.09Q657.72 152.87 657.84 152.60Q657.95 152.33 657.95 152.01L657.95 152.01Q657.95 151.40 657.58 151.00Q657.20 150.60 656.56 150.33Q655.92 150.06 655.11 149.84Q654.30 149.62 653.45 149.39Q652.60 149.15 651.79 148.83Q650.98 148.50 650.34 148.04Q649.70 147.58 649.32 146.88Q648.95 146.17 648.95 145.19L648.95 145.19Q648.95 144.18 649.38 143.42Q649.81 142.67 650.59 142.17Q651.38 141.68 652.43 141.44Q653.48 141.19 654.72 141.19L654.72 141.19Q655.88 141.19 656.89 141.44Q657.91 141.68 658.69 142.19Q659.47 142.71 659.91 143.49Q660.35 144.28 660.35 145.37L660.35 145.37L660.35 145.63L657.64 145.63L657.64 145.42Q657.64 144.81 657.27 144.39Q656.90 143.97 656.24 143.74Q655.58 143.50 654.70 143.50L654.70 143.50Q653.75 143.50 653.08 143.68Q652.41 143.86 652.05 144.21Q651.70 144.56 651.70 145.06L651.70 145.06Q651.70 145.58 652.07 145.94Q652.45 146.30 653.09 146.55Q653.73 146.80 654.54 147.01Q655.35 147.22 656.20 147.46Q657.05 147.71 657.86 148.02Q658.67 148.34 659.31 148.81Q659.95 149.28 660.33 149.97Q660.71 150.67 660.71 151.63L660.71 151.63Q660.71 153.25 659.92 154.24Q659.13 155.22 657.75 155.66Q656.38 156.11 654.62 156.11Z" fill="#142C5D"></path></svg>