<svg xmlns="http://www.w3.org/2000/svg" width="882" height="258" viewBox="0 0 882 258"><image x="54.00" y="54.00" width="184.85" height="150" href="lupa.png"></image><path d="M274.75 126.45L266.60 126.45L266.60 92.10L279.65 92.10L283.80 107.40Q284.05 108.20 284.40 109.57Q284.75 110.95 285.10 112.45Q285.45 113.95 285.70 115.15L285.70 115.15L286.10 115.15Q286.30 114.20 286.60 112.87Q286.90 111.55 287.25 110.07Q287.60 108.60 287.90 107.35L287.90 107.35L292.10 92.10L304.80 92.10L304.80 126.45L296.10 126.45L296.10 111.80Q296.10 109.65 296.13 107.45Q296.15 105.25 296.20 103.45Q296.25 101.65 296.25 100.85L296.25 100.85L295.85 100.85Q295.70 101.60 295.38 103.02Q295.05 104.45 294.68 105.97Q294.30 107.50 294.00 108.60L294.00 108.60L289.00 126.45L281.80 126.45L276.75 108.60L276.15 106.20Q275.80 104.80 275.48 103.35Q275.15 101.90 274.90 100.90L274.90 100.90L274.50 100.90Q274.55 102.20 274.60 104.07Q274.65 105.95 274.70 107.97Q274.75 110.00 274.75 111.80L274.75 111.80L274.75 126.45ZM327.30 127.05L327.30 127.05Q322.35 127.05 318.78 125.50Q315.20 123.95 313.30 120.85Q311.40 117.75 311.40 113.15L311.40 113.15L311.40 92.10L320.40 92.10L320.40 112.95Q320.40 116.25 322.15 118.15Q323.90 120.05 327.30 120.05L327.30 120.05Q330.70 120.05 332.50 118.15Q334.30 116.25 334.30 112.95L334.30 112.95L334.30 92.10L343.25 92.10L343.25 113.15Q343.25 117.75 341.35 120.85Q339.45 123.95 335.90 125.50Q332.35 127.05 327.30 127.05ZM376.25 126.45L349.85 126.45L349.85 92.10L358.80 92.10L358.80 119.10L376.25 119.10L376.25 126.45ZM394.55 126.45L380.20 126.45L380.20 92.10L394.55 92.10Q400.15 92.10 404.03 93.95Q407.90 95.80 409.93 99.57Q411.95 103.35 411.95 109.25L411.95 109.25Q411.95 115.10 409.93 118.92Q407.90 122.75 404.03 124.60Q400.15 126.45 394.55 126.45L394.55 126.45ZM389.15 99.10L389.15 119.45L394.45 119.45Q396.55 119.45 398.10 118.85Q399.65 118.25 400.70 117.10Q401.75 115.95 402.25 114.25Q402.75 112.55 402.75 110.35L402.75 110.35L402.75 108.25Q402.75 106.00 402.25 104.30Q401.75 102.60 400.70 101.45Q399.65 100.30 398.10 99.70Q396.55 99.10 394.45 99.10L394.45 99.10L389.15 99.10ZM445.95 126.45L417.25 126.45L417.25 92.10L445.60 92.10L445.60 99.10L426.20 99.10L426.20 105.55L443.15 105.55L443.15 112.40L426.20 112.40L426.20 119.45L445.95 119.45L445.95 126.45ZM460.25 126.45L451.30 126.45L451.30 92.10L471.25 92.10Q475.05 92.10 477.60 93.52Q480.15 94.95 481.43 97.42Q482.70 99.90 482.70 102.95L482.70 102.95Q482.70 106.25 481.18 108.82Q479.65 111.40 476.90 112.85L476.90 112.85L483.80 126.45L473.80 126.45L468.10 114.35L460.25 114.35L460.25 126.45ZM460.25 98.90L460.25 107.70L469.50 107.70Q471.35 107.70 472.48 106.47Q473.60 105.25 473.60 103.20L473.60 103.20Q473.60 101.85 473.10 100.90Q472.60 99.95 471.70 99.42Q470.80 98.90 469.50 98.90L469.50 98.90L460.25 98.90Z" fill="#142C5D"></path><path d="M530.00 126.45L503.10 126.45L503.10 92.15L529.70 92.15L529.70 96.95L508.70 96.95L508.70 106.50L527.50 106.50L527.50 111.30L508.70 111.30L508.70 121.65L530.00 121.65L530.00 126.45ZM541.40 126.45L536.00 126.45L536.00 92.15L541.40 92.15L557.05 113.65Q557.35 113.95 557.73 114.50Q558.10 115.05 558.45 115.60Q558.80 116.15 558.95 116.50L558.95 116.50L559.20 116.50L559.20 92.15L564.60 92.15L564.60 126.45L559.40 126.45L543.55 104.70Q543.15 104.10 542.55 103.17Q541.95 102.25 541.65 101.75L541.65 101.75L541.40 101.75L541.40 126.45ZM587.45 127.05L587.45 127.05Q579.30 127.05 574.93 122.75Q570.55 118.45 570.55 109.30L570.55 109.30Q570.55 103.30 572.60 99.37Q574.65 95.45 578.55 93.50Q582.45 91.55 588.05 91.55L588.05 91.55Q591.40 91.55 594.28 92.30Q597.15 93.05 599.33 94.57Q601.50 96.10 602.68 98.40Q603.85 100.70 603.85 103.85L603.85 103.85L598.15 103.85Q598.15 101.90 597.38 100.47Q596.60 99.05 595.23 98.10Q593.85 97.15 592.03 96.72Q590.20 96.30 588.15 96.30L588.15 96.30Q585.30 96.30 583.08 97.05Q580.85 97.80 579.35 99.35Q577.85 100.90 577.10 103.25Q576.35 105.60 576.35 108.80L576.35 108.80L576.35 109.85Q576.35 114.25 577.63 117.00Q578.90 119.75 581.43 121.02Q583.95 122.30 587.60 122.30L587.60 122.30Q591.05 122.30 593.40 121.30Q595.75 120.30 597.00 118.32Q598.25 116.35 598.25 113.40L598.25 113.40L598.25 112.90L586.70 112.90L586.70 108.25L603.85 108.25L603.85 126.45L599.80 126.45L599.25 122.35Q597.85 124.00 596.05 125.02Q594.25 126.05 592.13 126.55Q590.00 127.05 587.45 127.05ZM637.75 126.45L610.85 126.45L610.85 92.15L637.45 92.15L637.45 96.95L616.45 96.95L616.45 106.50L635.25 106.50L635.25 111.30L616.45 111.30L616.45 121.65L637.75 121.65L637.75 126.45ZM649.15 126.45L643.75 126.45L643.75 92.15L649.15 92.15L664.80 113.65Q665.10 113.95 665.48 114.50Q665.85 115.05 666.20 115.60Q666.55 116.15 666.70 116.50L666.70 116.50L666.95 116.50L666.95 92.15L672.35 92.15L672.35 126.45L667.15 126.45L651.30 104.70Q650.90 104.10 650.30 103.17Q649.70 102.25 649.40 101.75L649.40 101.75L649.15 101.75L649.15 126.45ZM685.25 126.45L679.65 126.45L679.65 92.15L685.25 92.15L685.25 106.50L702.65 106.50L702.65 92.15L708.25 92.15L708.25 126.45L702.65 126.45L702.65 111.30L685.25 111.30L685.25 126.45ZM717.55 126.45L711.80 126.45L725.25 92.15L732.40 92.15L745.90 126.45L739.90 126.45L736.85 118.50L720.60 118.50L717.55 126.45ZM726.20 103.70L722.40 113.75L735.00 113.75L731.15 103.70Q731.00 103.25 730.70 102.45Q730.40 101.65 730.08 100.70Q729.75 99.75 729.43 98.77Q729.10 97.80 728.85 97.00L728.85 97.00L728.55 97.00Q728.25 97.95 727.80 99.25Q727.35 100.55 726.93 101.75Q726.50 102.95 726.20 103.70L726.20 103.70ZM755.10 126.45L749.50 126.45L749.50 92.15L767.55 92.15Q771.20 92.15 773.60 93.45Q776.00 94.75 777.20 97.07Q778.40 99.40 778.40 102.50L778.40 102.50Q778.40 105.95 776.85 108.50Q775.30 111.05 772.45 112.25L772.45 112.25L779.60 126.45L773.50 126.45L767.00 113.20L755.10 113.20L755.10 126.45ZM755.10 96.95L755.10 108.50L767.10 108.50Q769.80 108.50 771.28 106.90Q772.75 105.30 772.75 102.45L772.75 102.45Q772.75 100.70 772.10 99.47Q771.45 98.25 770.20 97.60Q768.95 96.95 767.10 96.95L767.10 96.95L755.10 96.95ZM790.40 126.45L784.80 126.45L784.80 92.15L790.40 92.15L790.40 126.45ZM799.70 126.45L793.95 126.45L807.40 92.15L814.55 92.15L828.05 126.45L822.05 126.45L819.00 118.50L802.75 118.50L799.70 126.45ZM808.35 103.70L804.55 113.75L817.15 113.75L813.30 103.70Q813.15 103.25 812.85 102.45Q812.55 101.65 812.23 100.70Q811.90 99.75 811.58 98.77Q811.25 97.80 811.00 97.00L811.00 97.00L810.70 97.00Q810.40 97.95 809.95 99.25Q809.50 100.55 809.08 101.75Q808.65 102.95 808.35 103.70L808.35 103.70Z" fill="#142C5D"></path><rect x="262.85" y="138.45" width="565.55" height="3" fill="#E8A54C"></rect><path d="M274.40 165.85L264.45 165.85L264.45 151.45L267.18 151.45L267.18 163.48L274.40 163.48L274.40 165.85ZM286.14 165.85L283.33 165.85L288.93 151.45L292.38 151.45L298.01 165.85L295.05 165.85L293.89 162.79L287.30 162.79L286.14 165.85ZM289.61 156.57L288.16 160.48L293.01 160.48L291.56 156.57Q291.48 156.36 291.36 156.04Q291.24 155.71 291.12 155.32Q290.99 154.93 290.87 154.53Q290.74 154.14 290.64 153.82L290.64 153.82L290.53 153.82Q290.40 154.24 290.23 154.79Q290.05 155.33 289.88 155.81Q289.71 156.30 289.61 156.57L289.61 156.57ZM314.09 166.11L314.09 166.11Q312.20 166.11 310.84 165.50Q309.47 164.89 308.75 163.64Q308.02 162.39 308.02 160.52L308.02 160.52L308.02 151.45L310.75 151.45L310.75 160.44Q310.75 162.09 311.62 162.94Q312.50 163.80 314.09 163.80L314.09 163.80Q315.69 163.80 316.58 162.94Q317.47 162.09 317.47 160.44L317.47 160.44L317.47 151.45L320.20 151.45L320.20 160.52Q320.20 162.39 319.47 163.64Q318.73 164.89 317.37 165.50Q316.00 166.11 314.09 166.11ZM337.49 165.85L331.71 165.85L331.71 151.45L337.49 151.45Q339.67 151.45 341.22 152.22Q342.78 153.00 343.62 154.59Q344.46 156.17 344.46 158.65L344.46 158.65Q344.46 161.11 343.62 162.70Q342.78 164.30 341.22 165.08Q339.67 165.85 337.49 165.85L337.49 165.85ZM334.44 153.78L334.44 163.52L337.49 163.52Q338.49 163.52 339.27 163.23Q340.05 162.93 340.57 162.36Q341.10 161.78 341.37 160.91Q341.64 160.04 341.64 158.88L341.64 158.88L341.64 158.44Q341.64 157.26 341.37 156.39Q341.10 155.52 340.57 154.94Q340.05 154.37 339.27 154.07Q338.49 153.78 337.49 153.78L337.49 153.78L334.44 153.78ZM362.01 166.11L362.01 166.11Q359.77 166.11 358.13 165.30Q356.49 164.49 355.62 162.83Q354.75 161.17 354.75 158.65L354.75 158.65Q354.75 156.11 355.62 154.46Q356.49 152.81 358.13 152.00Q359.77 151.19 362.01 151.19L362.01 151.19Q364.28 151.19 365.91 152.00Q367.54 152.81 368.41 154.46Q369.28 156.11 369.28 158.65L369.28 158.65Q369.28 161.17 368.41 162.83Q367.54 164.49 365.91 165.30Q364.28 166.11 362.01 166.11ZM362.01 163.80L362.01 163.80Q363.11 163.80 363.94 163.48Q364.77 163.17 365.33 162.55Q365.90 161.93 366.19 161.01Q366.49 160.10 366.49 158.90L366.49 158.90L366.49 158.44Q366.49 157.22 366.19 156.30Q365.90 155.37 365.33 154.75Q364.77 154.14 363.94 153.82Q363.11 153.50 362.01 153.50L362.01 153.50Q360.92 153.50 360.09 153.82Q359.26 154.14 358.70 154.75Q358.13 155.37 357.85 156.30Q357.56 157.22 357.56 158.44L357.56 158.44L357.56 158.90Q357.56 160.10 357.85 161.01Q358.13 161.93 358.70 162.55Q359.26 163.17 360.09 163.48Q360.92 163.80 362.01 163.80ZM385.60 166.11L385.60 166.11Q384.40 166.11 383.31 165.84Q382.22 165.58 381.38 165.02Q380.54 164.47 380.05 163.64Q379.57 162.81 379.57 161.67L379.57 161.67Q379.57 161.55 379.58 161.42Q379.59 161.30 379.59 161.23L379.59 161.23L382.34 161.23Q382.34 161.28 382.33 161.39Q382.32 161.51 382.32 161.59L382.32 161.59Q382.32 162.28 382.72 162.78Q383.12 163.27 383.88 163.53Q384.63 163.80 385.66 163.80L385.66 163.80Q386.35 163.80 386.89 163.71Q387.42 163.63 387.81 163.47Q388.20 163.31 388.45 163.09Q388.71 162.87 388.82 162.60Q388.94 162.33 388.94 162.01L388.94 162.01Q388.94 161.40 388.56 161.00Q388.18 160.60 387.54 160.33Q386.90 160.06 386.09 159.84Q385.28 159.62 384.43 159.39Q383.58 159.15 382.77 158.83Q381.96 158.50 381.32 158.04Q380.68 157.58 380.31 156.88Q379.93 156.17 379.93 155.19L379.93 155.19Q379.93 154.18 380.36 153.42Q380.79 152.67 381.58 152.17Q382.36 151.68 383.41 151.44Q384.46 151.19 385.70 151.19L385.70 151.19Q386.86 151.19 387.88 151.44Q388.89 151.68 389.67 152.19Q390.45 152.71 390.89 153.49Q391.33 154.28 391.33 155.37L391.33 155.37L391.33 155.63L388.62 155.63L388.62 155.42Q388.62 154.81 388.25 154.39Q387.89 153.97 387.22 153.74Q386.56 153.50 385.68 153.50L385.68 153.50Q384.74 153.50 384.06 153.68Q383.39 153.86 383.04 154.21Q382.68 154.56 382.68 155.06L382.68 155.06Q382.68 155.58 383.06 155.94Q383.43 156.30 384.07 156.55Q384.72 156.80 385.52 157.01Q386.33 157.22 387.18 157.46Q388.03 157.71 388.84 158.02Q389.65 158.34 390.29 158.81Q390.93 159.28 391.31 159.97Q391.69 160.67 391.69 161.63L391.69 161.63Q391.69 163.25 390.90 164.24Q390.11 165.22 388.74 165.66Q387.36 166.11 385.60 166.11ZM426.59 165.85L415.23 165.85L415.23 151.45L426.46 151.45L426.46 153.78L417.96 153.78L417.96 157.33L425.54 157.33L425.54 159.66L417.96 159.66L417.96 163.52L426.59 163.52L426.59 165.85ZM453.07 165.85L450.34 165.85L450.34 151.45L460.69 151.45L460.69 153.78L453.07 153.78L453.07 157.64L459.94 157.64L459.94 159.97L453.07 159.97L453.07 165.85ZM474.26 165.85L471.53 165.85L471.53 151.45L474.26 151.45L474.26 165.85ZM491.23 166.11L491.23 166.11Q490.03 166.11 488.94 165.84Q487.85 165.58 487.01 165.02Q486.17 164.47 485.68 163.64Q485.20 162.81 485.20 161.67L485.20 161.67Q485.20 161.55 485.21 161.42Q485.22 161.30 485.22 161.23L485.22 161.23L487.97 161.23Q487.97 161.28 487.96 161.39Q487.95 161.51 487.95 161.59L487.95 161.59Q487.95 162.28 488.35 162.78Q488.75 163.27 489.51 163.53Q490.26 163.80 491.29 163.80L491.29 163.80Q491.98 163.80 492.52 163.71Q493.05 163.63 493.44 163.47Q493.83 163.31 494.08 163.09Q494.34 162.87 494.45 162.60Q494.57 162.33 494.57 162.01L494.57 162.01Q494.57 161.40 494.19 161.00Q493.81 160.60 493.17 160.33Q492.53 160.06 491.72 159.84Q490.91 159.62 490.06 159.39Q489.21 159.15 488.40 158.83Q487.59 158.50 486.95 158.04Q486.31 157.58 485.94 156.88Q485.56 156.17 485.56 155.19L485.56 155.19Q485.56 154.18 485.99 153.42Q486.42 152.67 487.21 152.17Q487.99 151.68 489.04 151.44Q490.09 151.19 491.33 151.19L491.33 151.19Q492.49 151.19 493.51 151.44Q494.52 151.68 495.30 152.19Q496.08 152.71 496.52 153.49Q496.96 154.28 496.96 155.37L496.96 155.37L496.96 155.63L494.25 155.63L494.25 155.42Q494.25 154.81 493.88 154.39Q493.52 153.97 492.85 153.74Q492.19 153.50 491.31 153.50L491.31 153.50Q490.37 153.50 489.69 153.68Q489.02 153.86 488.67 154.21Q488.31 154.56 488.31 155.06L488.31 155.06Q488.31 155.58 488.69 155.94Q489.06 156.30 489.70 156.55Q490.35 156.80 491.15 157.01Q491.96 157.22 492.81 157.46Q493.66 157.71 494.47 158.02Q495.28 158.34 495.92 158.81Q496.56 159.28 496.94 159.97Q497.32 160.67 497.32 161.63L497.32 161.63Q497.32 163.25 496.53 164.24Q495.74 165.22 494.37 165.66Q492.99 166.11 491.23 166.11ZM514.60 166.11L514.60 166.11Q512.40 166.11 510.83 165.33Q509.27 164.55 508.44 162.90Q507.61 161.25 507.61 158.65L507.61 158.65Q507.61 154.85 509.46 153.02Q511.30 151.19 514.60 151.19L514.60 151.19Q516.39 151.19 517.82 151.80Q519.26 152.41 520.11 153.64Q520.96 154.87 520.96 156.76L520.96 156.76L518.17 156.76Q518.17 155.71 517.72 154.99Q517.27 154.26 516.47 153.88Q515.67 153.50 514.64 153.50L514.64 153.50Q513.21 153.50 512.27 154.06Q511.32 154.62 510.87 155.71Q510.42 156.80 510.42 158.42L510.42 158.42L510.42 158.88Q510.42 160.52 510.87 161.61Q511.32 162.70 512.26 163.25Q513.19 163.80 514.64 163.80L514.64 163.80Q515.73 163.80 516.55 163.43Q517.37 163.06 517.82 162.34Q518.28 161.61 518.28 160.56L518.28 160.56L520.96 160.56Q520.96 162.45 520.12 163.68Q519.28 164.91 517.84 165.51Q516.41 166.11 514.60 166.11ZM533.12 165.85L530.31 165.85L535.92 151.45L539.36 151.45L544.99 165.85L542.03 165.85L540.87 162.79L534.28 162.79L533.12 165.85ZM536.59 156.57L535.14 160.48L539.99 160.48L538.54 156.57Q538.46 156.36 538.34 156.04Q538.23 155.71 538.10 155.32Q537.97 154.93 537.85 154.53Q537.72 154.14 537.62 153.82L537.62 153.82L537.51 153.82Q537.39 154.24 537.21 154.79Q537.03 155.33 536.86 155.81Q536.69 156.30 536.59 156.57L536.59 156.57ZM565.04 165.85L555.09 165.85L555.09 151.45L557.82 151.45L557.82 163.48L565.04 163.48L565.04 165.85ZM578.19 165.85L575.46 165.85L575.46 151.45L578.19 151.45L578.19 165.85ZM600.72 165.85L588.79 165.85L588.79 164.55L596.48 153.78L589.34 153.78L589.34 151.45L600.53 151.45L600.53 152.77L592.85 163.52L600.72 163.52L600.72 165.85ZM612.82 165.85L610.00 165.85L615.61 151.45L619.05 151.45L624.68 165.85L621.72 165.85L620.57 162.79L613.97 162.79L612.82 165.85ZM616.28 156.57L614.83 160.48L619.68 160.48L618.24 156.57Q618.15 156.36 618.04 156.04Q617.92 155.71 617.79 155.32Q617.67 154.93 617.54 154.53Q617.42 154.14 617.31 153.82L617.31 153.82L617.21 153.82Q617.08 154.24 616.90 154.79Q616.72 155.33 616.56 155.81Q616.39 156.30 616.28 156.57L616.28 156.57ZM641.06 169.68L641.06 169.68Q640.54 169.68 639.97 169.63Q639.40 169.59 638.94 169.51L638.94 169.51L638.94 168.48L640.87 168.48Q641.29 168.48 641.53 168.37Q641.78 168.27 641.78 167.97L641.78 167.97Q641.78 167.72 641.60 167.60Q641.42 167.47 640.92 167.47L640.92 167.47L639.99 167.47L640.22 166.06Q638.58 165.94 637.37 165.33L637.37 165.33Q635.79 164.55 634.96 162.90Q634.13 161.25 634.13 158.65L634.13 158.65Q634.13 154.85 635.98 153.02Q637.83 151.19 641.13 151.19L641.13 151.19Q642.91 151.19 644.35 151.80Q645.79 152.41 646.64 153.64Q647.49 154.87 647.49 156.76L647.49 156.76L644.70 156.76Q644.70 155.71 644.24 154.99Q643.79 154.26 642.99 153.88Q642.20 153.50 641.17 153.50L641.17 153.50Q639.74 153.50 638.79 154.06Q637.85 154.62 637.40 155.71Q636.95 156.80 636.95 158.42L636.95 158.42L636.95 158.88Q636.95 160.52 637.40 161.61Q637.85 162.70 638.78 163.25Q639.72 163.80 641.17 163.80L641.17 163.80Q642.26 163.80 643.08 163.43Q643.90 163.06 644.35 162.34Q644.80 161.61 644.80 160.56L644.80 160.56L647.49 160.56Q647.49 162.45 646.65 163.68Q645.81 164.91 644.38 165.50L644.38 165.50Q643.23 165.98 641.86 166.08L641.86 166.08L641.80 166.57Q642.34 166.59 642.81 166.75Q643.27 166.90 643.54 167.20Q643.81 167.49 643.81 167.97L643.81 167.97Q643.81 168.50 643.54 168.84Q643.27 169.17 642.85 169.35Q642.43 169.53 641.95 169.60Q641.48 169.68 641.06 169.68ZM664.94 166.11L664.94 166.11Q662.69 166.11 661.05 165.30Q659.42 164.49 658.54 162.83Q657.67 161.17 657.67 158.65L657.67 158.65Q657.67 156.11 658.54 154.46Q659.42 152.81 661.05 152.00Q662.69 151.19 664.94 151.19L664.94 151.19Q667.21 151.19 668.83 152.00Q670.46 152.81 671.33 154.46Q672.21 156.11 672.21 158.65L672.21 158.65Q672.21 161.17 671.33 162.83Q670.46 164.49 668.83 165.30Q667.21 166.11 664.94 166.11ZM664.94 163.80L664.94 163.80Q666.03 163.80 666.86 163.48Q667.69 163.17 668.26 162.55Q668.82 161.93 669.12 161.01Q669.41 160.10 669.41 158.90L669.41 158.90L669.41 158.44Q669.41 157.22 669.12 156.30Q668.82 155.37 668.26 154.75Q667.69 154.14 666.86 153.82Q666.03 153.50 664.94 153.50L664.94 153.50Q663.85 153.50 663.02 153.82Q662.19 154.14 661.62 154.75Q661.05 155.37 660.77 156.30Q660.49 157.22 660.49 158.44L660.49 158.44L660.49 158.90Q660.49 160.10 660.77 161.01Q661.05 161.93 661.62 162.55Q662.19 163.17 663.02 163.48Q663.85 163.80 664.94 163.80ZM662.88 149.98L661.43 149.98Q661.43 149.31 661.63 148.75Q661.83 148.19 662.27 147.86Q662.71 147.52 663.41 147.52L663.41 147.52Q663.95 147.52 664.42 147.70Q664.90 147.88 665.36 148.07Q665.82 148.25 666.30 148.25L666.30 148.25Q666.60 148.25 666.78 148.10Q666.96 147.94 667.00 147.52L667.00 147.52L668.43 147.52Q668.43 148.17 668.23 148.73Q668.03 149.28 667.60 149.63Q667.17 149.98 666.45 149.98L666.45 149.98Q665.93 149.98 665.44 149.79Q664.96 149.60 664.51 149.41Q664.06 149.22 663.57 149.22L663.57 149.22Q663.30 149.22 663.11 149.39Q662.92 149.56 662.88 149.98L662.88 149.98ZM694.51 165.85L683.15 165.85L683.15 151.45L694.38 151.45L694.38 153.78L685.88 153.78L685.88 157.33L693.46 157.33L693.46 159.66L685.88 159.66L685.88 163.52L694.51 163.52L694.51 165.85ZM711.03 166.11L711.03 166.11Q709.84 166.11 708.75 165.84Q707.65 165.58 706.81 165.02Q705.97 164.47 705.49 163.64Q705.01 162.81 705.01 161.67L705.01 161.67Q705.01 161.55 705.02 161.42Q705.03 161.30 705.03 161.23L705.03 161.23L707.78 161.23Q707.78 161.28 707.77 161.39Q707.76 161.51 707.76 161.59L707.76 161.59Q707.76 162.28 708.16 162.78Q708.56 163.27 709.31 163.53Q710.07 163.80 711.10 163.80L711.10 163.80Q711.79 163.80 712.33 163.71Q712.86 163.63 713.25 163.47Q713.64 163.31 713.89 163.09Q714.14 162.87 714.26 162.60Q714.37 162.33 714.37 162.01L714.37 162.01Q714.37 161.40 714.00 161.00Q713.62 160.60 712.98 160.33Q712.34 160.06 711.53 159.84Q710.72 159.62 709.87 159.39Q709.02 159.15 708.21 158.83Q707.40 158.50 706.76 158.04Q706.12 157.58 705.74 156.88Q705.36 156.17 705.36 155.19L705.36 155.19Q705.36 154.18 705.79 153.42Q706.23 152.67 707.01 152.17Q707.80 151.68 708.85 151.44Q709.90 151.19 711.14 151.19L711.14 151.19Q712.29 151.19 713.31 151.44Q714.33 151.68 715.11 152.19Q715.89 152.71 716.33 153.49Q716.77 154.28 716.77 155.37L716.77 155.37L716.77 155.63L714.06 155.63L714.06 155.42Q714.06 154.81 713.69 154.39Q713.32 153.97 712.66 153.74Q712.00 153.50 711.12 153.50L711.12 153.50Q710.17 153.50 709.50 153.68Q708.83 153.86 708.47 154.21Q708.12 154.56 708.12 155.06L708.12 155.06Q708.12 155.58 708.49 155.94Q708.87 156.30 709.51 156.55Q710.15 156.80 710.96 157.01Q711.77 157.22 712.62 157.46Q713.47 157.71 714.28 158.02Q715.09 158.34 715.73 158.81Q716.37 159.28 716.75 159.97Q717.12 160.67 717.12 161.63L717.12 161.63Q717.12 163.25 716.34 164.24Q715.55 165.22 714.17 165.66Q712.80 166.11 711.03 166.11Z" fill="#E8A54C"></path></svg>