<svg xmlns="http://www.w3.org/2000/svg" width="578" height="266" viewBox="0 0 578 266"><image x="58.00" y="58.00" width="143.58" height="150" href="lupa_white.png"></image><path d="M248.25 123.36L236.16 123.36L236.16 80.70L255.26 80.70L259.17 95.71Q259.41 96.51 259.88 98.37Q260.34 100.23 260.87 102.40Q261.40 104.57 261.83 106.43L261.83 106.43L262.33 106.43Q262.64 105.07 263.10 103.18Q263.57 101.29 264.06 99.30Q264.56 97.32 264.93 95.71L264.93 95.71L268.84 80.70L287.25 80.70L287.25 123.36L274.17 123.36L274.17 107.98Q274.17 105.50 274.20 102.87Q274.23 100.23 274.26 97.88Q274.29 95.52 274.29 93.97L274.29 93.97L273.80 93.97Q273.61 95.21 273.27 96.89Q272.93 98.56 272.56 100.20Q272.19 101.85 271.81 103.09L271.81 103.09L266.30 123.36L256.07 123.36L250.49 103.09Q250.18 101.85 249.77 100.20Q249.37 98.56 249.06 96.89Q248.75 95.21 248.50 94.03L248.50 94.03L248.01 94.03Q248.07 95.58 248.13 97.94Q248.19 100.30 248.22 102.90Q248.25 105.50 248.25 107.98L248.25 107.98L248.25 123.36ZM315.69 124.10L315.69 124.10Q309.00 124.10 304.26 122.09Q299.51 120.07 296.97 116.08Q294.43 112.08 294.43 106.19L294.43 106.19L294.43 80.70L308.13 80.70L308.13 106.00Q308.13 109.41 309.99 111.64Q311.85 113.87 315.63 113.87L315.63 113.87Q319.41 113.87 321.31 111.64Q323.20 109.41 323.20 106.00L323.20 106.00L323.20 80.70L336.90 80.70L336.90 106.19Q336.90 112.08 334.39 116.08Q331.88 120.07 327.13 122.09Q322.39 124.10 315.69 124.10ZM379.66 123.36L344.07 123.36L344.07 80.70L357.78 80.70L357.78 112.45L379.66 112.45L379.66 123.36ZM401.90 123.36L383.43 123.36L383.43 80.70L401.90 80.70Q409.22 80.70 414.18 83.00Q419.14 85.29 421.71 90.00Q424.29 94.72 424.29 102.03L424.29 102.03Q424.29 109.29 421.71 114.03Q419.14 118.77 414.18 121.07Q409.22 123.36 401.90 123.36L401.90 123.36ZM397.13 90.93L397.13 113.13L401.66 113.13Q403.89 113.13 405.53 112.51Q407.17 111.89 408.23 110.71Q409.28 109.53 409.78 107.80Q410.27 106.06 410.27 103.89L410.27 103.89L410.27 100.17Q410.27 98.00 409.78 96.27Q409.28 94.53 408.23 93.35Q407.17 92.17 405.53 91.55Q403.89 90.93 401.66 90.93L401.66 90.93L397.13 90.93ZM467.17 123.36L429.85 123.36L429.85 80.70L466.74 80.70L466.74 90.93L443.55 90.93L443.55 96.82L463.39 96.82L463.39 106.62L443.55 106.62L443.55 113.13L467.17 113.13L467.17 123.36ZM486.13 123.36L472.43 123.36L472.43 80.70L499.15 80.70Q503.92 80.70 507.12 82.63Q510.31 84.55 511.92 87.65Q513.53 90.75 513.53 94.34L513.53 94.34Q513.53 98.44 511.61 101.63Q509.69 104.82 506.40 106.74L506.40 106.74L514.77 123.36L499.40 123.36L492.89 109.04L486.13 109.04L486.13 123.36ZM486.13 90.44L486.13 99.55L495.74 99.55Q497.35 99.55 498.47 98.28Q499.58 97.01 499.58 94.90L499.58 94.90Q499.58 93.60 499.09 92.61Q498.59 91.62 497.72 91.03Q496.86 90.44 495.74 90.44L495.74 90.44L486.13 90.44Z" fill="#FFFFFF"></path><path d="M249.16 148.91L233.74 148.91L233.74 129.36L248.99 129.36L248.99 132.52L237.45 132.52L237.45 137.34L247.74 137.34L247.74 140.50L237.45 140.50L237.45 145.75L249.16 145.75L249.16 148.91ZM267.16 148.91L263.59 148.91L263.59 129.36L267.13 129.36L275.48 140.90Q275.62 141.07 275.82 141.37Q276.02 141.67 276.19 141.96Q276.36 142.24 276.42 142.41L276.42 142.41L276.56 142.41L276.56 129.36L280.12 129.36L280.12 148.91L276.62 148.91L268.24 137.28Q268.01 136.94 267.71 136.44Q267.41 135.94 267.30 135.74L267.30 135.74L267.16 135.74L267.16 148.91ZM304.05 149.25L304.05 149.25Q299.52 149.25 297.01 146.82Q294.50 144.38 294.50 139.14L294.50 139.14Q294.50 135.69 295.68 133.45Q296.87 131.21 299.10 130.12Q301.34 129.02 304.48 129.02L304.48 129.02Q306.36 129.02 308.01 129.45Q309.66 129.87 310.93 130.74Q312.20 131.61 312.91 132.92Q313.62 134.23 313.62 136.03L313.62 136.03L309.81 136.03Q309.81 135.09 309.39 134.36Q308.98 133.63 308.25 133.14Q307.53 132.64 306.59 132.40Q305.64 132.15 304.59 132.15L304.59 132.15Q303.02 132.15 301.84 132.57Q300.66 132.98 299.87 133.82Q299.09 134.66 298.71 135.91Q298.32 137.17 298.32 138.85L298.32 138.85L298.32 139.45Q298.32 141.76 298.98 143.24Q299.63 144.72 300.96 145.42Q302.28 146.12 304.25 146.12L304.25 146.12Q305.93 146.12 307.20 145.60Q308.47 145.09 309.19 144.11Q309.92 143.13 309.92 141.70L309.92 141.70L309.92 141.50L303.68 141.50L303.68 138.42L313.62 138.42L313.62 148.91L310.97 148.91L310.66 146.75Q309.81 147.60 308.84 148.16Q307.87 148.71 306.70 148.98Q305.53 149.25 304.05 149.25ZM343.90 148.91L328.49 148.91L328.49 129.36L343.73 129.36L343.73 132.52L332.19 132.52L332.19 137.34L342.48 137.34L342.48 140.50L332.19 140.50L332.19 145.75L343.90 145.75L343.90 148.91ZM361.90 148.91L358.34 148.91L358.34 129.36L361.87 129.36L370.22 140.90Q370.36 141.07 370.56 141.37Q370.76 141.67 370.93 141.96Q371.11 142.24 371.16 142.41L371.16 142.41L371.31 142.41L371.31 129.36L374.87 129.36L374.87 148.91L371.36 148.91L362.98 137.28Q362.76 136.94 362.46 136.44Q362.16 135.94 362.04 135.74L362.04 135.74L361.90 135.74L361.90 148.91ZM393.60 148.91L389.90 148.91L389.90 129.36L393.60 129.36L393.60 137.31L402.72 137.31L402.72 129.36L406.43 129.36L406.43 148.91L402.72 148.91L402.72 140.50L393.60 140.50L393.60 148.91ZM423.26 148.91L419.44 148.91L427.05 129.36L431.72 129.36L439.36 148.91L435.34 148.91L433.77 144.75L424.82 144.75L423.26 148.91ZM427.96 136.31L425.99 141.62L432.58 141.62L430.61 136.31Q430.50 136.03 430.34 135.59Q430.18 135.15 430.01 134.62Q429.84 134.09 429.67 133.55Q429.50 133.01 429.36 132.58L429.36 132.58L429.21 132.58Q429.04 133.15 428.80 133.89Q428.56 134.63 428.33 135.29Q428.10 135.94 427.96 136.31L427.96 136.31ZM456.07 148.91L452.37 148.91L452.37 129.36L462.66 129.36Q464.82 129.36 466.25 130.10Q467.67 130.84 468.39 132.21Q469.10 133.58 469.10 135.43L469.10 135.43Q469.10 137.34 468.24 138.81Q467.39 140.28 465.73 141.02L465.73 141.02L469.78 148.91L465.73 148.91L462.14 141.64L456.07 141.64L456.07 148.91ZM456.07 132.52L456.07 138.54L462.37 138.54Q463.80 138.54 464.57 137.71Q465.34 136.88 465.34 135.43L465.34 135.43Q465.34 134.49 464.99 133.85Q464.65 133.21 464.00 132.87Q463.34 132.52 462.37 132.52L462.37 132.52L456.07 132.52ZM487.21 148.91L483.50 148.91L483.50 129.36L487.21 129.36L487.21 148.91ZM504.04 148.91L500.22 148.91L507.83 129.36L512.50 129.36L520.14 148.91L516.12 148.91L514.55 144.75L505.60 144.75L504.04 148.91ZM508.74 136.31L506.77 141.62L513.35 141.62L511.39 136.31Q511.27 136.03 511.12 135.59Q510.96 135.15 510.79 134.62Q510.62 134.09 510.45 133.55Q510.28 133.01 510.13 132.58L510.13 132.58L509.99 132.58Q509.82 133.15 509.58 133.89Q509.34 134.63 509.11 135.29Q508.88 135.94 508.74 136.31L508.74 136.31Z" fill="#FFFFFF"></path><rect x="231.58" y="162.91" width="288.70" height="3" fill="#E8A54C"></rect><path d="M239.00 185.17L232.60 185.17L232.60 175.91L234.36 175.91L234.36 183.65L239.00 183.65L239.00 185.17ZM244.35 185.17L242.54 185.17L246.14 175.91L248.36 175.91L251.98 185.17L250.07 185.17L249.33 183.20L245.09 183.20L244.35 185.17ZM246.58 179.20L245.64 181.72L248.76 181.72L247.83 179.20Q247.78 179.07 247.70 178.86Q247.63 178.65 247.55 178.40Q247.47 178.15 247.39 177.90Q247.30 177.64 247.24 177.44L247.24 177.44L247.17 177.44Q247.09 177.71 246.97 178.06Q246.86 178.41 246.75 178.72Q246.64 179.03 246.58 179.20L246.58 179.20ZM260.12 185.33L260.12 185.33Q258.90 185.33 258.02 184.94Q257.15 184.55 256.68 183.75Q256.22 182.94 256.22 181.74L256.22 181.74L256.22 175.91L257.97 175.91L257.97 181.69Q257.97 182.76 258.53 183.30Q259.09 183.85 260.12 183.85L260.12 183.85Q261.14 183.85 261.72 183.30Q262.29 182.76 262.29 181.69L262.29 181.69L262.29 175.91L264.05 175.91L264.05 181.74Q264.05 182.94 263.57 183.75Q263.10 184.55 262.22 184.94Q261.35 185.33 260.12 185.33ZM272.96 185.17L269.24 185.17L269.24 175.91L272.96 175.91Q274.36 175.91 275.36 176.41Q276.36 176.91 276.90 177.93Q277.44 178.95 277.44 180.54L277.44 180.54Q277.44 182.12 276.90 183.15Q276.36 184.17 275.36 184.67Q274.36 185.17 272.96 185.17L272.96 185.17ZM271.00 177.41L271.00 183.67L272.96 183.67Q273.60 183.67 274.10 183.48Q274.60 183.30 274.94 182.92Q275.28 182.55 275.45 181.99Q275.63 181.43 275.63 180.69L275.63 180.69L275.63 180.41Q275.63 179.65 275.45 179.09Q275.28 178.53 274.94 178.16Q274.60 177.79 274.10 177.60Q273.60 177.41 272.96 177.41L272.96 177.41L271.00 177.41ZM286.52 185.33L286.52 185.33Q285.08 185.33 284.03 184.81Q282.97 184.29 282.41 183.23Q281.85 182.16 281.85 180.54L281.85 180.54Q281.85 178.91 282.41 177.85Q282.97 176.79 284.03 176.27Q285.08 175.75 286.52 175.75L286.52 175.75Q287.98 175.75 289.03 176.27Q290.07 176.79 290.63 177.85Q291.19 178.91 291.19 180.54L291.19 180.54Q291.19 182.16 290.63 183.23Q290.07 184.29 289.03 184.81Q287.98 185.33 286.52 185.33ZM286.52 183.85L286.52 183.85Q287.23 183.85 287.76 183.65Q288.29 183.44 288.66 183.05Q289.02 182.65 289.21 182.06Q289.40 181.47 289.40 180.70L289.40 180.70L289.40 180.41Q289.40 179.62 289.21 179.03Q289.02 178.44 288.66 178.04Q288.29 177.64 287.76 177.44Q287.23 177.23 286.52 177.23L286.52 177.23Q285.82 177.23 285.29 177.44Q284.76 177.64 284.39 178.04Q284.03 178.44 283.84 179.03Q283.66 179.62 283.66 180.41L283.66 180.41L283.66 180.70Q283.66 181.47 283.84 182.06Q284.03 182.65 284.39 183.05Q284.76 183.44 285.29 183.65Q285.82 183.85 286.52 183.85ZM299.48 185.33L299.48 185.33Q298.71 185.33 298.01 185.17Q297.31 185.00 296.77 184.64Q296.23 184.28 295.92 183.75Q295.61 183.21 295.61 182.49L295.61 182.49Q295.61 182.40 295.62 182.32Q295.62 182.24 295.62 182.20L295.62 182.20L297.39 182.20Q297.39 182.23 297.39 182.30Q297.38 182.38 297.38 182.43L297.38 182.43Q297.38 182.88 297.63 183.19Q297.89 183.51 298.38 183.68Q298.86 183.85 299.52 183.85L299.52 183.85Q299.97 183.85 300.31 183.79Q300.66 183.74 300.91 183.64Q301.16 183.54 301.32 183.40Q301.48 183.25 301.56 183.08Q301.63 182.90 301.63 182.70L301.63 182.70Q301.63 182.31 301.39 182.05Q301.14 181.80 300.73 181.62Q300.32 181.45 299.80 181.30Q299.28 181.16 298.74 181.01Q298.19 180.87 297.67 180.66Q297.15 180.45 296.74 180.15Q296.33 179.85 296.08 179.40Q295.84 178.95 295.84 178.31L295.84 178.31Q295.84 177.67 296.12 177.18Q296.39 176.69 296.90 176.38Q297.41 176.06 298.08 175.90Q298.76 175.75 299.55 175.75L299.55 175.75Q300.29 175.75 300.95 175.90Q301.60 176.06 302.10 176.39Q302.60 176.72 302.89 177.23Q303.17 177.73 303.17 178.44L303.17 178.44L303.17 178.60L301.43 178.60L301.43 178.46Q301.43 178.07 301.19 177.80Q300.96 177.53 300.53 177.38Q300.11 177.23 299.54 177.23L299.54 177.23Q298.93 177.23 298.50 177.35Q298.07 177.46 297.84 177.69Q297.61 177.91 297.61 178.23L297.61 178.23Q297.61 178.57 297.85 178.80Q298.09 179.03 298.51 179.19Q298.92 179.35 299.44 179.49Q299.96 179.62 300.50 179.78Q301.05 179.93 301.57 180.14Q302.09 180.34 302.50 180.64Q302.91 180.95 303.16 181.39Q303.40 181.84 303.40 182.46L303.40 182.46Q303.40 183.50 302.89 184.13Q302.39 184.77 301.50 185.05Q300.62 185.33 299.48 185.33ZM321.44 185.17L314.13 185.17L314.13 175.91L321.36 175.91L321.36 177.41L315.89 177.41L315.89 179.69L320.76 179.69L320.76 181.19L315.89 181.19L315.89 183.67L321.44 183.67L321.44 185.17ZM334.06 185.17L332.30 185.17L332.30 175.91L338.96 175.91L338.96 177.41L334.06 177.41L334.06 179.89L338.47 179.89L338.47 181.39L334.06 181.39L334.06 185.17ZM345.48 185.17L343.73 185.17L343.73 175.91L345.48 175.91L345.48 185.17ZM354.19 185.33L354.19 185.33Q353.42 185.33 352.72 185.17Q352.02 185.00 351.48 184.64Q350.94 184.28 350.63 183.75Q350.31 183.21 350.31 182.49L350.31 182.49Q350.31 182.40 350.32 182.32Q350.33 182.24 350.33 182.20L350.33 182.20L352.10 182.20Q352.10 182.23 352.09 182.30Q352.08 182.38 352.08 182.43L352.08 182.43Q352.08 182.88 352.34 183.19Q352.60 183.51 353.08 183.68Q353.57 183.85 354.23 183.85L354.23 183.85Q354.68 183.85 355.02 183.79Q355.36 183.74 355.61 183.64Q355.86 183.54 356.03 183.40Q356.19 183.25 356.26 183.08Q356.34 182.90 356.34 182.70L356.34 182.70Q356.34 182.31 356.09 182.05Q355.85 181.80 355.44 181.62Q355.03 181.45 354.51 181.30Q353.99 181.16 353.44 181.01Q352.89 180.87 352.37 180.66Q351.85 180.45 351.44 180.15Q351.03 179.85 350.79 179.40Q350.54 178.95 350.54 178.31L350.54 178.31Q350.54 177.67 350.82 177.18Q351.10 176.69 351.60 176.38Q352.11 176.06 352.79 175.90Q353.46 175.75 354.26 175.75L354.26 175.75Q355.00 175.75 355.65 175.90Q356.31 176.06 356.81 176.39Q357.31 176.72 357.59 177.23Q357.87 177.73 357.87 178.44L357.87 178.44L357.87 178.60L356.13 178.60L356.13 178.46Q356.13 178.07 355.90 177.80Q355.66 177.53 355.24 177.38Q354.81 177.23 354.24 177.23L354.24 177.23Q353.64 177.23 353.20 177.35Q352.77 177.46 352.54 177.69Q352.31 177.91 352.31 178.23L352.31 178.23Q352.31 178.57 352.56 178.80Q352.80 179.03 353.21 179.19Q353.62 179.35 354.14 179.49Q354.66 179.62 355.21 179.78Q355.76 179.93 356.28 180.14Q356.79 180.34 357.21 180.64Q357.62 180.95 357.86 181.39Q358.10 181.84 358.10 182.46L358.10 182.46Q358.10 183.50 357.60 184.13Q357.09 184.77 356.21 185.05Q355.32 185.33 354.19 185.33ZM367.01 185.33L367.01 185.33Q365.60 185.33 364.59 184.83Q363.59 184.34 363.05 183.28Q362.52 182.22 362.52 180.54L362.52 180.54Q362.52 178.10 363.71 176.92Q364.90 175.75 367.01 175.75L367.01 175.75Q368.16 175.75 369.09 176.14Q370.01 176.53 370.56 177.32Q371.11 178.11 371.11 179.33L371.11 179.33L369.31 179.33Q369.31 178.65 369.02 178.19Q368.73 177.72 368.22 177.48Q367.70 177.23 367.04 177.23L367.04 177.23Q366.12 177.23 365.52 177.59Q364.91 177.95 364.62 178.65Q364.33 179.35 364.33 180.39L364.33 180.39L364.33 180.69Q364.33 181.74 364.62 182.44Q364.91 183.15 365.51 183.50Q366.11 183.85 367.04 183.85L367.04 183.85Q367.74 183.85 368.27 183.61Q368.80 183.38 369.09 182.91Q369.38 182.44 369.38 181.77L369.38 181.77L371.11 181.77Q371.11 182.98 370.57 183.77Q370.03 184.56 369.10 184.95Q368.18 185.33 367.01 185.33ZM376.72 185.17L374.91 185.17L378.52 175.91L380.73 175.91L384.35 185.17L382.45 185.17L381.70 183.20L377.46 183.20L376.72 185.17ZM378.95 179.20L378.02 181.72L381.14 181.72L380.20 179.20Q380.15 179.07 380.08 178.86Q380.00 178.65 379.92 178.40Q379.84 178.15 379.76 177.90Q379.68 177.64 379.61 177.44L379.61 177.44L379.54 177.44Q379.46 177.71 379.35 178.06Q379.23 178.41 379.12 178.72Q379.02 179.03 378.95 179.20L378.95 179.20ZM395.04 185.17L388.64 185.17L388.64 175.91L390.40 175.91L390.40 183.65L395.04 183.65L395.04 185.17ZM401.29 185.17L399.54 185.17L399.54 175.91L401.29 175.91L401.29 185.17ZM413.58 185.17L405.91 185.17L405.91 184.34L410.85 177.41L406.26 177.41L406.26 175.91L413.46 175.91L413.46 176.76L408.52 183.67L413.58 183.67L413.58 185.17ZM419.15 185.17L417.35 185.17L420.95 175.91L423.16 175.91L426.78 185.17L424.88 185.17L424.14 183.20L419.90 183.20L419.15 185.17ZM421.38 179.20L420.45 181.72L423.57 181.72L422.64 179.20Q422.58 179.07 422.51 178.86Q422.43 178.65 422.35 178.40Q422.27 178.15 422.19 177.90Q422.11 177.64 422.04 177.44L422.04 177.44L421.98 177.44Q421.89 177.71 421.78 178.06Q421.67 178.41 421.56 178.72Q421.45 179.03 421.38 179.20L421.38 179.20ZM435.11 187.63L435.11 187.63Q434.77 187.63 434.41 187.60Q434.05 187.57 433.75 187.52L433.75 187.52L433.75 186.86L434.99 186.86Q435.26 186.86 435.42 186.79Q435.57 186.72 435.57 186.54L435.57 186.54Q435.57 186.37 435.46 186.29Q435.34 186.21 435.02 186.21L435.02 186.21L434.42 186.21L434.57 185.31Q433.52 185.23 432.74 184.83L432.74 184.83Q431.72 184.34 431.19 183.28Q430.66 182.22 430.66 180.54L430.66 180.54Q430.66 178.10 431.84 176.92Q433.03 175.75 435.15 175.75L435.15 175.75Q436.30 175.75 437.22 176.14Q438.15 176.53 438.70 177.32Q439.24 178.11 439.24 179.33L439.24 179.33L437.45 179.33Q437.45 178.65 437.16 178.19Q436.87 177.72 436.35 177.48Q435.84 177.23 435.18 177.23L435.18 177.23Q434.26 177.23 433.65 177.59Q433.05 177.95 432.76 178.65Q432.47 179.35 432.47 180.39L432.47 180.39L432.47 180.69Q432.47 181.74 432.76 182.44Q433.05 183.15 433.65 183.50Q434.25 183.85 435.18 183.85L435.18 183.85Q435.88 183.85 436.41 183.61Q436.93 183.38 437.22 182.91Q437.51 182.44 437.51 181.77L437.51 181.77L439.24 181.77Q439.24 182.98 438.70 183.77Q438.16 184.56 437.24 184.94L437.24 184.94Q436.50 185.25 435.62 185.32L435.62 185.32L435.58 185.63Q435.94 185.64 436.23 185.75Q436.53 185.85 436.70 186.04Q436.88 186.22 436.88 186.54L436.88 186.54Q436.88 186.87 436.70 187.09Q436.53 187.31 436.26 187.42Q435.99 187.53 435.69 187.58Q435.38 187.63 435.11 187.63ZM448.26 185.33L448.26 185.33Q446.82 185.33 445.76 184.81Q444.71 184.29 444.15 183.23Q443.59 182.16 443.59 180.54L443.59 180.54Q443.59 178.91 444.15 177.85Q444.71 176.79 445.76 176.27Q446.82 175.75 448.26 175.75L448.26 175.75Q449.72 175.75 450.77 176.27Q451.81 176.79 452.37 177.85Q452.93 178.91 452.93 180.54L452.93 180.54Q452.93 182.16 452.37 183.23Q451.81 184.29 450.77 184.81Q449.72 185.33 448.26 185.33ZM448.26 183.85L448.26 183.85Q448.96 183.85 449.50 183.65Q450.03 183.44 450.39 183.05Q450.76 182.65 450.95 182.06Q451.14 181.47 451.14 180.70L451.14 180.70L451.14 180.41Q451.14 179.62 450.95 179.03Q450.76 178.44 450.39 178.04Q450.03 177.64 449.50 177.44Q448.96 177.23 448.26 177.23L448.26 177.23Q447.56 177.23 447.03 177.44Q446.49 177.64 446.13 178.04Q445.76 178.44 445.58 179.03Q445.40 179.62 445.40 180.41L445.40 180.41L445.40 180.70Q445.40 181.47 445.58 182.06Q445.76 182.65 446.13 183.05Q446.49 183.44 447.03 183.65Q447.56 183.85 448.26 183.85ZM446.94 174.97L446.01 174.97Q446.01 174.53 446.14 174.18Q446.26 173.82 446.55 173.60Q446.83 173.39 447.28 173.39L447.28 173.39Q447.63 173.39 447.93 173.50Q448.23 173.62 448.53 173.74Q448.83 173.86 449.14 173.86L449.14 173.86Q449.33 173.86 449.44 173.76Q449.56 173.66 449.58 173.39L449.58 173.39L450.50 173.39Q450.50 173.81 450.37 174.16Q450.25 174.52 449.97 174.74Q449.69 174.97 449.23 174.97L449.23 174.97Q448.90 174.97 448.59 174.84Q448.27 174.72 447.98 174.60Q447.69 174.48 447.38 174.48L447.38 174.48Q447.21 174.48 447.09 174.59Q446.97 174.70 446.94 174.97L446.94 174.97ZM465.07 185.17L457.77 185.17L457.77 175.91L464.99 175.91L464.99 177.41L459.52 177.41L459.52 179.69L464.39 179.69L464.39 181.19L459.52 181.19L459.52 183.67L465.07 183.67L465.07 185.17ZM473.49 185.33L473.49 185.33Q472.72 185.33 472.02 185.17Q471.32 185.00 470.78 184.64Q470.24 184.28 469.93 183.75Q469.62 183.21 469.62 182.49L469.62 182.49Q469.62 182.40 469.63 182.32Q469.63 182.24 469.63 182.20L469.63 182.20L471.40 182.20Q471.40 182.23 471.39 182.30Q471.39 182.38 471.39 182.43L471.39 182.43Q471.39 182.88 471.64 183.19Q471.90 183.51 472.39 183.68Q472.87 183.85 473.53 183.85L473.53 183.85Q473.98 183.85 474.32 183.79Q474.67 183.74 474.92 183.64Q475.17 183.54 475.33 183.40Q475.49 183.25 475.57 183.08Q475.64 182.90 475.64 182.70L475.64 182.70Q475.64 182.31 475.40 182.05Q475.15 181.80 474.74 181.62Q474.33 181.45 473.81 181.30Q473.29 181.16 472.74 181.01Q472.20 180.87 471.68 180.66Q471.16 180.45 470.75 180.15Q470.33 179.85 470.09 179.40Q469.85 178.95 469.85 178.31L469.85 178.31Q469.85 177.67 470.13 177.18Q470.40 176.69 470.91 176.38Q471.41 176.06 472.09 175.90Q472.76 175.75 473.56 175.75L473.56 175.75Q474.30 175.75 474.96 175.90Q475.61 176.06 476.11 176.39Q476.61 176.72 476.90 177.23Q477.18 177.73 477.18 178.44L477.18 178.44L477.18 178.60L475.44 178.60L475.44 178.46Q475.44 178.07 475.20 177.80Q474.97 177.53 474.54 177.38Q474.11 177.23 473.55 177.23L473.55 177.23Q472.94 177.23 472.51 177.35Q472.08 177.46 471.85 177.69Q471.62 177.91 471.62 178.23L471.62 178.23Q471.62 178.57 471.86 178.80Q472.10 179.03 472.52 179.19Q472.93 179.35 473.45 179.49Q473.97 179.62 474.51 179.78Q475.06 179.93 475.58 180.14Q476.10 180.34 476.51 180.64Q476.92 180.95 477.17 181.39Q477.41 181.84 477.41 182.46L477.41 182.46Q477.41 183.50 476.90 184.13Q476.40 184.77 475.51 185.05Q474.63 185.33 473.49 185.33Z" fill="#E8A54C"></path></svg>