<svg xmlns="http://www.w3.org/2000/svg" width="327" height="337" viewBox="0 0 327 337"><image x="101.28" y="54" width="124.43" height="130" href="lupa_navy.png"></image><path d="M77.55 232.81L69.36 232.81L69.36 203.92L82.29 203.92L84.94 214.08Q85.11 214.63 85.42 215.89Q85.74 217.15 86.09 218.62Q86.45 220.09 86.75 221.35L86.75 221.35L87.08 221.35Q87.29 220.42 87.61 219.14Q87.92 217.86 88.26 216.52Q88.59 215.17 88.85 214.08L88.85 214.08L91.49 203.92L103.97 203.92L103.97 232.81L95.10 232.81L95.10 222.40Q95.10 220.72 95.13 218.93Q95.15 217.15 95.17 215.55Q95.19 213.95 95.19 212.90L95.19 212.90L94.85 212.90Q94.73 213.74 94.50 214.88Q94.26 216.01 94.01 217.13Q93.76 218.24 93.51 219.08L93.51 219.08L89.77 232.81L82.84 232.81L79.06 219.08Q78.85 218.24 78.58 217.13Q78.30 216.01 78.09 214.88Q77.88 213.74 77.72 212.95L77.72 212.95L77.38 212.95Q77.42 214.00 77.46 215.59Q77.51 217.19 77.53 218.95Q77.55 220.72 77.55 222.40L77.55 222.40L77.55 232.81ZM123.59 233.32L123.59 233.32Q119.05 233.32 115.84 231.95Q112.63 230.59 110.90 227.88Q109.18 225.17 109.18 221.18L109.18 221.18L109.18 203.92L118.46 203.92L118.46 221.05Q118.46 223.36 119.72 224.87Q120.98 226.39 123.55 226.39L123.55 226.39Q126.11 226.39 127.39 224.87Q128.67 223.36 128.67 221.05L128.67 221.05L128.67 203.92L137.95 203.92L137.95 221.18Q137.95 225.17 136.25 227.88Q134.55 230.59 131.34 231.95Q128.12 233.32 123.59 233.32ZM167.28 232.81L143.17 232.81L143.17 203.92L152.45 203.92L152.45 225.42L167.28 225.42L167.28 232.81ZM182.70 232.81L170.18 232.81L170.18 203.92L182.70 203.92Q187.65 203.92 191.01 205.47Q194.37 207.02 196.12 210.22Q197.86 213.41 197.86 218.36L197.86 218.36Q197.86 223.28 196.12 226.49Q194.37 229.70 191.01 231.26Q187.65 232.81 182.70 232.81L182.70 232.81ZM179.46 210.85L179.46 225.88L182.53 225.88Q184.04 225.88 185.16 225.46Q186.27 225.04 186.98 224.24Q187.70 223.45 188.03 222.27Q188.37 221.09 188.37 219.62L188.37 219.62L188.37 217.10Q188.37 215.63 188.03 214.46Q187.70 213.28 186.98 212.48Q186.27 211.69 185.16 211.27Q184.04 210.85 182.53 210.85L182.53 210.85L179.46 210.85ZM227.27 232.81L201.98 232.81L201.98 203.92L226.97 203.92L226.97 210.85L211.27 210.85L211.27 214.84L224.71 214.84L224.71 221.47L211.27 221.47L211.27 225.88L227.27 225.88L227.27 232.81ZM240.46 232.81L231.18 232.81L231.18 203.92L249.28 203.92Q252.52 203.92 254.68 205.22Q256.84 206.52 257.94 208.62Q259.03 210.72 259.03 213.16L259.03 213.16Q259.03 215.93 257.73 218.09Q256.42 220.25 254.20 221.56L254.20 221.56L259.87 232.81L249.45 232.81L245.04 223.11L240.46 223.11L240.46 232.81ZM240.46 210.51L240.46 216.68L246.97 216.68Q248.07 216.68 248.82 215.82Q249.58 214.96 249.58 213.53L249.58 213.53Q249.58 212.65 249.24 211.98Q248.91 211.31 248.32 210.91Q247.73 210.51 246.97 210.51L246.97 210.51L240.46 210.51Z" fill="#142C5D"></path><path d="M80.49 250.85L70.21 250.85L70.21 237.81L80.37 237.81L80.37 239.92L72.68 239.92L72.68 243.13L79.54 243.13L79.54 245.24L72.68 245.24L72.68 248.74L80.49 248.74L80.49 250.85ZM92.15 250.85L89.78 250.85L89.78 237.81L92.13 237.81L97.70 245.51Q97.80 245.62 97.93 245.82Q98.06 246.02 98.18 246.21Q98.29 246.40 98.33 246.51L98.33 246.51L98.42 246.51L98.42 237.81L100.80 237.81L100.80 250.85L98.46 250.85L92.87 243.09Q92.72 242.87 92.52 242.53Q92.32 242.20 92.25 242.07L92.25 242.07L92.15 242.07L92.15 250.85ZM116.41 251.07L116.41 251.07Q113.39 251.07 111.72 249.45Q110.05 247.83 110.05 244.33L110.05 244.33Q110.05 242.03 110.84 240.54Q111.63 239.05 113.12 238.32Q114.61 237.58 116.70 237.58L116.70 237.58Q117.95 237.58 119.05 237.87Q120.16 238.15 121.00 238.73Q121.85 239.31 122.32 240.19Q122.80 241.06 122.80 242.26L122.80 242.26L120.25 242.26Q120.25 241.63 119.98 241.15Q119.70 240.66 119.22 240.33Q118.73 240.00 118.10 239.84Q117.48 239.67 116.77 239.67L116.77 239.67Q115.73 239.67 114.94 239.95Q114.15 240.22 113.63 240.79Q113.11 241.35 112.85 242.18Q112.59 243.02 112.59 244.14L112.59 244.14L112.59 244.54Q112.59 246.08 113.03 247.06Q113.47 248.05 114.35 248.52Q115.24 248.98 116.55 248.98L116.55 248.98Q117.67 248.98 118.51 248.64Q119.36 248.30 119.84 247.64Q120.33 246.99 120.33 246.04L120.33 246.04L120.33 245.91L116.17 245.91L116.17 243.85L122.80 243.85L122.80 250.85L121.03 250.85L120.82 249.40Q120.25 249.97 119.61 250.34Q118.96 250.71 118.18 250.89Q117.40 251.07 116.41 251.07ZM142.65 250.85L132.37 250.85L132.37 237.81L142.54 237.81L142.54 239.92L134.84 239.92L134.84 243.13L141.70 243.13L141.70 245.24L134.84 245.24L134.84 248.74L142.65 248.74L142.65 250.85ZM154.31 250.85L151.94 250.85L151.94 237.81L154.30 237.81L159.86 245.51Q159.96 245.62 160.09 245.82Q160.22 246.02 160.34 246.21Q160.45 246.40 160.49 246.51L160.49 246.51L160.58 246.51L160.58 237.81L162.96 237.81L162.96 250.85L160.62 250.85L155.04 243.09Q154.88 242.87 154.69 242.53Q154.49 242.20 154.41 242.07L154.41 242.07L154.31 242.07L154.31 250.85ZM175.12 250.85L172.65 250.85L172.65 237.81L175.12 237.81L175.12 243.11L181.20 243.11L181.20 237.81L183.67 237.81L183.67 250.85L181.20 250.85L181.20 245.24L175.12 245.24L175.12 250.85ZM194.55 250.85L192.01 250.85L197.08 237.81L200.20 237.81L205.29 250.85L202.61 250.85L201.56 248.07L195.60 248.07L194.55 250.85ZM197.69 242.45L196.38 245.98L200.77 245.98L199.45 242.45Q199.38 242.26 199.27 241.96Q199.17 241.67 199.06 241.32Q198.94 240.97 198.83 240.61Q198.71 240.24 198.62 239.96L198.62 239.96L198.52 239.96Q198.41 240.34 198.25 240.83Q198.09 241.33 197.93 241.76Q197.78 242.20 197.69 242.45L197.69 242.45ZM216.10 250.85L213.63 250.85L213.63 237.81L220.49 237.81Q221.93 237.81 222.88 238.31Q223.83 238.80 224.30 239.71Q224.78 240.62 224.78 241.86L224.78 241.86Q224.78 243.13 224.21 244.11Q223.64 245.09 222.54 245.58L222.54 245.58L225.24 250.85L222.54 250.85L220.14 246.00L216.10 246.00L216.10 250.85ZM216.10 239.92L216.10 243.93L220.30 243.93Q221.25 243.93 221.76 243.38Q222.27 242.83 222.27 241.86L222.27 241.86Q222.27 241.23 222.04 240.80Q221.82 240.38 221.38 240.15Q220.94 239.92 220.30 239.92L220.30 239.92L216.10 239.92ZM236.52 250.85L234.05 250.85L234.05 237.81L236.52 237.81L236.52 250.85ZM247.40 250.85L244.86 250.85L249.93 237.81L253.05 237.81L258.14 250.85L255.46 250.85L254.42 248.07L248.45 248.07L247.40 250.85ZM250.54 242.45L249.23 245.98L253.62 245.98L252.31 242.45Q252.23 242.26 252.13 241.96Q252.02 241.67 251.91 241.32Q251.79 240.97 251.68 240.61Q251.57 240.24 251.47 239.96L251.47 239.96L251.38 239.96Q251.26 240.34 251.10 240.83Q250.94 241.33 250.79 241.76Q250.63 242.20 250.54 242.45L250.54 242.45Z" fill="#142C5D"></path><rect x="54.23" y="263.85" width="218.55" height="3" fill="#142C5D"></rect><path d="M70.28 283.39L65.06 283.39L65.06 275.85L66.49 275.85L66.49 282.15L70.28 282.15L70.28 283.39ZM74.53 283.39L73.05 283.39L75.99 275.85L77.79 275.85L80.74 283.39L79.19 283.39L78.58 281.79L75.13 281.79L74.53 283.39ZM76.34 278.53L75.58 280.58L78.12 280.58L77.36 278.53Q77.32 278.42 77.26 278.25Q77.20 278.08 77.13 277.88Q77.07 277.67 77.00 277.46Q76.93 277.25 76.88 277.09L76.88 277.09L76.82 277.09Q76.76 277.31 76.66 277.59Q76.57 277.88 76.48 278.13Q76.40 278.39 76.34 278.53L76.34 278.53ZM87.27 283.52L87.27 283.52Q86.28 283.52 85.56 283.20Q84.85 282.89 84.47 282.23Q84.09 281.58 84.09 280.60L84.09 280.60L84.09 275.85L85.52 275.85L85.52 280.55Q85.52 281.42 85.97 281.87Q86.43 282.31 87.27 282.31L87.27 282.31Q88.10 282.31 88.57 281.87Q89.04 281.42 89.04 280.55L89.04 280.55L89.04 275.85L90.47 275.85L90.47 280.60Q90.47 281.58 90.08 282.23Q89.70 282.89 88.98 283.20Q88.27 283.52 87.27 283.52ZM97.62 283.39L94.60 283.39L94.60 275.85L97.62 275.85Q98.76 275.85 99.58 276.25Q100.39 276.66 100.83 277.49Q101.27 278.32 101.27 279.62L101.27 279.62Q101.27 280.91 100.83 281.74Q100.39 282.58 99.58 282.99Q98.76 283.39 97.62 283.39L97.62 283.39ZM96.03 277.07L96.03 282.17L97.62 282.17Q98.15 282.17 98.56 282.02Q98.96 281.86 99.24 281.56Q99.51 281.26 99.66 280.80Q99.80 280.34 99.80 279.74L99.80 279.74L99.80 279.51Q99.80 278.89 99.66 278.44Q99.51 277.98 99.24 277.68Q98.96 277.38 98.56 277.22Q98.15 277.07 97.62 277.07L97.62 277.07L96.03 277.07ZM108.57 283.52L108.57 283.52Q107.39 283.52 106.53 283.10Q105.68 282.68 105.22 281.81Q104.76 280.94 104.76 279.62L104.76 279.62Q104.76 278.29 105.22 277.42Q105.68 276.56 106.53 276.14Q107.39 275.71 108.57 275.71L108.57 275.71Q109.76 275.71 110.61 276.14Q111.46 276.56 111.92 277.42Q112.37 278.29 112.37 279.62L112.37 279.62Q112.37 280.94 111.92 281.81Q111.46 282.68 110.61 283.10Q109.76 283.52 108.57 283.52ZM108.57 282.31L108.57 282.31Q109.14 282.31 109.57 282.15Q110.01 281.98 110.31 281.66Q110.60 281.33 110.76 280.86Q110.91 280.38 110.91 279.75L110.91 279.75L110.91 279.51Q110.91 278.87 110.76 278.39Q110.60 277.90 110.31 277.58Q110.01 277.25 109.57 277.09Q109.14 276.92 108.57 276.92L108.57 276.92Q108.00 276.92 107.56 277.09Q107.13 277.25 106.83 277.58Q106.53 277.90 106.38 278.39Q106.24 278.87 106.24 279.51L106.24 279.51L106.24 279.75Q106.24 280.38 106.38 280.86Q106.53 281.33 106.83 281.66Q107.13 281.98 107.56 282.15Q108.00 282.31 108.57 282.31ZM119.02 283.52L119.02 283.52Q118.39 283.52 117.82 283.39Q117.25 283.25 116.81 282.96Q116.37 282.67 116.12 282.23Q115.86 281.80 115.86 281.20L115.86 281.20Q115.86 281.14 115.87 281.07Q115.88 281.00 115.88 280.97L115.88 280.97L117.32 280.97Q117.32 280.99 117.31 281.05Q117.31 281.12 117.31 281.16L117.31 281.16Q117.31 281.52 117.51 281.78Q117.72 282.04 118.12 282.18Q118.52 282.31 119.05 282.31L119.05 282.31Q119.42 282.31 119.70 282.27Q119.98 282.23 120.18 282.14Q120.39 282.06 120.52 281.95Q120.65 281.83 120.71 281.69Q120.77 281.54 120.77 281.38L120.77 281.38Q120.77 281.06 120.57 280.85Q120.37 280.64 120.04 280.50Q119.70 280.36 119.28 280.24Q118.86 280.13 118.41 280.00Q117.97 279.88 117.54 279.71Q117.12 279.54 116.78 279.30Q116.45 279.06 116.25 278.69Q116.05 278.32 116.05 277.80L116.05 277.80Q116.05 277.28 116.28 276.88Q116.50 276.48 116.91 276.23Q117.33 275.97 117.88 275.84Q118.43 275.71 119.08 275.71L119.08 275.71Q119.68 275.71 120.21 275.84Q120.75 275.97 121.16 276.24Q121.56 276.51 121.79 276.92Q122.02 277.33 122.02 277.90L122.02 277.90L122.02 278.03L120.61 278.03L120.61 277.93Q120.61 277.61 120.41 277.39Q120.22 277.17 119.87 277.05Q119.53 276.92 119.07 276.92L119.07 276.92Q118.57 276.92 118.22 277.02Q117.87 277.11 117.68 277.29Q117.49 277.47 117.49 277.74L117.49 277.74Q117.49 278.01 117.69 278.20Q117.89 278.39 118.22 278.52Q118.56 278.65 118.98 278.76Q119.41 278.87 119.85 279.00Q120.30 279.12 120.72 279.29Q121.14 279.45 121.48 279.70Q121.82 279.95 122.01 280.31Q122.21 280.68 122.21 281.18L122.21 281.18Q122.21 282.03 121.80 282.55Q121.39 283.06 120.67 283.29Q119.95 283.52 119.02 283.52ZM136.69 283.39L130.74 283.39L130.74 275.85L136.63 275.85L136.63 277.07L132.17 277.07L132.17 278.93L136.14 278.93L136.14 280.15L132.17 280.15L132.17 282.17L136.69 282.17L136.69 283.39ZM146.76 283.39L145.33 283.39L145.33 275.85L150.76 275.85L150.76 277.07L146.76 277.07L146.76 279.09L150.36 279.09L150.36 280.31L146.76 280.31L146.76 283.39ZM155.96 283.39L154.53 283.39L154.53 275.85L155.96 275.85L155.96 283.39ZM162.95 283.52L162.95 283.52Q162.32 283.52 161.75 283.39Q161.18 283.25 160.74 282.96Q160.30 282.67 160.05 282.23Q159.79 281.80 159.79 281.20L159.79 281.20Q159.79 281.14 159.80 281.07Q159.81 281.00 159.81 280.97L159.81 280.97L161.25 280.97Q161.25 280.99 161.24 281.05Q161.24 281.12 161.24 281.16L161.24 281.16Q161.24 281.52 161.44 281.78Q161.65 282.04 162.05 282.18Q162.45 282.31 162.98 282.31L162.98 282.31Q163.35 282.31 163.63 282.27Q163.91 282.23 164.11 282.14Q164.32 282.06 164.45 281.95Q164.58 281.83 164.64 281.69Q164.70 281.54 164.70 281.38L164.70 281.38Q164.70 281.06 164.50 280.85Q164.30 280.64 163.97 280.50Q163.63 280.36 163.21 280.24Q162.79 280.13 162.34 280.00Q161.90 279.88 161.47 279.71Q161.05 279.54 160.71 279.30Q160.38 279.06 160.18 278.69Q159.98 278.32 159.98 277.80L159.98 277.80Q159.98 277.28 160.21 276.88Q160.43 276.48 160.84 276.23Q161.26 275.97 161.81 275.84Q162.36 275.71 163.01 275.71L163.01 275.71Q163.61 275.71 164.14 275.84Q164.68 275.97 165.09 276.24Q165.49 276.51 165.72 276.92Q165.95 277.33 165.95 277.90L165.95 277.90L165.95 278.03L164.54 278.03L164.54 277.93Q164.54 277.61 164.34 277.39Q164.15 277.17 163.80 277.05Q163.46 276.92 163.00 276.92L163.00 276.92Q162.50 276.92 162.15 277.02Q161.80 277.11 161.61 277.29Q161.42 277.47 161.42 277.74L161.42 277.74Q161.42 278.01 161.62 278.20Q161.82 278.39 162.15 278.52Q162.49 278.65 162.91 278.76Q163.34 278.87 163.78 279.00Q164.23 279.12 164.65 279.29Q165.07 279.45 165.41 279.70Q165.75 279.95 165.94 280.31Q166.14 280.68 166.14 281.18L166.14 281.18Q166.14 282.03 165.73 282.55Q165.32 283.06 164.60 283.29Q163.88 283.52 162.95 283.52ZM173.29 283.52L173.29 283.52Q172.14 283.52 171.32 283.12Q170.50 282.71 170.07 281.85Q169.63 280.98 169.63 279.62L169.63 279.62Q169.63 277.63 170.60 276.67Q171.57 275.71 173.29 275.71L173.29 275.71Q174.23 275.71 174.98 276.03Q175.74 276.35 176.18 277.00Q176.63 277.64 176.63 278.63L176.63 278.63L175.16 278.63Q175.16 278.08 174.93 277.70Q174.69 277.32 174.27 277.12Q173.86 276.92 173.32 276.92L173.32 276.92Q172.57 276.92 172.07 277.22Q171.58 277.51 171.34 278.08Q171.11 278.65 171.11 279.50L171.11 279.50L171.11 279.74Q171.11 280.60 171.34 281.17Q171.58 281.74 172.07 282.03Q172.56 282.31 173.32 282.31L173.32 282.31Q173.89 282.31 174.32 282.12Q174.75 281.93 174.98 281.55Q175.22 281.17 175.22 280.62L175.22 280.62L176.63 280.62Q176.63 281.61 176.19 282.25Q175.75 282.90 174.99 283.21Q174.24 283.52 173.29 283.52ZM181.10 283.39L179.62 283.39L182.56 275.85L184.36 275.85L187.31 283.39L185.76 283.39L185.16 281.79L181.70 281.79L181.10 283.39ZM182.91 278.53L182.15 280.58L184.69 280.58L183.93 278.53Q183.89 278.42 183.83 278.25Q183.77 278.08 183.70 277.88Q183.64 277.67 183.57 277.46Q183.51 277.25 183.45 277.09L183.45 277.09L183.40 277.09Q183.33 277.31 183.24 277.59Q183.14 277.88 183.05 278.13Q182.97 278.39 182.91 278.53L182.91 278.53ZM195.92 283.39L190.70 283.39L190.70 275.85L192.13 275.85L192.13 282.15L195.92 282.15L195.92 283.39ZM200.90 283.39L199.47 283.39L199.47 275.85L200.90 275.85L200.90 283.39ZM210.81 283.39L204.56 283.39L204.56 282.71L208.58 277.07L204.84 277.07L204.84 275.85L210.71 275.85L210.71 276.54L206.68 282.17L210.81 282.17L210.81 283.39ZM215.24 283.39L213.77 283.39L216.70 275.85L218.51 275.85L221.46 283.39L219.91 283.39L219.30 281.79L215.85 281.79L215.24 283.39ZM217.06 278.53L216.30 280.58L218.84 280.58L218.08 278.53Q218.04 278.42 217.97 278.25Q217.91 278.08 217.85 277.88Q217.78 277.67 217.72 277.46Q217.65 277.25 217.60 277.09L217.60 277.09L217.54 277.09Q217.47 277.31 217.38 277.59Q217.29 277.88 217.20 278.13Q217.11 278.39 217.06 278.53L217.06 278.53ZM228.14 285.39L228.14 285.39Q227.86 285.39 227.56 285.37Q227.27 285.35 227.03 285.31L227.03 285.31L227.03 284.77L228.04 284.77Q228.26 284.77 228.38 284.71Q228.51 284.66 228.51 284.50L228.51 284.50Q228.51 284.37 228.42 284.31Q228.32 284.24 228.06 284.24L228.06 284.24L227.58 284.24L227.70 283.50Q226.84 283.44 226.20 283.12L226.20 283.12Q225.38 282.71 224.94 281.85Q224.51 280.98 224.51 279.62L224.51 279.62Q224.51 277.63 225.47 276.67Q226.44 275.71 228.17 275.71L228.17 275.71Q229.10 275.71 229.86 276.03Q230.61 276.35 231.06 277.00Q231.50 277.64 231.50 278.63L231.50 278.63L230.04 278.63Q230.04 278.08 229.80 277.70Q229.57 277.32 229.15 277.12Q228.73 276.92 228.19 276.92L228.19 276.92Q227.44 276.92 226.95 277.22Q226.45 277.51 226.22 278.08Q225.98 278.65 225.98 279.50L225.98 279.50L225.98 279.74Q225.98 280.60 226.22 281.17Q226.45 281.74 226.94 282.03Q227.43 282.31 228.19 282.31L228.19 282.31Q228.76 282.31 229.19 282.12Q229.62 281.93 229.86 281.55Q230.09 281.17 230.09 280.62L230.09 280.62L231.50 280.62Q231.50 281.61 231.06 282.25Q230.62 282.90 229.87 283.20L229.87 283.20Q229.27 283.46 228.55 283.51L228.55 283.51L228.52 283.77Q228.81 283.78 229.05 283.86Q229.29 283.94 229.43 284.10Q229.58 284.25 229.58 284.50L229.58 284.50Q229.58 284.78 229.43 284.95Q229.29 285.13 229.07 285.22Q228.85 285.32 228.60 285.36Q228.36 285.39 228.14 285.39ZM238.74 283.52L238.74 283.52Q237.57 283.52 236.71 283.10Q235.85 282.68 235.39 281.81Q234.94 280.94 234.94 279.62L234.94 279.62Q234.94 278.29 235.39 277.42Q235.85 276.56 236.71 276.14Q237.57 275.71 238.74 275.71L238.74 275.71Q239.93 275.71 240.78 276.14Q241.64 276.56 242.09 277.42Q242.55 278.29 242.55 279.62L242.55 279.62Q242.55 280.94 242.09 281.81Q241.64 282.68 240.78 283.10Q239.93 283.52 238.74 283.52ZM238.74 282.31L238.74 282.31Q239.32 282.31 239.75 282.15Q240.18 281.98 240.48 281.66Q240.78 281.33 240.93 280.86Q241.09 280.38 241.09 279.75L241.09 279.75L241.09 279.51Q241.09 278.87 240.93 278.39Q240.78 277.90 240.48 277.58Q240.18 277.25 239.75 277.09Q239.32 276.92 238.74 276.92L238.74 276.92Q238.17 276.92 237.74 277.09Q237.30 277.25 237.01 277.58Q236.71 277.90 236.56 278.39Q236.41 278.87 236.41 279.51L236.41 279.51L236.41 279.75Q236.41 280.38 236.56 280.86Q236.71 281.33 237.01 281.66Q237.30 281.98 237.74 282.15Q238.17 282.31 238.74 282.31ZM237.67 275.08L236.91 275.08Q236.91 274.72 237.01 274.43Q237.12 274.14 237.35 273.96Q237.58 273.79 237.94 273.79L237.94 273.79Q238.23 273.79 238.47 273.88Q238.72 273.98 238.96 274.07Q239.21 274.17 239.46 274.17L239.46 274.17Q239.61 274.17 239.71 274.09Q239.80 274.01 239.82 273.79L239.82 273.79L240.57 273.79Q240.57 274.13 240.47 274.42Q240.36 274.71 240.13 274.89Q239.91 275.08 239.54 275.08L239.54 275.08Q239.26 275.08 239.01 274.98Q238.75 274.88 238.52 274.78Q238.28 274.68 238.03 274.68L238.03 274.68Q237.89 274.68 237.79 274.77Q237.69 274.86 237.67 275.08L237.67 275.08ZM252.33 283.39L246.38 283.39L246.38 275.85L252.27 275.85L252.27 277.07L247.81 277.07L247.81 278.93L251.78 278.93L251.78 280.15L247.81 280.15L247.81 282.17L252.33 282.17L252.33 283.39ZM259.09 283.52L259.09 283.52Q258.46 283.52 257.89 283.39Q257.32 283.25 256.88 282.96Q256.44 282.67 256.18 282.23Q255.93 281.80 255.93 281.20L255.93 281.20Q255.93 281.14 255.94 281.07Q255.94 281.00 255.94 280.97L255.94 280.97L257.38 280.97Q257.38 280.99 257.38 281.05Q257.37 281.12 257.37 281.16L257.37 281.16Q257.37 281.52 257.58 281.78Q257.79 282.04 258.19 282.18Q258.58 282.31 259.12 282.31L259.12 282.31Q259.48 282.31 259.76 282.27Q260.05 282.23 260.25 282.14Q260.45 282.06 260.58 281.95Q260.72 281.83 260.78 281.69Q260.84 281.54 260.84 281.38L260.84 281.38Q260.84 281.06 260.64 280.85Q260.44 280.64 260.11 280.50Q259.77 280.36 259.35 280.24Q258.92 280.13 258.48 280.00Q258.03 279.88 257.61 279.71Q257.19 279.54 256.85 279.30Q256.51 279.06 256.32 278.69Q256.12 278.32 256.12 277.80L256.12 277.80Q256.12 277.28 256.34 276.88Q256.57 276.48 256.98 276.23Q257.39 275.97 257.94 275.84Q258.49 275.71 259.14 275.71L259.14 275.71Q259.75 275.71 260.28 275.84Q260.82 275.97 261.22 276.24Q261.63 276.51 261.86 276.92Q262.09 277.33 262.09 277.90L262.09 277.90L262.09 278.03L260.67 278.03L260.67 277.93Q260.67 277.61 260.48 277.39Q260.29 277.17 259.94 277.05Q259.59 276.92 259.13 276.92L259.13 276.92Q258.64 276.92 258.29 277.02Q257.93 277.11 257.75 277.29Q257.56 277.47 257.56 277.74L257.56 277.74Q257.56 278.01 257.76 278.20Q257.96 278.39 258.29 278.52Q258.63 278.65 259.05 278.76Q259.47 278.87 259.92 279.00Q260.36 279.12 260.79 279.29Q261.21 279.45 261.55 279.70Q261.88 279.95 262.08 280.31Q262.28 280.68 262.28 281.18L262.28 281.18Q262.28 282.03 261.87 282.55Q261.45 283.06 260.73 283.29Q260.01 283.52 259.09 283.52Z" fill="#142C5D"></path></svg>