<?xml version="1.0" encoding="UTF-8"?>
<svg version="1.1" xmlns="http://www.w3.org/2000/svg" width="512" height="512">
<path d="M0 0 C5.47138817 3.87475532 8.51479508 8.04075528 10.1953125 14.5546875 C10.41469534 17.35388835 10.3862629 20.12425914 10.3203125 22.9296875 C10.31128906 23.66574219 10.30226563 24.40179688 10.29296875 25.16015625 C10.26961394 26.9584763 10.23375086 28.75662661 10.1953125 30.5546875 C10.76894531 30.56886719 11.34257812 30.58304688 11.93359375 30.59765625 C37.6467132 32.0413367 67.30960907 44.41246133 87.28515625 60.47265625 C89.10343925 61.74250699 89.10343925 61.74250699 91.06640625 61.3828125 C92.12021484 60.97289063 92.12021484 60.97289063 93.1953125 60.5546875 C94.14664063 60.18472656 95.09796875 59.81476563 96.078125 59.43359375 C97.14804687 58.99917969 98.21796875 58.56476563 99.3203125 58.1171875 C116.23297769 51.60797487 133.08610557 51.98796156 149.74609375 59.0625 C166.54105916 67.54879275 177.11025146 81.27517394 183.01171875 99.0078125 C186.88749416 114.94456734 184.3715062 132.74676884 176.10546875 146.84765625 C171.94808751 152.73940512 166.8579089 159.08853926 160.8515625 163.1328125 C158.99120123 164.40730397 158.99120123 164.40730397 158.953125 166.5078125 C159.07429688 167.26578125 159.19546875 168.02375 159.3203125 168.8046875 C159.61354724 170.72111489 159.90492827 172.63782612 160.1953125 174.5546875 C160.36426025 175.6473291 160.53320801 176.7399707 160.70727539 177.86572266 C162.00992643 186.83656916 162.54753853 195.59912291 162.5078125 204.6796875 C162.50507828 205.68316223 162.50507828 205.68316223 162.50228882 206.70690918 C162.29744424 251.69798494 145.27347032 296.47652968 113.1953125 328.5546875 C123.4253125 328.8846875 133.6553125 329.2146875 144.1953125 329.5546875 C144.1953125 326.5846875 144.1953125 323.6146875 144.1953125 320.5546875 C146.12767196 313.16625426 149.84005889 307.1174483 156.55859375 303.1640625 C163.93467342 299.90619838 170.36805313 299.30442685 177.96875 302.09765625 C183.62544634 304.44019157 187.21876003 307.9163044 191.3203125 312.3671875 C192.63281847 313.75116657 193.94791701 315.13269168 195.265625 316.51171875 C195.91273438 317.19113525 196.55984375 317.87055176 197.2265625 318.57055664 C199.76848881 321.13234175 202.46754943 323.47015907 205.20458984 325.81958008 C208.57205622 328.75465287 211.76317816 331.8588589 214.9453125 334.9921875 C215.59113281 335.60900391 216.23695313 336.22582031 216.90234375 336.86132812 C222.08434828 341.97416832 225.6361038 346.80469974 226.7265625 354.1171875 C226.71109375 355.81875 226.71109375 355.81875 226.6953125 357.5546875 C226.71078125 359.25625 226.71078125 359.25625 226.7265625 360.9921875 C225.42573863 369.71535933 220.25860057 375.07909085 214.2109375 381.03515625 C213.43651306 381.81103592 212.66208862 382.58691559 211.86419678 383.38630676 C210.23166985 385.017181 208.59422015 386.64314077 206.95214844 388.2644043 C204.45471816 390.73289085 201.97646934 393.21948874 199.5 395.70898438 C197.90475565 397.29798995 196.30843635 398.88591723 194.7109375 400.47265625 C193.97731995 401.20920944 193.24370239 401.94576263 192.487854 402.70463562 C185.53015002 409.53755351 179.16493764 414.61879924 169.1328125 414.9296875 C161.55982778 414.84535582 155.72187255 413.12523791 150.31640625 407.65234375 C145.61491968 401.74999556 143.91569057 396.25616223 144.0703125 388.6796875 C144.08835937 387.52726562 144.10640625 386.37484375 144.125 385.1875 C144.15980469 383.88425781 144.15980469 383.88425781 144.1953125 382.5546875 C143.28241455 382.57563477 142.3695166 382.59658203 141.42895508 382.61816406 C138.02764715 382.68651467 134.62707351 382.73657079 131.2253418 382.77441406 C129.75582329 382.79447575 128.28638409 382.82173228 126.81713867 382.85644531 C124.69950763 382.90520891 122.58293563 382.92770911 120.46484375 382.9453125 C119.19229736 382.96625977 117.91975098 382.98720703 116.60864258 383.00878906 C112.62166334 382.47837054 111.00122407 381.3786509 108.1953125 378.5546875 C107.53125 376.5546875 107.53125 376.5546875 107.5703125 374.5546875 C107.55742187 373.8946875 107.54453125 373.2346875 107.53125 372.5546875 C108.60476606 369.32150971 110.3269316 368.35000669 113.1953125 366.5546875 C116.36230837 365.95855769 119.47956612 365.9700989 122.6953125 365.98828125 C123.60861328 365.98208267 124.52191406 365.97588409 125.46289062 365.96949768 C127.3893121 365.9624098 129.31579496 365.96555549 131.2421875 365.97827148 C134.1860438 365.99214382 137.12672418 365.95804489 140.0703125 365.91992188 C141.94531328 365.91897068 143.82031802 365.92082953 145.6953125 365.92578125 C146.57251953 365.91252304 147.44972656 365.89926483 148.35351562 365.88560486 C152.69695977 365.95164053 154.64774497 366.15448135 158.24707031 368.78515625 C160.29560233 371.6972549 160.82769022 372.99615777 160.8671875 376.49609375 C160.89167969 377.40939453 160.91617187 378.32269531 160.94140625 379.26367188 C160.94269531 380.20533203 160.94398438 381.14699219 160.9453125 382.1171875 C160.97856772 383.99354909 161.01490867 385.86985913 161.0546875 387.74609375 C161.05952148 388.57310791 161.06435547 389.40012207 161.06933594 390.25219727 C161.19437699 392.53758906 161.3712902 394.41549005 162.1953125 396.5546875 C165.82296405 397.76390468 168.38128404 397.91365488 172.1953125 397.5546875 C175.03425299 395.79390163 175.03425299 395.79390163 177.6328125 393.0546875 C178.14996826 392.54784424 178.66712402 392.04100098 179.19995117 391.51879883 C180.43890704 390.2991666 181.67003262 389.07155568 182.89550781 387.83837891 C185.14672754 385.60293206 187.43336556 383.41128563 189.73271179 381.22567749 C191.94812279 379.11382346 194.14655941 376.98480251 196.34231567 374.85253906 C197.44940121 373.78210957 198.56176346 372.71710975 199.67941284 371.65771484 C201.27117328 370.14414937 202.8384962 368.60873006 204.40234375 367.06640625 C205.3250708 366.17397217 206.24779785 365.28153809 207.19848633 364.36206055 C209.70553943 360.83735048 209.67929847 358.79255429 209.1953125 354.5546875 C208.06106822 352.37227431 208.06106822 352.37227431 206.2578125 350.6796875 C205.6184375 350.01324219 204.9790625 349.34679687 204.3203125 348.66015625 C203.6190625 347.96535156 202.9178125 347.27054687 202.1953125 346.5546875 C201.4734375 345.80832031 200.7515625 345.06195313 200.0078125 344.29296875 C195.98129201 340.17557193 191.82445091 336.31195313 187.43359375 332.58984375 C185.61792577 330.93894843 183.92874158 329.26253943 182.23828125 327.48828125 C181.71532471 326.94405518 181.19236816 326.3998291 180.65356445 325.83911133 C179.61873757 324.75449786 178.59456558 323.65959063 177.58276367 322.5534668 C174.29432946 319.11963874 171.98564641 317.66794992 167.1953125 317.5546875 C163.46687286 319.28813625 163.46687286 319.28813625 161.1953125 322.5546875 C161.09114287 323.95568841 161.04022825 325.3609092 161.01953125 326.765625 C160.99568359 327.59835937 160.97183594 328.43109375 160.94726562 329.2890625 C160.9044935 331.04142333 160.87313622 332.79410207 160.85351562 334.546875 C160.81194336 335.79984375 160.81194336 335.79984375 160.76953125 337.078125 C160.75494873 337.84044434 160.74036621 338.60276367 160.7253418 339.38818359 C159.97473648 342.45629578 158.63955186 343.58392762 156.1953125 345.5546875 C153.41004944 346.0131073 153.41004944 346.0131073 150.16430664 345.95776367 C148.94526138 345.94843307 147.72621613 345.93910248 146.4702301 345.92948914 C145.15360886 345.90248428 143.83698761 345.87547943 142.48046875 345.84765625 C141.10486732 345.83977319 139.72924516 345.83496661 138.35362244 345.83308411 C132.526012 345.82136376 126.69955191 345.76971173 120.87280273 345.66821289 C117.30150249 345.60808504 113.73218277 345.59307384 110.160429 345.6043644 C108.16353913 345.59784581 106.16699838 345.54222842 104.1709137 345.4851532 C93.45783446 345.54037726 88.31510391 349.09689151 80.1953125 355.5546875 C77.35667593 357.33555693 74.453889 358.95950922 71.5078125 360.5546875 C70.82009766 360.93496094 70.13238281 361.31523437 69.42382812 361.70703125 C67.03195426 363.02620015 64.63868979 364.33299886 62.1953125 365.5546875 C63.16355957 365.56870605 63.16355957 365.56870605 64.15136719 365.58300781 C67.08345194 365.63677851 70.01395258 365.7204109 72.9453125 365.8046875 C73.96109375 365.81886719 74.976875 365.83304687 76.0234375 365.84765625 C83.51124058 366.09396556 83.51124058 366.09396556 86.86328125 368.3515625 C88.2494338 370.64420191 88.76300662 371.89529836 88.7578125 374.5546875 C88.79068359 375.5446875 88.79068359 375.5446875 88.82421875 376.5546875 C87.81958582 379.74954501 85.97166039 380.76230833 83.1953125 382.5546875 C80.43403743 382.93788617 78.07637869 383.09210276 75.32084656 383.05589294 C74.53409335 383.06142734 73.74734015 383.06696174 72.93674594 383.07266384 C70.30345544 383.08626456 67.67111373 383.07130452 65.0378418 383.05639648 C63.14862668 383.06017997 61.25941434 383.06568025 59.37020874 383.07276917 C54.23984822 383.08674003 49.10982247 383.07554119 43.9794805 383.05905795 C38.60869822 383.04520965 33.23793542 383.05166752 27.86714172 383.05519104 C18.84439704 383.05789403 9.82178531 383.04441227 0.79907227 383.02124023 C-9.62499092 382.99465415 -20.04883145 382.99287542 -30.4729169 383.0046286 C-40.50505179 383.01541919 -50.53710633 383.00920766 -60.56923485 382.99507332 C-64.83579602 382.98932221 -69.10229822 382.98938939 -73.36886024 382.99413872 C-78.39794126 382.99892127 -83.42677949 382.98875377 -88.45581436 382.96718407 C-90.29882806 382.96163256 -92.14186517 382.96113584 -93.98488045 382.96613693 C-96.50661076 382.97212007 -99.02760634 382.95952695 -101.54927063 382.94236755 C-102.63563017 382.95138262 -102.63563017 382.95138262 -103.74393636 382.96057981 C-111.77513842 382.86164697 -118.07959814 380.27977686 -123.8046875 374.5546875 C-128.93977239 367.2540077 -129.56391441 360.29129857 -128.8046875 351.5546875 C-127.29474742 345.30334322 -124.03821594 341.26920736 -119.29296875 337.0625 C-112.36691579 332.86555111 -105.36276019 332.11696092 -97.4140625 332.16992188 C-95.91686424 332.16186272 -95.91686424 332.16186272 -94.38941956 332.15364075 C-92.23535081 332.14390619 -90.08124306 332.14090543 -87.92715454 332.14399719 C-84.50227456 332.14850651 -81.07790289 332.13438367 -77.65307617 332.11560059 C-70.37028813 332.07892535 -63.08755422 332.06514258 -55.8046875 332.0546875 C-47.38509324 332.04254929 -38.96574791 332.02066104 -30.54626465 331.97468567 C-27.20033552 331.96127086 -23.85473379 331.96525913 -20.50878906 331.97009277 C16.66209596 331.87571107 49.23397043 319.47350296 76.1953125 293.5546875 C99.28764959 270.12210457 111.66998151 238.4859017 111.5078125 205.8046875 C111.46364121 200.71845721 111.35976294 195.63841295 111.1953125 190.5546875 C111.16969238 189.61157715 111.14407227 188.6684668 111.11767578 187.69677734 C110.91430682 182.94806517 110.5429549 178.7910347 108.1953125 174.5546875 C104.78882712 172.47219841 101.71266827 171.51211028 97.84375 170.546875 C92.37872117 169.06066802 88.56179611 166.04629804 84.1953125 162.5546875 C83.58429688 162.11769531 82.97328125 161.68070313 82.34375 161.23046875 C71.49351907 152.98132058 64.43904899 138.73436411 62.1953125 125.5546875 C62.11784053 123.78915952 62.08732177 122.02110294 62.09765625 120.25390625 C62.10087891 119.27744141 62.10410156 118.30097656 62.10742188 117.29492188 C62.11580078 116.28751953 62.12417969 115.28011719 62.1328125 114.2421875 C62.13732422 113.21544922 62.14183594 112.18871094 62.14648438 111.13085938 C62.15823066 108.60540868 62.17465685 106.08007845 62.1953125 103.5546875 C61.46828125 103.28914063 60.74125 103.02359375 59.9921875 102.75 C57.19369111 101.55399456 54.9523813 100.14631104 52.4453125 98.4296875 C39.29265621 89.97189649 25.13993114 84.88551003 10.1953125 80.5546875 C10.25332031 81.30492187 10.31132812 82.05515625 10.37109375 82.828125 C10.71129449 90.54582182 9.84217881 96.2466226 5.1953125 102.5546875 C-0.29254534 108.08846884 -5.99016343 110.25194749 -13.7421875 110.8671875 C-28.55049098 110.35459238 -38.92543317 96.69661393 -48.5546875 86.9296875 C-49.77166204 85.70265532 -50.98910697 84.4760895 -52.20703125 83.25 C-54.93500607 80.50225455 -57.65771516 77.74938456 -60.37805176 74.99407959 C-61.7724083 73.58725533 -63.1756597 72.18926482 -64.57910156 70.79150391 C-69.6489512 65.69607144 -71.85014018 61.05472853 -72.1796875 53.8046875 C-71.79920577 43.0826914 -66.61830185 36.49206278 -59.0546875 29.3671875 C-58.28125 28.61244141 -57.5078125 27.85769531 -56.7109375 27.08007812 C-53.10525824 23.58632012 -49.43081949 20.20073521 -45.62890625 16.921875 C-42.55444712 14.26541099 -39.72640913 11.46996421 -36.93725586 8.51831055 C-26.46306272 -2.4966122 -14.61133471 -8.3157757 0 0 Z M-33.65673828 28.42480469 C-36.74629396 31.53683894 -39.84873186 34.57270184 -43.1796875 37.4296875 C-50.96182374 43.75884457 -50.96182374 43.75884457 -56.2421875 52.0546875 C-55.13033059 60.94954278 -43.27114546 69.2743667 -37.07055664 75.47412109 C-35.237494 77.30938664 -33.41260768 79.15253491 -31.58789062 80.99609375 C-30.4093441 82.17757226 -29.23032393 83.35857852 -28.05078125 84.5390625 C-27.5131163 85.08391296 -26.97545135 85.62876343 -26.42149353 86.19012451 C-20.49547983 92.33240918 -20.49547983 92.33240918 -12.6796875 94.5546875 C-9.18644463 93.3396465 -7.98700598 92.56225247 -5.8046875 89.5546875 C-5.21253407 86.22829031 -5.19895939 82.92726764 -5.1796875 79.5546875 C-5.1540903 77.76288385 -5.12052701 75.97117225 -5.078125 74.1796875 C-5.07216309 73.38820312 -5.06620117 72.59671875 -5.06005859 71.78125 C-4.77369272 69.2844462 -4.13237269 67.67992003 -2.8046875 65.5546875 C3.4063447 62.4491714 11.89346365 65.09186497 18.2578125 66.6796875 C19.63090576 67.01746216 19.63090576 67.01746216 21.03173828 67.36206055 C38.15048797 71.71562575 53.41059255 78.89936019 68.1953125 88.5546875 C68.67742187 87.72324219 69.15953125 86.89179688 69.65625 86.03515625 C70.28789062 84.94847656 70.91953125 83.86179687 71.5703125 82.7421875 C72.19679688 81.66324219 72.82328125 80.58429688 73.46875 79.47265625 C74.65586596 77.46637657 75.90220623 75.49434691 77.1953125 73.5546875 C57.53824835 56.96203259 28.31162581 47.07292922 2.9375 45.26953125 C-1.0581667 44.22792583 -2.44809273 42.96196622 -4.8046875 39.5546875 C-5.58565786 34.91951009 -5.33360954 30.25441347 -5.25390625 25.5703125 C-5.24389607 19.56054357 -5.24389607 19.56054357 -8.16015625 14.4140625 C-10.68093964 12.41448534 -10.68093964 12.41448534 -13.6171875 11.8046875 C-21.74298705 13.71664034 -27.93538163 22.64763728 -33.65673828 28.42480469 Z M88.7890625 84.578125 C85.77390223 88.31751495 83.38831603 92.28829882 81.1953125 96.5546875 C80.68097656 97.54855469 80.68097656 97.54855469 80.15625 98.5625 C76.33666123 107.66525827 76.71541347 120.46075374 79.8828125 129.6796875 C81.87316433 134.26523305 84.3158862 138.47471865 87.1953125 142.5546875 C87.7521875 143.4003125 88.3090625 144.2459375 88.8828125 145.1171875 C96.36465538 153.00345431 106.93000084 159.08521291 117.8828125 159.79296875 C132.84937772 160.1811004 144.28770019 156.97699932 155.41796875 146.453125 C164.80690298 136.52015907 168.76973131 125.51408589 168.50390625 111.98828125 C167.43225736 100.06449171 162.20569303 89.00607815 153.5078125 80.7421875 C133.8474273 64.89195447 106.35602724 65.76821464 88.7890625 84.578125 Z M133.0703125 174.0546875 C132.31621094 174.19777344 131.56210937 174.34085938 130.78515625 174.48828125 C128.92156619 174.84212746 127.05839858 175.19819723 125.1953125 175.5546875 C125.32808594 176.27269531 125.46085938 176.99070313 125.59765625 177.73046875 C132.11370264 215.92306182 124.95264731 255.28780599 102.3828125 287.2421875 C101.01211218 289.03254557 99.61389615 290.80202615 98.1953125 292.5546875 C97.74784668 293.10753418 97.30038086 293.66038086 96.83935547 294.22998047 C75.2087875 320.73483891 45.93579398 338.99743794 12.1953125 345.5546875 C11.40272537 345.72204407 10.61013824 345.88940063 9.79353333 346.06182861 C-0.589464 347.9728799 -10.94717409 347.85059111 -21.47192383 347.85964775 C-24.92735871 347.86334564 -28.38251531 347.88016001 -31.83789062 347.90040588 C-41.65212854 347.95552748 -51.46640412 347.98661279 -61.28076172 348.01098633 C-67.30640839 348.0268452 -73.33185054 348.05702898 -79.35739136 348.09575081 C-81.64751012 348.10739669 -83.93766535 348.11333112 -86.22781372 348.11343193 C-89.42032371 348.11362365 -92.61226564 348.13186079 -95.8046875 348.15405273 C-97.21982887 348.14718697 -97.21982887 348.14718697 -98.66355896 348.1401825 C-103.50624936 348.19378841 -106.9203685 348.32592438 -110.8046875 351.5546875 C-113.13004813 355.04272845 -113.13926648 356.45609504 -112.8046875 360.5546875 C-111.93169855 363.17365435 -111.36304024 364.21751523 -108.99455929 365.64776897 C-106.64592199 366.62043901 -105.04626453 366.8083282 -102.51673889 366.81538391 C-101.66651657 366.82246872 -100.81629425 366.82955353 -99.94030762 366.83685303 C-99.01520386 366.83437561 -98.0901001 366.83189819 -97.13696289 366.8293457 C-96.15573959 366.83445663 -95.1745163 366.83956757 -94.16355896 366.84483337 C-90.90975882 366.85876114 -87.65617024 366.85776773 -84.40234375 366.85546875 C-82.12666242 366.85935888 -79.8509818 366.8636942 -77.57530212 366.86845398 C-72.79114439 366.87592662 -68.00706039 366.87562094 -63.22290039 366.87036133 C-57.14912869 366.86461814 -51.07566707 366.88136664 -45.00194645 366.904706 C-40.2907083 366.91959716 -35.57954175 366.92029348 -30.86828423 366.91719627 C-28.63322787 366.91770356 -26.39816685 366.92282751 -24.16313362 366.93300819 C-6.24650914 367.00449352 11.7018519 366.12204615 28.9453125 360.8046875 C29.80471436 360.54792236 30.66411621 360.29115723 31.54956055 360.02661133 C73.10171718 347.25875985 107.98383689 318.59646109 128.5078125 280.1796875 C145.59091309 247.01659252 150.76022507 209.11843157 143.1953125 172.5546875 C139.76824687 172.5546875 136.42717844 173.41114325 133.0703125 174.0546875 Z " fill="#000000" transform="translate(285.8046875,50.4453125)"/>
<path d="M0 0 C2.13582006 -0.00437519 4.26957393 -0.04073926 6.4050293 -0.07861328 C7.77546501 -0.0844823 9.14591044 -0.08845112 10.51635742 -0.09033203 C11.75184326 -0.0985498 12.9873291 -0.10676758 14.26025391 -0.11523438 C19.2446825 0.58719554 23.62366006 3.34071008 26.70776367 7.37060547 C27.19213867 9.52685547 27.19213867 9.52685547 27.45776367 11.87060547 C27.84622962 14.25537604 27.84622962 14.25537604 28.70776367 16.37060547 C31.90029973 18.38072077 34.02693949 19.46947748 37.83276367 19.24560547 C39.8331495 18.38157856 39.8331495 18.38157856 41.89526367 16.80810547 C45.8034689 14.81057835 49.40557971 14.50881152 53.70776367 15.37060547 C59.90011941 18.2672683 64.21366319 22.45336831 68.95776367 27.30810547 C69.66416992 28.01128906 70.37057617 28.71447266 71.09838867 29.43896484 C80.13499644 38.56970394 80.13499644 38.56970394 80.14526367 45.80810547 C80.06957752 49.85731438 79.91284938 51.07762589 77.52026367 54.49560547 C75.48290976 57.12752035 75.48290976 57.12752035 75.79370117 59.65966797 C76.44189407 62.3113662 77.09879767 64.15884375 78.70776367 66.37060547 C80.99107099 67.31361576 83.03902329 67.61505791 85.48510742 67.92529297 C88.9907665 68.627657 90.55988606 70.63694305 92.70776367 73.37060547 C96.05500625 78.55300441 95.0796832 85.06592198 95.07836914 91.01464844 C95.08273636 93.23174205 95.11905995 95.4468333 95.15698242 97.66357422 C95.16285261 99.08414038 95.16682065 100.50471593 95.16870117 101.92529297 C95.17691895 103.20903809 95.18513672 104.4927832 95.19360352 105.81542969 C94.52798359 110.68616206 92.38994262 113.68842652 88.95776367 117.12060547 C86.66131277 118.39641152 85.20270981 118.61222232 82.64526367 118.99560547 C79.91940457 119.59907897 78.99286573 119.95851105 77.38354492 122.28466797 C76.41351278 124.73225961 75.8467231 126.73934145 75.70776367 129.37060547 C76.9699646 131.41624146 78.31064093 133.41463363 79.70776367 135.37060547 C80.53944925 140.10421779 80.523056 143.86348544 78.21166992 148.13623047 C75.02846767 152.56972303 71.02321645 156.30483083 67.14526367 160.12060547 C65.99380859 161.27109375 65.99380859 161.27109375 64.8190918 162.44482422 C56.49425596 170.70433877 56.49425596 170.70433877 49.90307617 171.40966797 C44.9137884 171.32089061 40.77567618 169.08254714 36.70776367 166.37060547 C34.38269277 166.7821711 34.38269277 166.7821711 32.02026367 167.74560547 C31.21202148 168.04208984 30.4037793 168.33857422 29.57104492 168.64404297 C28.95616211 168.88380859 28.3412793 169.12357422 27.70776367 169.37060547 C27.79026367 170.40185547 27.87276367 171.43310547 27.95776367 172.49560547 C27.66262807 177.07020737 26.63303548 178.89190386 23.70776367 182.37060547 C17.1332212 187.25936782 9.67140001 186.55338908 1.83276367 186.55810547 C0.76928711 186.57035156 -0.29418945 186.58259766 -1.38989258 186.59521484 C-14.29605132 186.61926359 -14.29605132 186.61926359 -19.21801758 182.92529297 C-21.91831638 179.65450851 -23.47844455 177.36373229 -24.10473633 173.12060547 C-24.86721064 169.3664548 -24.86721064 169.3664548 -27.22973633 168.05810547 C-29.66530944 167.09669503 -31.6766668 166.51693104 -34.29223633 166.37060547 C-36.93127433 168.08161307 -36.93127433 168.08161307 -39.29223633 170.37060547 C-44.30302177 171.58289227 -47.76073939 171.8966186 -52.52270508 169.49951172 C-56.14566552 167.18817492 -59.19325889 164.33098821 -62.29223633 161.37060547 C-63.14688477 160.57912109 -64.0015332 159.78763672 -64.88208008 158.97216797 C-70.97818583 153.15356483 -75.59799842 148.31705057 -76.79223633 139.80810547 C-76.32639139 136.6054215 -75.86233117 135.37937345 -74.22973633 132.74560547 C-72.02765353 129.63716685 -72.02765353 129.63716685 -72.47973633 126.74560547 C-72.74786133 125.96185547 -73.01598633 125.17810547 -73.29223633 124.37060547 C-73.62556966 122.7039388 -73.95890299 121.03727214 -74.29223633 119.37060547 C-75.50911133 119.26748047 -76.72598633 119.16435547 -77.97973633 119.05810547 C-81.77845574 118.54892968 -84.31602074 117.93345778 -87.29223633 115.37060547 C-92.10102483 108.07298004 -91.86237034 101.30263831 -91.72973633 92.74560547 C-91.73682617 91.44880859 -91.74391602 90.15201172 -91.7512207 88.81591797 C-91.70861936 82.44537838 -91.63349947 77.95419634 -88.29223633 72.37060547 C-83.40225171 67.95769252 -80.84978774 67.24916933 -74.29223633 67.37060547 C-72.82046832 62.95530145 -71.79874252 59.85108691 -73.29223633 55.37060547 C-73.80786133 54.42185547 -74.32348633 53.47310547 -74.85473633 52.49560547 C-76.57186913 48.76270807 -76.72858607 46.44320305 -76.29223633 42.37060547 C-74.44087106 38.05015251 -72.302999 35.0049781 -68.98364258 31.69873047 C-68.15413086 30.86986328 -67.32461914 30.04099609 -66.4699707 29.18701172 C-65.60694336 28.34009766 -64.74391602 27.49318359 -63.85473633 26.62060547 C-62.99557617 25.75822266 -62.13641602 24.89583984 -61.2512207 24.00732422 C-52.25863732 15.09148126 -52.25863732 15.09148126 -45.91723633 15.05810547 C-41.71719701 15.14100098 -38.93110526 16.20461206 -35.29223633 18.37060547 C-31.61488028 19.59639082 -30.7415711 18.83657275 -27.29223633 17.37060547 C-26.30223633 17.37060547 -25.31223633 17.37060547 -24.29223633 17.37060547 C-24.27805664 16.79052734 -24.26387695 16.21044922 -24.24926758 15.61279297 C-23.87686544 9.51344988 -22.79172445 6.56331031 -18.29223633 2.37060547 C-12.53581795 -0.56902987 -6.29957344 -0.00144668 0 0 Z M-8.29223633 16.37060547 C-8.39536133 17.95873047 -8.49848633 19.54685547 -8.60473633 21.18310547 C-8.90507347 25.80829751 -8.90507347 25.80829751 -10.44067383 28.03857422 C-13.00023355 29.87994524 -15.64137167 30.80420435 -18.60473633 31.87060547 C-22.01040396 33.10471499 -25.23185636 34.33959551 -28.45629883 35.99560547 C-32.58269272 37.9962813 -34.73848649 37.94885942 -39.29223633 37.37060547 C-42.29223633 34.87060547 -42.29223633 34.87060547 -44.29223633 32.37060547 C-48.36599664 33.98071073 -51.05730702 36.90882817 -54.04223633 39.99560547 C-54.54883789 40.51123047 -55.05543945 41.02685547 -55.57739258 41.55810547 C-56.82027535 42.82443885 -58.05688909 44.09691987 -59.29223633 45.37060547 C-58.08567383 46.66998047 -58.08567383 46.66998047 -56.85473633 47.99560547 C-54.13229301 50.9274675 -53.45859826 53.37316599 -53.29223633 57.37060547 C-54.09064456 60.15793489 -55.28434091 62.70105556 -56.54223633 65.30810547 C-57.17260593 66.67131216 -57.80281553 68.03459285 -58.43286133 69.39794922 C-58.74674805 70.05778809 -59.06063477 70.71762695 -59.3840332 71.39746094 C-60.27168845 73.32596354 -61.05664379 75.27648817 -61.83911133 77.24951172 C-63.29223633 80.37060547 -63.29223633 80.37060547 -66.29223633 82.37060547 C-70.74723633 82.86560547 -70.74723633 82.86560547 -75.29223633 83.37060547 C-75.29223633 89.97060547 -75.29223633 96.57060547 -75.29223633 103.37060547 C-72.91004883 103.55623047 -72.91004883 103.55623047 -70.47973633 103.74560547 C-66.79881101 104.03243082 -65.45464215 104.26233492 -62.29223633 106.37060547 C-61.18077963 108.95242675 -60.20419343 111.47023015 -59.29223633 114.12060547 C-57.89276614 118.1003488 -56.51783466 121.92619764 -54.60473633 125.69482422 C-52.90535722 129.15933223 -53.05575834 130.73845139 -54.29223633 134.37060547 C-56.85473633 137.24560547 -56.85473633 137.24560547 -59.29223633 139.37060547 C-57.68213106 143.44436578 -54.75401362 146.13567616 -51.66723633 149.12060547 C-51.15161133 149.62720703 -50.63598633 150.13380859 -50.10473633 150.65576172 C-48.83840294 151.89864449 -47.56592193 153.13525823 -46.29223633 154.37060547 C-45.05473633 153.16404297 -45.05473633 153.16404297 -43.79223633 151.93310547 C-40.95815795 149.64480089 -38.42395642 148.3064395 -34.69067383 148.03466797 C-29.1509994 148.81058328 -24.22137239 151.86701261 -19.29223633 154.37060547 C-16.8380067 155.44197768 -14.37394589 156.48259492 -11.90161133 157.51123047 C-10.29223633 158.37060547 -10.29223633 158.37060547 -9.29223633 160.37060547 C-8.85070189 163.69574139 -8.59215102 167.02869895 -8.29223633 170.37060547 C-1.69223633 170.37060547 4.90776367 170.37060547 11.70776367 170.37060547 C12.03776367 167.40060547 12.36776367 164.43060547 12.70776367 161.37060547 C14.90577471 156.97458338 15.85475953 156.60241242 20.27807617 155.03271484 C20.99737305 154.79359375 21.71666992 154.55447266 22.45776367 154.30810547 C23.87033499 153.82043204 25.28181553 153.3295866 26.69213867 152.83544922 C27.37405273 152.59810059 28.0559668 152.36075195 28.75854492 152.11621094 C30.97425055 151.30836709 30.97425055 151.30836709 34.00463867 149.68701172 C37.73317285 147.87123712 39.75368172 148.24086777 43.70776367 149.37060547 C46.67776367 151.84560547 46.67776367 151.84560547 49.70776367 154.37060547 C53.99776367 150.08060547 58.28776367 145.79060547 62.70776367 141.37060547 C61.02388088 137.56269182 61.02388088 137.56269182 59.08276367 135.55810547 C56.99765736 132.24089087 57.20679837 130.25308652 57.70776367 126.37060547 C58.78898228 123.85634314 60.03218159 121.4833645 61.33666992 119.07763672 C63.22395282 115.3514628 64.50775797 111.48381427 65.81323242 107.52294922 C66.70776367 105.37060547 66.70776367 105.37060547 68.70776367 104.37060547 C72.03289959 103.92907103 75.36585716 103.67052016 78.70776367 103.37060547 C78.70776367 96.77060547 78.70776367 90.17060547 78.70776367 83.37060547 C76.10901367 83.15404297 76.10901367 83.15404297 73.45776367 82.93310547 C68.1958244 81.95195204 68.1958244 81.95195204 66.29760742 79.69091797 C65.39526367 77.55810547 65.39526367 77.55810547 64.61010742 75.14013672 C63.53067879 71.8270852 62.01395347 68.86157903 60.45776367 65.74560547 C58.11732742 61.05314665 57.14244699 57.63665327 57.70776367 52.37060547 C59.37238622 49.56155492 61.39589567 47.73063739 63.70776367 45.37060547 C59.41776367 41.08060547 55.12776367 36.79060547 50.70776367 32.37060547 C46.89985003 34.05448826 46.89985003 34.05448826 44.89526367 35.99560547 C41.72322341 37.98945935 39.41268747 37.62810536 35.70776367 37.37060547 C32.46166992 36.16357422 32.46166992 36.16357422 29.27026367 34.55810547 C25.55261776 32.72926353 21.95863231 31.0320434 18.02026367 29.74560547 C14.70776367 28.37060547 14.70776367 28.37060547 13.27026367 26.68310547 C12.44853229 23.30487647 12.13899935 19.82049089 11.70776367 16.37060547 C5.10776367 16.37060547 -1.49223633 16.37060547 -8.29223633 16.37060547 Z " fill="#000000" transform="translate(260.292236328125,171.62939453125)"/>
<path d="M0 0 C6.66197461 3.85231151 11.03785186 9.86725281 13.5625 17.0625 C14.9913129 24.08749675 14.8516996 30.77025075 11.40625 37.23046875 C7.6618842 42.60779407 2.79196943 46.21975889 -2.4375 50.0625 C-4.23622312 51.47019635 -6.02791972 52.88691692 -7.8125 54.3125 C-8.62460938 54.95703125 -9.43671875 55.6015625 -10.2734375 56.265625 C-12.42113599 57.98012785 -12.42113599 57.98012785 -14.1015625 59.796875 C-15.4375 61.0625 -15.4375 61.0625 -17.4375 61.0625 C-17.70433594 61.66191406 -17.97117187 62.26132813 -18.24609375 62.87890625 C-19.46547109 65.11376504 -20.61354079 66.31868766 -22.5 68 C-40.02184637 85.19602691 -49.47705569 110.35522495 -53.4375 134.0625 C-53.57027344 134.8359375 -53.70304687 135.609375 -53.83984375 136.40625 C-58.1526261 167.12743932 -48.89432346 199.60802979 -31.1875 224.75 C-26.82736646 231.20437091 -25.86018466 236.90955709 -26.91015625 244.61328125 C-28.58654785 252.39918892 -32.82032236 257.70619139 -39.4375 262.0625 C-47.01827829 265.75486184 -53.63096976 267.24709513 -61.875 265 C-76.78164343 259.53338713 -85.09227469 241.26066398 -91.53759766 227.7578125 C-96.52739764 216.84956161 -100.67675512 205.74125779 -103.4375 194.0625 C-103.63359863 193.24910156 -103.82969727 192.43570313 -104.03173828 191.59765625 C-110.65665565 162.77953654 -110.78345373 127.82620372 -100.5625 99.85546875 C-99.1339251 97.5786775 -97.95870897 96.9404629 -95.4375 96.0625 C-91.75689225 96.19164413 -89.3658235 96.28390609 -86.5 98.6875 C-83.82703659 104.66235939 -85.98138844 111.45761338 -87.375 117.5625 C-87.7404699 119.19742896 -88.10378828 120.8328405 -88.46484375 122.46875 C-88.62718506 123.18353516 -88.78952637 123.89832031 -88.95678711 124.63476562 C-92.76622144 143.87347308 -92.45504513 168.01639955 -87.4375 187.0625 C-87.23350586 187.85575684 -87.02951172 188.64901367 -86.81933594 189.46630859 C-82.30407893 206.59733828 -73.5149001 238.45813166 -57.41796875 248.296875 C-54.38248007 249.4703578 -52.52121675 249.00649492 -49.4375 248.0625 C-46.59503841 245.78853073 -44.80268766 244.1626856 -43.64672852 240.68017578 C-43.38380491 237.39071614 -44.12894171 236.18271305 -45.90234375 233.4296875 C-46.45156494 232.55062744 -47.00078613 231.67156738 -47.56665039 230.76586914 C-48.16340576 229.83250732 -48.76016113 228.89914551 -49.375 227.9375 C-70.93629669 192.83169623 -76.32020042 153.51228708 -66.8125 113.5625 C-57.9712612 82.85438049 -39.27616123 55.22652391 -13.1484375 36.71875 C-12.60243896 36.32647217 -12.05644043 35.93419434 -11.49389648 35.5300293 C-9.9637559 34.43832441 -8.41784389 33.36882328 -6.87109375 32.30078125 C-4.0053289 29.66501358 -3.20266368 27.85331093 -2.4375 24.0625 C-3.60260973 19.76615787 -4.61070926 17.68259305 -8.1875 15 C-12.39797918 13.7854387 -14.34197566 14.57164246 -18.4375 16.0625 C-20.68628619 17.52573234 -22.68599737 18.94481267 -24.75 20.625 C-25.306875 21.06610107 -25.86375 21.50720215 -26.4375 21.96166992 C-33.46941267 27.59061946 -40.15331108 33.60846814 -46.4375 40.0625 C-46.92089844 40.50078125 -47.40429688 40.9390625 -47.90234375 41.390625 C-57.81926979 50.63086667 -65.04491818 62.63016628 -71.82128906 74.24731445 C-72.46662598 75.34112427 -72.46662598 75.34112427 -73.125 76.45703125 C-73.50011719 77.10518799 -73.87523437 77.75334473 -74.26171875 78.42114258 C-75.4375 80.0625 -75.4375 80.0625 -78.4375 82.0625 C-81.3125 82.5 -81.3125 82.5 -84.4375 82.0625 C-87.3125 79.9375 -87.3125 79.9375 -89.4375 77.0625 C-90.18131694 71.6853234 -88.2321774 68.06114592 -85.5625 63.5625 C-85.15829834 62.86616455 -84.75409668 62.1698291 -84.33764648 61.45239258 C-78.13042422 50.94648711 -71.10327682 41.41516738 -62.74609375 32.5234375 C-60.69531689 30.33733019 -58.74629725 28.1014845 -56.8125 25.8125 C-43.84062897 10.97892526 -20.88127957 -9.34838824 0 0 Z " fill="#000000" transform="translate(190.4375,102.9375)"/>
<path d="M0 0 C4.29918489 3.35806979 8.13237097 7.1644971 12 11 C12.89428711 11.8859082 13.78857422 12.77181641 14.70996094 13.68457031 C20.66878789 19.59677319 26.59782531 25.53824153 32.51147461 31.49560547 C34.24458945 33.23977226 35.98667508 34.9750516 37.7355957 36.70336914 C42.60305309 41.64009924 44.78563291 46.83808538 45.25 53.6875 C44.97098821 64.48924228 39.56713452 70.67030627 32 78 C30.77639047 79.06221318 29.54813429 80.11908673 28.31640625 81.171875 C25.03875416 84.00553773 21.99287095 86.99121771 18.9765625 90.1015625 C18.1 91.00390625 17.2234375 91.90625 16.3203125 92.8359375 C14.52328988 94.69546526 12.73419619 96.56268822 10.953125 98.4375 C4.68294424 104.85478177 -1.29042076 109.90696521 -10.28515625 111.62890625 C-19.14217552 111.41713504 -25.62241272 109.85226248 -31.875 103.3125 C-36.61115411 97.3565939 -38.16280158 91.76555894 -38.06640625 84.20703125 C-38.05681885 83.22839111 -38.04723145 82.24975098 -38.03735352 81.24145508 C-38.02502686 80.5017749 -38.0127002 79.76209473 -38 79 C-39.24704712 79.02356567 -39.24704712 79.02356567 -40.51928711 79.04760742 C-43.64475136 79.09915833 -46.76999675 79.13655355 -49.89575195 79.16479492 C-51.89744576 79.18705458 -53.89894275 79.22520146 -55.90039062 79.26367188 C-65.74253639 79.33804577 -74.12477627 78.77536024 -81.4921875 71.69921875 C-87.25854899 65.200858 -87.83669427 58.30809369 -87.44140625 49.85546875 C-86.60461728 42.54652437 -83.76251476 38.15806164 -78.125 33.5625 C-72.67449892 29.5601446 -66.59366189 28.74583412 -59.97265625 28.8046875 C-58.04389648 28.81435547 -58.04389648 28.81435547 -56.07617188 28.82421875 C-54.73827846 28.84092399 -53.40038783 28.85785381 -52.0625 28.875 C-50.69727217 28.88504678 -49.3320372 28.89416964 -47.96679688 28.90234375 C-44.64434801 28.92582395 -41.32226679 28.95866641 -38 29 C-38.01232666 28.26031982 -38.02465332 27.52063965 -38.03735352 26.75854492 C-38.04694092 25.77990479 -38.05652832 24.80126465 -38.06640625 23.79296875 C-38.07873291 22.82641357 -38.09105957 21.8598584 -38.10375977 20.86401367 C-37.83953096 13.57067698 -35.0725498 7.98720578 -30.078125 2.73046875 C-21.83801479 -4.13112678 -9.29287812 -5.69125077 0 0 Z M-21 17 C-21.95543118 19.86629354 -22.14892887 21.7980091 -22.2109375 24.78125 C-22.25347656 26.16763672 -22.25347656 26.16763672 -22.296875 27.58203125 C-22.34895316 29.5271504 -22.39322613 31.47249421 -22.4296875 33.41796875 C-22.47609375 34.80435547 -22.47609375 34.80435547 -22.5234375 36.21875 C-22.54325684 37.06373047 -22.56307617 37.90871094 -22.58349609 38.77929688 C-23.09671166 41.51564437 -23.85756014 42.26853203 -26 44 C-28.94937851 44.29542523 -31.6982221 44.41709465 -34.6484375 44.40625 C-35.49798004 44.41708618 -36.34752258 44.42792236 -37.22280884 44.43908691 C-39.94028316 44.47338153 -42.65733764 44.48894478 -45.375 44.5 C-48.94571574 44.51458211 -52.51549587 44.54831024 -56.0859375 44.59375 C-56.9037973 44.59072876 -57.7216571 44.58770752 -58.56430054 44.58459473 C-63.18816711 44.64525303 -66.24216029 45.00251208 -70 48 C-71.59251643 51.18503287 -71.39129761 54.5332405 -71 58 C-69.25746655 61.23613354 -68.52814056 61.82395315 -65 63 C-62.08753713 63.11859878 -59.19462941 63.18525288 -56.28125 63.2109375 C-54.52733424 63.23899502 -52.7734281 63.26765941 -51.01953125 63.296875 C-48.25439613 63.33821178 -45.48944286 63.37510028 -42.72412109 63.40136719 C-40.0552876 63.42891521 -37.38727062 63.47477195 -34.71875 63.5234375 C-33.89056763 63.52669037 -33.06238525 63.52994324 -32.20910645 63.53329468 C-26.42340326 63.65762819 -26.42340326 63.65762819 -24.28198242 65.38922119 C-22.55740043 67.55611528 -22.61716105 68.96279992 -22.59375 71.7109375 C-22.57183594 72.62617188 -22.54992187 73.54140625 -22.52734375 74.484375 C-22.51832031 75.43828125 -22.50929687 76.3921875 -22.5 77.375 C-22.69258642 85.75601411 -22.69258642 85.75601411 -19 93 C-15.49545797 95.33636135 -14.12474731 95.48108535 -10 95 C-7.52131701 93.46586994 -7.52131701 93.46586994 -5.33203125 91.20703125 C-4.47174316 90.38412598 -3.61145508 89.5612207 -2.72509766 88.71337891 C-1.82581543 87.81796387 -0.9265332 86.92254883 0 86 C0.91861816 85.09556152 1.83723633 84.19112305 2.78369141 83.25927734 C5.64400038 80.41871166 8.48240794 77.55808392 11.3125 74.6875 C13.2222649 72.75091345 15.13550178 70.8178498 17.05078125 68.88671875 C17.88262939 68.04326904 18.71447754 67.19981934 19.5715332 66.33081055 C21.94209349 64.0555779 24.43107499 62.04439598 27 60 C28.76991854 57.58647472 29.00220685 56.34765899 28.9831543 53.34619141 C27.54627385 48.45573115 24.49308721 45.83377263 20.89453125 42.3359375 C20.17770676 41.6214444 19.46088226 40.90695129 18.72233582 40.17080688 C17.2057501 38.66395033 15.68315429 37.16312189 14.1550293 35.66796875 C11.82609568 33.38830804 9.51623263 31.09064789 7.20898438 28.7890625 C5.7302528 27.32442343 4.25046873 25.86084608 2.76953125 24.3984375 C2.0818013 23.71607025 1.39407135 23.033703 0.6855011 22.33065796 C-5.57664577 15.97078556 -5.57664577 15.97078556 -13.5625 12.5 C-16.88923004 13.18240616 -18.58728127 14.65430123 -21 17 Z " fill="#000000" transform="translate(87,354)"/>
<path d="M0 0 C10.13895511 8.56382332 17.09264117 19.70353365 18.40234375 33.0625 C19.31443851 47.94521689 15.66608306 59.79148482 6.4375 71.5703125 C-1.61358248 80.41600834 -13.62465334 86.38361064 -25.54296875 87.3984375 C-40.60124971 87.72594706 -53.40643628 84.36012914 -64.84765625 74.03125 C-75.81518818 62.56519389 -79.23981792 49.18884014 -78.90625 33.8046875 C-78.40213176 23.24121394 -74.22242144 15.13515202 -67.59765625 7.0625 C-67.02402344 6.35222656 -66.45039063 5.64195312 -65.859375 4.91015625 C-49.13881193 -13.74383382 -19.51443919 -14.55513059 0 0 Z M-55.84765625 18.3125 C-61.77271705 25.74310903 -63.28581766 33.33590068 -62.98046875 42.73046875 C-62.00182797 51.24863796 -57.22077803 58.7838897 -50.97265625 64.56640625 C-42.8261331 70.88373323 -33.68702495 72.1206533 -23.59765625 71.0625 C-14.53215725 69.09743519 -6.90388529 63.17350544 -1.89453125 55.4296875 C2.39032998 47.18009834 3.66792354 39.18107874 1.27734375 30.125 C-1.89055655 20.53289257 -7.56070883 13.76998263 -16.48828125 9.06640625 C-31.21795372 2.37401159 -45.17129441 6.99555645 -55.84765625 18.3125 Z " fill="#000000" transform="translate(292.59765625,225.9375)"/>
<path d="M0 0 C3.48689459 2.50146786 4.81558322 3.96044515 5.5703125 8.21484375 C4.75232616 13.64380787 1.93373675 15.8814071 -2 19.5 C-3.03350586 20.49 -3.03350586 20.49 -4.08789062 21.5 C-8.05889588 25.27976705 -12.10122314 28.98189859 -16.296875 32.51171875 C-18.8023047 34.70109654 -21.07810483 37.09983449 -23.359375 39.51953125 C-26.40995199 42.27231382 -28.12850129 43.0133288 -32.3203125 42.94921875 C-36.86335272 41.77728799 -39.40414337 39.86155114 -42.875 36.8125 C-43.45507812 36.34263672 -44.03515625 35.87277344 -44.6328125 35.38867188 C-47.51640247 32.91942953 -48.84240012 31.52554737 -49.95703125 27.80859375 C-50.01132785 24.25957022 -49.21257893 22.74664971 -47 20 C-44.48164906 18.08952688 -43.2442803 17.98960509 -40.0625 18.125 C-36.5915759 19.1166926 -34.64725798 20.58632361 -32 23 C-26.26924587 18.15888428 -20.78902945 13.10297138 -15.34179688 7.94726562 C-5.87557863 -0.95927814 -5.87557863 -0.95927814 0 0 Z " fill="#000000" transform="translate(433,145)"/>
</svg>
