<svg xmlns="http://www.w3.org/2000/svg" viewBox="70 48 265 248" width="100%" height="100%">
  <defs>
    <style>
      .predio-esq { fill: #888888; }
      .predio-centro { fill: #4A658A; }
      .predio-dir { fill: #AAAAAA; }
      .lupa-borda { stroke: #FFFFFF; fill: none; stroke-width: 8; }
      .lupa-cabo { stroke: #FFFFFF; stroke-width: 10; stroke-linecap: round; }
      .linha-base { stroke: #256B93; stroke-width: 4; fill: none; }
      .texto-titulo { font-family: 'Arial', sans-serif; font-weight: bold; font-size: 52px; fill: #FFFFFF; }
      .texto-subtitulo { font-family: 'Arial', sans-serif; font-weight: bold; font-size: 24px; fill: #C49759; letter-spacing: 4px; }
      .janela { fill: #FFFFFF; }
    </style>
  </defs>

  <rect x="235" y="100" width="45" height="100" class="predio-dir" />
  <rect x="245" y="110" width="5" height="80" class="janela" />
  <rect x="260" y="110" width="5" height="80" class="janela" />

  <rect x="165" y="60" width="65" height="140" class="predio-centro" />
  <rect x="175" y="75" width="5" height="30" class="janela" />
  <rect x="195" y="75" width="5" height="20" class="janela" />
  <rect x="215" y="75" width="5" height="30" class="janela" />
  <rect x="175" y="160" width="5" height="30" class="janela" />
  <rect x="195" y="160" width="5" height="30" class="janela" />
  <rect x="215" y="160" width="5" height="30" class="janela" />

  <path d="M 100 150 L 130 125 L 160 150 V 200 H 100 Z" class="predio-esq" />
  <rect x="110" y="165" width="10" height="10" class="janela" />
  <rect x="125" y="165" width="10" height="10" class="janela" />
  <rect x="140" y="165" width="10" height="10" class="janela" />

  <path d="M 80 205 Q 200 195 320 205" class="linha-base" />

  <circle cx="195" cy="125" r="30" class="lupa-borda" />
  <circle cx="195" cy="125" r="26" class="predio-centro" opacity="0.8"/> <circle cx="205" cy="115" r="4" fill="#FFFFFF" /> <line x1="216" y1="146" x2="245" y2="175" class="lupa-cabo" />

  <text x="200" y="260" text-anchor="middle" class="texto-titulo">MULDER</text>
  <text x="200" y="285" text-anchor="middle" class="texto-subtitulo">ENGENHARIA</text>
</svg>
