<?xml version="1.0" encoding="UTF-8"?>
<svg version="1.1" xmlns="http://www.w3.org/2000/svg" width="512" height="512">
<path d="M0 0 C1.77835487 -0.00935994 1.77835487 -0.00935994 3.59263611 -0.01890898 C6.86158811 -0.03204666 10.12993977 -0.0273957 13.39887619 -0.0149641 C16.93269698 -0.00588052 20.46643918 -0.01989965 24.00024414 -0.03088379 C30.91431759 -0.04863848 37.828217 -0.0448427 44.74229717 -0.03323323 C50.36320609 -0.02418713 55.98406635 -0.02297998 61.60498047 -0.02732849 C62.40601731 -0.02794142 63.20705416 -0.02855436 64.03236485 -0.02918586 C65.65982947 -0.03046481 67.28729408 -0.03176166 68.91475868 -0.03307623 C84.16328543 -0.04447309 99.41171587 -0.03138238 114.66022682 -0.00987476 C127.73447026 0.00799542 140.80857162 0.00489106 153.8828125 -0.0135498 C169.07804197 -0.03497234 184.2731871 -0.04337453 199.46842957 -0.03110075 C201.08979287 -0.0298266 202.7111562 -0.02856912 204.33251953 -0.02732849 C205.13019021 -0.02671139 205.92786089 -0.02609429 206.74970341 -0.02545848 C212.36163933 -0.02200973 217.97352161 -0.02782368 223.58544922 -0.0372467 C230.42773289 -0.04848346 237.26983309 -0.04539155 244.11209583 -0.02412373 C247.60088507 -0.0136357 251.08936878 -0.00945266 254.57815552 -0.02272034 C258.36490792 -0.03365898 262.15080219 -0.01993037 265.9375 0 C267.03352036 -0.00892289 268.12954071 -0.01784577 269.2587738 -0.02703905 C277.57601569 0.05780446 283.35123993 2.07307202 290.21875 6.69543457 C295.37405522 11.96790582 299.09769525 18.48607138 299.08900452 25.96879578 C299.09106651 27.33807472 299.09106651 27.33807472 299.09317017 28.73501587 C299.08957489 29.7341098 299.08597961 30.73320374 299.08227539 31.76257324 C299.08242142 32.81639694 299.08256744 33.87022064 299.0827179 34.95597839 C299.08202015 38.44597417 299.07423416 41.93591685 299.06640625 45.42590332 C299.06454158 47.84300202 299.06311791 50.2601011 299.06211853 52.67720032 C299.05829721 59.04435262 299.04847018 65.41148218 299.03741455 71.77862549 C299.02719218 78.27367851 299.02261914 84.7687352 299.01757812 91.26379395 C299.00684759 104.01185054 298.98996751 116.75989134 298.96875 129.50793457 C299.95465622 129.50349335 300.94056244 129.49905212 301.9563446 129.49447632 C311.29703197 129.45374121 320.63770105 129.42386009 329.97845745 129.40431023 C334.77937745 129.39392124 339.58022512 129.37985244 344.38110352 129.35705566 C349.02361056 129.33515159 353.66604851 129.32332932 358.30860329 129.31818008 C360.07020974 129.31451559 361.83181288 129.30736084 363.59338951 129.29647446 C382.96356489 129.18164762 399.23448497 130.42603967 413.875 144.31652832 C423.80111895 154.78684239 427.26829511 167.37645513 427.3046875 181.43371582 C427.3113443 182.34372849 427.3180011 183.25374115 427.32485962 184.19132996 C427.33491251 186.0980326 427.33967894 188.00476991 427.33935547 189.91149902 C427.34376489 192.83028997 427.38025977 195.74760986 427.41796875 198.6661377 C427.42383124 200.5261586 427.42780443 202.38618663 427.4296875 204.24621582 C427.44405853 205.11603592 427.45842957 205.98585602 427.47323608 206.8820343 C427.42774949 212.88101584 427.42774949 212.88101584 425.12353516 216.02819824 C422.3035986 217.96470804 420.38868386 218.43814 416.96875 218.50793457 C412.40353261 216.37749979 412.40353261 216.37749979 410.96875 213.50793457 C410.85976609 210.57587342 410.80730333 207.66339062 410.79296875 204.73059082 C410.76974389 202.91873059 410.74562553 201.10688163 410.72070312 199.29504395 C410.68580008 196.44495395 410.65636804 193.59527134 410.64282227 190.74499512 C410.64294541 171.5254429 410.64294541 171.5254429 401.16015625 155.29699707 C392.80855105 148.47875254 384.06270288 146.3877934 373.51225281 146.3742218 C372.41765431 146.37082347 372.41765431 146.37082347 371.30094272 146.36735648 C368.86687194 146.36104948 366.43285732 146.36184372 363.9987793 146.3626709 C362.24897185 146.35967734 360.49916506 146.35627436 358.74935913 146.35249329 C354.00339019 146.34366894 349.25743928 146.34131582 344.51146293 146.3406775 C341.54409139 146.33996609 338.57672442 146.33783004 335.60935402 146.33518028 C325.25071548 146.32593192 314.8920898 146.32184474 304.53344727 146.32263184 C294.88820558 146.32323244 285.24301985 146.31268269 275.59779233 146.29688817 C267.30800002 146.28379854 259.01822597 146.27844854 250.72842342 146.27908725 C245.78126197 146.27934182 240.83415026 146.27651295 235.88699913 146.26590919 C231.23224064 146.25620431 226.57757921 146.25616541 221.92281723 146.26342583 C220.21889288 146.26446871 218.5149624 146.26212645 216.81104851 146.25606537 C203.23806182 146.21092888 191.93679542 146.82652522 181.14453125 156.07043457 C172.92521349 164.68312018 172.39124798 175.77236005 172.51464844 187.06726074 C172.5157793 188.4974362 172.5151384 189.92761397 172.51287842 191.35778809 C172.51173964 195.20639572 172.53511165 199.05449572 172.56317425 202.90298629 C172.58832887 206.9374794 172.59054091 210.97198658 172.59527588 215.00654602 C172.60766463 222.63134861 172.64043012 230.25591938 172.68067384 237.8806203 C172.72551992 246.5674971 172.74741073 255.25438548 172.76745558 263.94134939 C172.80916686 281.79700877 172.87943833 299.65245297 172.96875 317.50793457 C173.72741867 317.91599838 174.48608734 318.32406219 175.26774597 318.74449158 C176.26115494 319.28187454 177.2545639 319.81925751 178.27807617 320.3729248 C179.26361984 320.90473862 180.24916351 321.43655243 181.26457214 321.98448181 C184.1703387 323.6215036 186.72953391 325.4241725 189.28125 327.57043457 C190.04050781 328.20078613 190.79976562 328.8311377 191.58203125 329.48059082 C192.36964844 330.14961426 193.15726563 330.8186377 193.96875 331.50793457 C195.01761397 332.38453347 196.06736799 333.26006829 197.11791992 334.13464355 C198.05869385 334.91782959 198.99946777 335.70101563 199.96875 336.50793457 C199.98276855 334.73132446 199.98276855 334.73132446 199.99707031 332.91882324 C200.0372816 328.47721285 200.10312335 324.03627268 200.17626953 319.59509277 C200.20430003 317.68176964 200.22560265 315.76833457 200.23974609 313.8548584 C200.44008627 288.27141832 200.44008627 288.27141832 209.19140625 279.00793457 C215.32551831 273.83101362 221.54966802 271.39550604 229.50759888 271.36076355 C231.19803566 271.35003059 231.19803566 271.35003059 232.92262268 271.33908081 C234.15488083 271.33639191 235.38713898 271.333703 236.65673828 271.33093262 C237.95799149 271.32436142 239.25924469 271.31779022 240.59992981 271.3110199 C244.91296158 271.29001798 249.22599354 271.27961916 253.5390625 271.26965332 C255.02719008 271.26560392 256.51531747 271.26148694 258.00344467 271.25730324 C264.99800942 271.23825779 271.99256368 271.22402703 278.98714936 271.21569127 C287.04394563 271.20592961 295.10046639 271.17963562 303.15716565 271.13919038 C309.39514519 271.10895717 315.6330461 271.09421548 321.87109745 271.09091026 C325.59160978 271.08856742 329.31182758 271.07970813 333.03226089 271.05444908 C337.18981289 271.02667819 341.34675546 271.03102141 345.50439453 271.03796387 C347.33456367 271.01874878 347.33456367 271.01874878 349.20170593 270.99914551 C357.80571284 271.05137548 365.27658072 272.49815236 372.28125 277.75793457 C380.43046077 286.09666187 382.27096551 294.98552199 382.25927734 306.32946777 C382.26599457 307.27857025 382.27271179 308.22767273 382.27963257 309.20553589 C382.29853136 312.32331672 382.30253262 315.44088137 382.3046875 318.55871582 C382.31112089 320.74053534 382.31784966 322.92235401 382.32485962 325.10417175 C382.33681198 329.67098998 382.34054252 334.23773267 382.33935547 338.80456543 C382.33915236 344.63490985 382.36645549 350.4647664 382.40089989 356.29499531 C382.42321811 360.79994398 382.4271915 365.30477612 382.42613602 369.8097744 C382.42848451 371.95820993 382.43726534 374.10664904 382.45280075 376.25502968 C382.62505879 402.53566805 382.62505879 402.53566805 373.5390625 412.07824707 C367.8381776 417.26860497 361.9698236 419.76321494 354.2739563 419.7484436 C352.60820305 419.7525676 352.60820305 419.7525676 350.90879822 419.7567749 C349.70542313 419.74958435 348.50204803 419.7423938 347.26220703 419.73498535 C345.34431618 419.73542343 345.34431618 419.73542343 343.38768005 419.73587036 C339.89428838 419.73644262 336.40103491 419.72470899 332.90767527 419.71072245 C329.25216789 419.69819384 325.59665712 419.69704291 321.94113159 419.69467163 C315.02456254 419.68846311 308.10805695 419.67206082 301.1915158 419.65197265 C293.31487283 419.62959408 285.43822678 419.6186153 277.56155992 419.60858178 C261.3639195 419.58769401 245.16634286 419.55253028 228.96875 419.50793457 C228.97599594 420.77956451 228.98324188 422.05119446 228.9907074 423.36135864 C229.00732908 426.27838809 228.871726 428.88197624 228.12890625 431.71887207 C227.95294922 432.40594238 227.77699219 433.0930127 227.59570312 433.80090332 C227.40943359 434.48797363 227.22316406 435.17504395 227.03125 435.88293457 C226.84884766 436.59320801 226.66644531 437.30348145 226.47851562 438.03527832 C225.14000496 443.16542465 225.14000496 443.16542465 223.96875 445.50793457 C244.64028888 445.47071217 265.31165186 445.41076951 285.98304462 445.32403183 C295.58187948 445.28428035 305.18063281 445.25186812 314.77954102 445.23693848 C323.14928888 445.22390176 331.51885707 445.19688567 339.88850373 445.1533215 C344.31717927 445.13075202 348.74563357 445.11502117 353.17437172 445.11605072 C357.34989753 445.11680001 361.52493515 445.09874208 365.70033455 445.06676674 C367.22600831 445.05830555 368.75173706 445.05649191 370.27742386 445.06213188 C381.3721909 445.09765657 391.39664798 444.25047833 399.96875 436.50793457 C400.62875 436.50793457 401.28875 436.50793457 401.96875 436.50793457 C402.24589844 435.95105957 402.52304687 435.39418457 402.80859375 434.82043457 C403.60502621 433.23293284 404.41019722 431.64979417 405.22265625 430.07043457 C405.65449219 429.22480957 406.08632813 428.37918457 406.53125 427.50793457 C406.96566406 426.66230957 407.40007812 425.81668457 407.84765625 424.94543457 C409.95875031 420.35546003 410.09511781 416.4323944 410.10005188 411.37892151 C410.10216759 410.66032642 410.10428331 409.94173134 410.10646313 409.20136064 C410.11245517 406.79320134 410.11146356 404.38509456 410.1105957 401.97692871 C410.11362767 400.25048229 410.11714923 398.52403667 410.12112427 396.79759216 C410.12900983 393.07951328 410.13415685 389.36144398 410.13741493 385.64335823 C410.14332552 379.76497079 410.15986561 373.88664387 410.17875671 368.00828552 C410.18509392 365.99590019 410.19141955 363.98351482 410.19773388 361.97112942 C410.20089969 360.96339407 410.2040655 359.95565872 410.20732725 358.91738594 C410.24941277 345.23184053 410.28239093 331.54632361 410.29467773 317.86071777 C410.30305112 308.62890205 410.32551317 299.39723644 410.3640334 290.16549581 C410.38381491 285.27987199 410.39619161 280.39447267 410.39119911 275.50880623 C410.38656152 270.91468468 410.40030922 266.32098915 410.42821121 261.72695351 C410.43513741 260.04071704 410.43523423 258.35443666 410.42801094 256.66820145 C410.41914575 254.36626914 410.43477628 252.0657488 410.45649719 249.76393127 C410.46007972 247.83181085 410.46007972 247.83181085 410.46373463 245.86065769 C411.05377707 241.94345228 412.19067129 240.27940307 414.96875 237.50793457 C416.96875 236.84387207 416.96875 236.84387207 418.96875 236.88293457 C419.62875 236.87004395 420.28875 236.85715332 420.96875 236.84387207 C424.12342457 237.89132261 425.172222 239.76335942 426.96875 242.50793457 C427.47211456 245.86675262 427.47211456 245.86675262 427.47668457 249.77929688 C427.48604451 250.86225501 427.48604451 250.86225501 427.49559355 251.96709108 C427.51152197 254.38143046 427.49892022 256.79475994 427.48632812 259.20910645 C427.49174972 260.94242948 427.49887259 262.67574791 427.50756836 264.40905762 C427.52581111 269.11621066 427.51872739 273.82301314 427.50605202 278.53017235 C427.49591635 283.46486726 427.50532048 288.3995324 427.51159668 293.33422852 C427.51887689 301.6298154 427.50928128 309.92525993 427.49023438 318.2208252 C427.46852229 327.78710262 427.47547419 337.35303827 427.49754 346.91930723 C427.51575202 355.14632431 427.51822234 363.37323904 427.50778532 371.60026979 C427.50157479 376.50736866 427.50064599 381.41430753 427.51393127 386.32139587 C427.52557171 390.94427272 427.51731594 395.56671436 427.49435425 400.18954468 C427.48910811 401.87726625 427.49050984 403.56502504 427.49940491 405.25273132 C427.57190102 420.41812569 425.08340692 435.20469446 414.59375 446.97277832 C404.43634936 456.56859191 392.92578973 461.68036979 378.96072388 461.59213257 C378.26718681 461.58930932 377.57364975 461.58648607 376.85909641 461.58357728 C374.54159577 461.57320104 372.2241981 461.5558178 369.90673828 461.53869629 C368.24250569 461.53026624 366.57826999 461.52243316 364.91403198 461.51515198 C362.25616713 461.50340423 359.59831055 461.49120726 356.94045663 461.4771831 C350.35244676 461.44259731 343.76457904 461.42645706 337.17648315 461.42153931 C336.21991479 461.42080662 335.26334643 461.42007393 334.27779114 461.41931903 C330.33308764 461.416655 326.38838405 461.41460822 322.44368005 461.41284347 C311.24680687 461.40705715 300.05063131 461.38320762 288.85400391 461.30578613 C279.95565586 461.24437767 271.05816436 461.22172236 262.15962017 461.24459851 C257.45214169 461.25523876 252.74653748 461.2462574 248.03934097 461.19027328 C243.61104168 461.13804398 239.18569475 461.13727014 234.75728226 461.17564201 C233.13470523 461.18062963 231.51194308 461.16687385 229.8897171 461.13275719 C225.08334853 461.03776149 220.61338972 461.09721414 215.96875 462.50793457 C212.62133812 465.79010046 210.90356026 469.29015852 208.96875 473.50793457 C207.12325608 475.99967675 205.09793089 478.25609324 202.96875 480.50793457 C202.41823975 481.09260498 201.86772949 481.67727539 201.30053711 482.27966309 C184.26142195 499.8346085 159.9230239 512.02537591 135.28125 512.84387207 C116.49732526 513.07507849 100.05577899 511.87565659 82.96875 503.50793457 C81.93621094 503.01680176 80.90367187 502.52566895 79.83984375 502.01965332 C55.6465245 489.82109644 37.93070349 468.99142085 28.96875 443.50793457 C25.58917515 432.70020726 23.76713659 421.88345524 23.71875 410.57043457 C23.71480225 409.75429688 23.71085449 408.93815918 23.70678711 408.09729004 C23.76777821 401.57941681 24.60485439 395.39109521 25.98925781 389.02770996 C26.82067939 385.11510945 27.22151346 382.31995292 25.96875 378.50793457 C24.25215511 376.43279438 22.5765241 374.61921594 20.65454102 372.75549316 C20.10165405 372.20362839 19.54876709 371.65176361 18.97912598 371.08317566 C17.15280934 369.26473114 15.31285518 367.46075766 13.47265625 365.65637207 C12.19998024 364.39370023 10.92825941 363.13006497 9.65745544 361.86550903 C6.31142277 358.54040416 2.9539997 355.22704834 -0.40637207 351.91644287 C-5.7845975 346.61350305 -11.14428936 341.29181429 -16.50605965 335.97224808 C-18.38091515 334.1150983 -20.25991736 332.26223064 -22.13975525 330.41012573 C-23.28910279 329.27399718 -24.43840247 328.13782019 -25.58764648 327.00158691 C-26.11187698 326.48723587 -26.63610748 325.97288483 -27.17622375 325.44294739 C-31.59509716 321.06455849 -33.25576659 318.62991874 -33.308061 312.30739653 C-33.3049638 311.45186418 -33.3018666 310.59633184 -33.29867554 309.71487427 C-33.30320665 308.80520665 -33.30773776 307.89553902 -33.31240618 306.95830572 C-33.32510849 303.89748644 -33.32342606 300.83684376 -33.32177734 297.77600098 C-33.32775895 295.58665232 -33.33456364 293.39730578 -33.34213257 291.20796204 C-33.35983709 285.25137113 -33.36448982 279.29483765 -33.36576414 273.33822298 C-33.36766051 268.37036636 -33.37501501 263.40252321 -33.38210833 258.43467176 C-33.39747517 247.3863621 -33.40344473 236.33807931 -33.40209763 225.28975971 C-33.40201772 224.62666952 -33.4019378 223.96357934 -33.40185547 223.28039551 C-33.40177371 222.61649647 -33.40169195 221.95259743 -33.40160771 221.26858024 C-33.40079476 210.50855535 -33.41993364 199.74867044 -33.4481322 188.98868604 C-33.47685209 177.94268441 -33.49030661 166.89675445 -33.48894465 155.85071504 C-33.48843399 149.64827297 -33.49417466 143.44598926 -33.51530075 137.24357986 C-33.53462397 131.41099162 -33.53484807 125.57871374 -33.52026749 119.74611473 C-33.51817094 117.60350658 -33.52293031 115.46087931 -33.5349884 113.31830406 C-33.55036712 110.39682203 -33.54118142 107.47642003 -33.52572632 104.55496216 C-33.53601344 103.70389125 -33.54630057 102.85282035 -33.55689943 101.97595942 C-33.50967491 97.94592226 -33.32641425 95.97624632 -31.12534523 92.48399925 C-28.87894642 90.36421535 -28.06774282 89.82362807 -25.03125 89.88293457 C-24.37125 89.87004395 -23.71125 89.85715332 -23.03125 89.84387207 C-19.82764738 90.90756825 -18.82399219 92.6856627 -17.03125 95.50793457 C-16.65398149 98.5173377 -16.50703316 101.15320456 -16.55023193 104.157547 C-16.54681423 105.02753222 -16.54339653 105.89751745 -16.53987527 106.79386586 C-16.53328776 109.70841233 -16.55528688 112.62203743 -16.57714844 115.53649902 C-16.57827673 117.6258797 -16.57764342 119.71526197 -16.57537842 121.80464172 C-16.57422962 127.47785711 -16.59776599 133.15073498 -16.62567425 138.82387185 C-16.65066018 144.75224874 -16.65302769 150.68063315 -16.65777588 156.60905457 C-16.67021388 167.8358244 -16.70304678 179.06243864 -16.74317384 190.28913993 C-16.78786578 203.0701274 -16.80987212 215.85112226 -16.82995558 228.63216841 C-16.87177858 254.92417676 -16.94214679 281.21604695 -17.03125 307.50793457 C-16.43958038 307.49683151 -15.84791077 307.48572845 -15.23831177 307.47428894 C-9.04086512 307.36306453 -2.84370519 307.28800755 3.35449219 307.23327637 C5.66287771 307.2082414 7.97118483 307.17420303 10.27929688 307.1307373 C13.61087465 307.06960084 16.94139813 307.0416135 20.2734375 307.01965332 C21.803741 306.98094368 21.803741 306.98094368 23.36495972 306.94145203 C31.75742386 306.93821875 38.11404551 309.30812771 44.58984375 314.68371582 C50.63820477 321.79866954 52.74360476 327.30278923 53.96875 336.50793457 C55.09796875 335.47346191 55.09796875 335.47346191 56.25 334.41809082 C76.2971867 316.49969542 100.1070084 307.37500147 126.96875 307.13293457 C128.02433105 307.11891602 129.07991211 307.10489746 130.16748047 307.0904541 C139.03133278 307.14359634 145.91435459 308.69705549 154.96875 310.50793457 C155.46375 275.85793457 155.46375 275.85793457 155.96875 240.50793457 C144.68623047 240.57754395 144.68623047 240.57754395 133.17578125 240.64855957 C128.41339767 240.66899538 123.65106809 240.68825101 118.88867188 240.70324707 C111.32792955 240.72716739 103.76738081 240.75547882 96.20678711 240.80969238 C90.11191879 240.85312288 84.01725804 240.87706612 77.92224693 240.88744354 C75.59578877 240.89483986 73.26934209 240.90928294 70.94297218 240.9308548 C67.68674711 240.95985075 64.43138203 240.96389205 61.17504883 240.96203613 C60.21119766 240.97641724 59.2473465 240.99079834 58.25428772 241.00561523 C53.95143685 240.97904181 51.60600534 240.89938394 47.87016296 238.60455322 C45.81884888 236.34264408 45.30652147 235.51152324 45.40625 232.50793457 C45.40496094 231.84793457 45.40367188 231.18793457 45.40234375 230.50793457 C46.27716865 227.41889769 47.35282167 226.42214075 49.96875 224.50793457 C53.35949834 223.91353809 56.71918611 224.00327324 60.15332031 224.05383301 C61.1877829 224.0532489 62.22224548 224.05266479 63.28805542 224.05206299 C66.70800304 224.05485015 70.1270796 224.0859732 73.546875 224.11730957 C75.91769942 224.12476968 78.28853 224.1304637 80.65936279 224.13446045 C86.90007545 224.14973474 93.14041588 224.18903258 99.38098145 224.23327637 C105.74872807 224.27419004 112.11653483 224.29246315 118.484375 224.31262207 C130.97935655 224.35552472 143.47396409 224.42588981 155.96875 224.50793457 C155.96875 213.28793457 155.96875 202.06793457 155.96875 190.50793457 C152.81417236 190.52888184 149.65959473 190.5498291 146.40942383 190.57141113 C135.9919742 190.63766129 125.57451532 190.68186213 115.1569109 190.71518326 C108.8400897 190.7360665 102.52348418 190.76439824 96.20678711 190.80969238 C90.11191879 190.85312288 84.01725804 190.87706612 77.92224693 190.88744354 C75.59578877 190.89483986 73.26934209 190.90928294 70.94297218 190.9308548 C67.68674711 190.95985075 64.43138203 190.96389205 61.17504883 190.96203613 C60.21119766 190.97641724 59.2473465 190.99079834 58.25428772 191.00561523 C53.95143685 190.97904181 51.60600534 190.89938394 47.87016296 188.60455322 C45.81884888 186.34264408 45.30652147 185.51152324 45.40625 182.50793457 C45.40496094 181.84793457 45.40367188 181.18793457 45.40234375 180.50793457 C46.27716865 177.41889769 47.35282167 176.42214075 49.96875 174.50793457 C53.35949834 173.91353809 56.71918611 174.00327324 60.15332031 174.05383301 C61.1877829 174.0532489 62.22224548 174.05266479 63.28805542 174.05206299 C66.70800304 174.05485015 70.1270796 174.0859732 73.546875 174.11730957 C75.91769942 174.12476968 78.28853 174.1304637 80.65936279 174.13446045 C86.90007545 174.14973474 93.14041588 174.18903258 99.38098145 174.23327637 C105.74872807 174.27419004 112.11653483 174.29246315 118.484375 174.31262207 C130.97933023 174.35552463 143.47400917 174.42379811 155.96875 174.50793457 C156.16457924 173.26851608 156.16457924 173.26851608 156.36436462 172.00405884 C156.62667625 170.38006668 156.62667625 170.38006668 156.89428711 168.7232666 C157.06608994 167.64948761 157.23789276 166.57570862 157.41490173 165.46939087 C159.4748034 154.45498653 166.9593215 145.16436309 175.640625 138.43762207 C186.75717233 130.93238249 198.19489113 129.32840466 211.33422852 129.39440918 C212.1158284 129.39426315 212.89742828 129.39411713 213.70271301 129.39396667 C216.25105703 129.39465574 218.79932522 129.4024003 221.34765625 129.41027832 C223.12841248 129.41214608 224.90916922 129.41356829 226.68992615 129.41456604 C231.35052945 129.418363 236.01110103 129.42816885 240.67169189 129.43927002 C245.43802461 129.44954514 250.2043625 129.45407667 254.97070312 129.45910645 C264.30339927 129.46979394 273.63607198 129.48683604 282.96875 129.50793457 C282.88440583 115.90389268 282.78954535 102.2999688 282.68122292 88.69609547 C282.6312568 82.37940992 282.5849266 76.06274113 282.546875 69.74597168 C282.51002646 63.6510384 282.46366733 57.55624515 282.41068649 51.4614315 C282.39214032 49.13503155 282.3770332 46.80860158 282.36540604 44.48215675 C282.3485477 41.22603614 282.31951298 37.97023638 282.28759766 34.7142334 C282.28543747 33.75038223 282.28327728 32.78653107 282.28105164 31.79347229 C282.45475379 25.24319466 282.45475379 25.24319466 279.96875 19.50793457 C272.93936695 16.44923513 265.96728593 16.07973121 258.41120911 16.13371277 C257.28871047 16.12973836 256.16621184 16.12576396 255.00969809 16.12166911 C251.27041303 16.11208966 247.53151043 16.12383813 243.79223633 16.13562012 C241.1026356 16.13319076 238.4130597 16.12958604 235.72346497 16.1245575 C229.19055225 16.11509788 222.65775046 16.12164385 216.12484602 16.13382044 C208.51190139 16.14747887 200.89898283 16.14579927 193.28602906 16.14368711 C179.70181242 16.14050153 166.11764833 16.15214137 152.53344727 16.17175293 C139.3599284 16.19076651 126.18647106 16.197837 113.01293945 16.19226074 C98.65384849 16.1862006 84.29478455 16.18638348 69.93569583 16.19774657 C68.40425567 16.19895383 66.87281551 16.20015981 65.34137535 16.20136452 C64.587944 16.20196806 63.83451265 16.20257159 63.05825004 16.20319342 C57.75446046 16.20706908 52.45068095 16.20668036 47.14689064 16.20477867 C40.68377239 16.2026549 34.22070797 16.20789491 27.75760487 16.22239222 C24.46153097 16.22962659 21.16555116 16.23264834 17.86946869 16.22914886 C14.29467224 16.22592907 10.72011212 16.2350041 7.14533997 16.24723816 C6.10643122 16.24345884 5.06752247 16.23967951 3.99713165 16.23578566 C-1.38927027 16.26843362 -5.98190656 16.55667164 -11.03125 18.50793457 C-16.00791887 23.74653339 -16.17376381 27.54955439 -16.20703125 34.53137207 C-16.23022797 36.37513351 -16.25434524 38.21888355 -16.27929688 40.06262207 C-16.31443379 42.97480914 -16.34376677 45.8865768 -16.35717773 48.7989502 C-16.3726409 51.60610929 -16.41283816 54.41203759 -16.45703125 57.21887207 C-16.45512283 58.08877777 -16.45321442 58.95868347 -16.45124817 59.85494995 C-16.57338841 65.88453794 -16.57338841 65.88453794 -18.88354492 69.02990723 C-21.69940228 70.96774972 -23.6141795 71.43819844 -27.03125 71.50793457 C-31.59646739 69.37749979 -31.59646739 69.37749979 -33.03125 66.50793457 C-33.13515481 65.16705 -33.17984346 63.8212863 -33.19238281 62.47644043 C-33.20199036 61.64474838 -33.2115979 60.81305634 -33.22149658 59.9561615 C-33.22574646 59.05414505 -33.22999634 58.1521286 -33.234375 57.22277832 C-33.24007507 56.29252335 -33.24577515 55.36226837 -33.25164795 54.40382385 C-33.26110841 52.42918029 -33.26763607 50.45452087 -33.27148438 48.4798584 C-33.28113307 45.48176735 -33.31212263 42.48437858 -33.34375 39.4864502 C-33.35028589 37.56523029 -33.35553405 35.6440055 -33.359375 33.72277832 C-33.3717218 32.83493149 -33.3840686 31.94708466 -33.39678955 31.03233337 C-33.36733946 22.65432492 -31.67009454 15.50674105 -25.90625 9.19543457 C-25.20242187 8.39492676 -24.49859375 7.59441895 -23.7734375 6.76965332 C-16.4662485 0.74278376 -9.22771537 -0.07512439 0 0 Z M220.96875 290.50793457 C215.48033318 298.76895437 215.48033318 298.76895437 216.96875 315.50793457 C229.83875 315.50793457 242.70875 315.50793457 255.96875 315.50793457 C255.96875 306.26793457 255.96875 297.02793457 255.96875 287.50793457 C251.94815054 287.4387905 247.92907991 287.3791432 243.90820312 287.34313965 C242.54257184 287.32812029 241.17698824 287.30769849 239.81152344 287.28161621 C237.84071095 287.2449332 235.86953592 287.22974906 233.8984375 287.21496582 C232.71491699 287.19925537 231.53139648 287.18354492 230.31201172 287.1673584 C226.41144448 287.56470697 224.21391343 288.29695955 220.96875 290.50793457 Z M271.96875 287.50793457 C271.96875 296.74793457 271.96875 305.98793457 271.96875 315.50793457 C284.83875 315.50793457 297.70875 315.50793457 310.96875 315.50793457 C310.96875 306.26793457 310.96875 297.02793457 310.96875 287.50793457 C298.09875 287.50793457 285.22875 287.50793457 271.96875 287.50793457 Z M326.96875 287.50793457 C326.96875 296.74793457 326.96875 305.98793457 326.96875 315.50793457 C339.83875 315.50793457 352.70875 315.50793457 365.96875 315.50793457 C367.45716682 298.76895437 367.45716682 298.76895437 361.96875 290.50793457 C357.64480839 287.56197297 354.20389968 287.14640603 349.0390625 287.21496582 C347.10546875 287.22946777 347.10546875 287.22946777 345.1328125 287.2442627 C343.78645214 287.26932269 342.44009797 287.29471745 341.09375 287.32043457 C339.72397295 287.33549953 338.35417998 287.34918475 336.984375 287.3614502 C333.64566255 287.39671828 330.30715508 287.45052251 326.96875 287.50793457 Z M-5.03125 323.50793457 C-0.66095634 328.73742201 3.93786804 333.61083412 8.7734375 338.41027832 C9.8594072 339.4941256 9.8594072 339.4941256 10.96731567 340.59986877 C13.25710265 342.88410379 15.55035993 345.16481769 17.84375 347.44543457 C19.40648161 349.00314496 20.9689839 350.56108544 22.53125 352.1192627 C26.3411031 355.91815059 30.15380379 359.7141617 33.96875 363.50793457 C36.59225015 361.15680111 36.59225015 361.15680111 37.37280273 357.69226074 C37.40473919 354.0259023 37.42650693 350.36193875 37.40625 346.69543457 C37.42623047 345.42377441 37.44621094 344.15211426 37.46679688 342.84191895 C37.61462685 333.78988704 37.61462685 333.78988704 32.96875 326.50793457 C28.82056857 323.38789481 25.29095443 323.10308536 20.26171875 323.21496582 C19.53632401 323.21921066 18.81092926 323.22345551 18.06355286 323.22782898 C15.76073109 323.24453914 13.45880447 323.28217497 11.15625 323.32043457 C9.5892054 323.33549141 8.022147 323.34917807 6.45507812 323.3614502 C2.62596043 323.39441726 -1.20249334 323.44614465 -5.03125 323.50793457 Z M62.59619141 350.98498535 C46.03992572 370.03962017 38.45804732 393.34634208 39.96875 418.50793457 C41.76581158 433.63066462 46.92134051 448.22132909 55.96875 460.50793457 C56.63648437 461.42059082 57.30421875 462.33324707 57.9921875 463.27355957 C72.42265848 481.92377117 93.68573349 493.81733034 117.03125 496.91418457 C139.00822663 499.11188223 161.02804002 493.4835981 178.71875 480.07043457 C180.14329422 478.89239618 181.56008114 477.70491107 182.96875 476.50793457 C184.05736328 475.65328613 184.05736328 475.65328613 185.16796875 474.78137207 C201.88389428 461.07022896 211.50800826 439.65638479 213.96875 418.50793457 C215.34996809 392.15854329 207.49117471 369.33631739 189.97265625 349.64855957 C176.69585149 335.37653769 156.07937234 324.48602344 136.50439453 323.36706543 C108.25864158 322.38757165 82.4831099 329.58408587 62.59619141 350.98498535 Z M216.96875 331.50793457 C216.96875 340.74793457 216.96875 349.98793457 216.96875 359.50793457 C229.83875 359.50793457 242.70875 359.50793457 255.96875 359.50793457 C255.96875 350.26793457 255.96875 341.02793457 255.96875 331.50793457 C243.09875 331.50793457 230.22875 331.50793457 216.96875 331.50793457 Z M271.96875 331.50793457 C271.96875 340.74793457 271.96875 349.98793457 271.96875 359.50793457 C284.83875 359.50793457 297.70875 359.50793457 310.96875 359.50793457 C310.96875 350.26793457 310.96875 341.02793457 310.96875 331.50793457 C298.09875 331.50793457 285.22875 331.50793457 271.96875 331.50793457 Z M326.96875 331.50793457 C326.96875 340.74793457 326.96875 349.98793457 326.96875 359.50793457 C339.83875 359.50793457 352.70875 359.50793457 365.96875 359.50793457 C365.96875 350.26793457 365.96875 341.02793457 365.96875 331.50793457 C353.09875 331.50793457 340.22875 331.50793457 326.96875 331.50793457 Z M223.96875 375.50793457 C225.19170245 380.60798908 225.19170245 380.60798908 226.42138672 385.7064209 C227.82812217 391.62925229 228.87475645 397.49097004 229.96875 403.50793457 C238.54875 403.50793457 247.12875 403.50793457 255.96875 403.50793457 C255.96875 394.26793457 255.96875 385.02793457 255.96875 375.50793457 C245.40875 375.50793457 234.84875 375.50793457 223.96875 375.50793457 Z M271.96875 375.50793457 C271.96875 384.74793457 271.96875 393.98793457 271.96875 403.50793457 C284.83875 403.50793457 297.70875 403.50793457 310.96875 403.50793457 C310.96875 394.26793457 310.96875 385.02793457 310.96875 375.50793457 C298.09875 375.50793457 285.22875 375.50793457 271.96875 375.50793457 Z M326.96875 375.50793457 C326.96875 384.74793457 326.96875 393.98793457 326.96875 403.50793457 C331.13247198 403.6001203 335.29261084 403.67963423 339.45654297 403.72766113 C340.87072795 403.747693 342.28483097 403.77492705 343.69873047 403.80969238 C345.73946419 403.85858946 347.7790969 403.8809858 349.8203125 403.89855957 C351.04572754 403.91950684 352.27114258 403.9404541 353.53369141 403.96203613 C357.73659495 403.40642841 359.76014404 402.2598015 362.96875 399.50793457 C367.31039079 391.94268699 367.31039079 391.94268699 365.96875 375.50793457 C353.09875 375.50793457 340.22875 375.50793457 326.96875 375.50793457 Z " fill="#000000" transform="translate(59.03125,-0.5079345703125)"/>
<path d="M0 0 C1.11157471 -0.00571014 2.22314941 -0.01142029 3.3684082 -0.01730347 C4.58353592 -0.01842133 5.79866364 -0.01953918 7.0506134 -0.02069092 C8.33396576 -0.02565582 9.61731812 -0.03062073 10.93955994 -0.03573608 C14.45840968 -0.04883858 17.97724036 -0.05530116 21.49611068 -0.05974674 C23.69728268 -0.06268172 25.89844952 -0.06678739 28.09961891 -0.07125092 C34.9943388 -0.08492191 41.88904683 -0.09458978 48.78377932 -0.09845281 C56.72790539 -0.10292884 64.671859 -0.12045714 72.61593264 -0.1494534 C78.76557583 -0.17111616 84.91517067 -0.18115958 91.06485158 -0.18249393 C94.73329609 -0.18353893 98.40157839 -0.18938108 102.06998253 -0.20731354 C106.16779807 -0.22695544 110.26525587 -0.22248702 114.3631134 -0.21600342 C116.17062325 -0.22982559 116.17062325 -0.22982559 118.01464844 -0.243927 C129.21558521 -0.18851155 136.19924186 1.93847165 144.35847473 9.73028564 C152.04161866 18.25636443 151.75767894 27.80679958 151.84284973 38.76544189 C151.87185364 39.98618408 151.90085754 41.20692627 151.93074036 42.46466064 C151.99554009 51.78585379 150.70371171 60.29198409 145.03034973 67.95294189 C137.97520986 75.05857545 129.24552544 77.81246259 119.44308472 77.93139648 C118.21931625 77.91610901 116.99554779 77.90082153 115.73469543 77.8850708 C114.39778007 77.8899408 113.06087206 77.8973931 111.72398376 77.90719604 C108.13083112 77.92582434 104.53878617 77.90733104 100.94572091 77.88053179 C97.16632946 77.85770381 93.38698466 77.86613265 89.60754395 77.87002563 C83.26709644 77.87178474 76.92707939 77.84976907 70.58674622 77.81280518 C63.27585889 77.77042476 55.9656001 77.76346561 48.65461475 77.77592909 C41.59163203 77.78734912 34.52886866 77.77599035 27.46591759 77.753582 C24.47289627 77.74433867 21.48001016 77.74252092 18.48697853 77.74675369 C14.30359571 77.75124809 10.12107987 77.72219509 5.93782043 77.6897583 C4.0930587 77.69719055 4.0930587 77.69719055 2.21102905 77.70477295 C-7.30061237 77.58734837 -14.7694128 75.48403047 -21.89933777 68.98419189 C-29.46372292 60.10262525 -29.67414093 50.60834255 -29.71965027 39.51544189 C-29.74027527 38.28180908 -29.76090027 37.04817627 -29.78215027 35.77716064 C-29.83274837 23.87395641 -28.26712352 15.97460796 -19.88371277 7.27716064 C-14.01546707 2.08309852 -7.73801011 0.02384266 0 0 Z M-11.28215027 22.20294189 C-14.42227377 27.32630129 -13.73053378 33.08186676 -13.78215027 38.89044189 C-13.81115417 39.96294189 -13.84015808 41.03544189 -13.87004089 42.14044189 C-13.92257439 48.70308829 -13.57553374 52.90841322 -9.46965027 58.14044189 C-5.859221 60.74661573 -3.36350038 61.51683924 1.06451416 61.52812195 C2.71519897 61.5429789 2.71519897 61.5429789 4.39923096 61.55813599 C6.1955471 61.55138351 6.1955471 61.55138351 8.02815247 61.54449463 C9.93136765 61.55478951 9.93136765 61.55478951 11.87303162 61.56529236 C15.34624161 61.58321356 18.81919881 61.58205741 22.29244113 61.57634997 C25.19500831 61.5732565 28.09752704 61.57935235 31.00008732 61.58538872 C37.84916446 61.599429 44.69811686 61.59787693 51.54719543 61.58648682 C58.6063224 61.57500659 65.66506941 61.58908048 72.72414631 61.61588329 C78.79140915 61.63805529 84.85855284 61.6446743 90.92585331 61.63880688 C94.54670471 61.63543957 98.16731258 61.63783696 101.78812981 61.65505791 C105.82671465 61.67342799 109.8645624 61.65932472 113.90315247 61.64215088 C115.09867233 61.65181885 116.2941922 61.66148682 117.52593994 61.67144775 C123.81000322 61.61543428 127.80187226 61.45912274 132.53034973 57.14044189 C136.55296058 51.70906859 135.97573348 45.61574637 135.90534973 39.14044189 C135.92275208 37.53942627 135.92275208 37.53942627 135.94050598 35.90606689 C135.91949157 30.27420535 135.81369269 25.94399614 132.53034973 21.14044189 C128.36471107 17.38120701 125.98084766 16.01844908 120.43287659 15.99327087 C119.35337234 15.98611557 118.2738681 15.97896027 117.16165161 15.97158813 C115.37720894 15.96755478 115.37720894 15.96755478 113.55671692 15.96343994 C112.30785202 15.95686874 111.05898712 15.95029755 109.77227783 15.94352722 C105.6239244 15.92375583 101.47560967 15.91212308 97.32722473 15.90216064 C95.89906546 15.89811319 94.47090637 15.89399627 93.0427475 15.88981056 C86.33223824 15.87075588 79.62173999 15.85652628 72.91120887 15.84819859 C65.1667705 15.83842915 57.42261818 15.81211874 49.67828059 15.7716977 C43.69178169 15.74152484 37.70536471 15.72672856 31.71879125 15.72341758 C28.14368966 15.72106808 24.56889356 15.71212161 20.9938736 15.68695641 C17.00300982 15.65931855 13.01252137 15.66351046 9.02156067 15.67047119 C7.84002914 15.65766113 6.65849762 15.64485107 5.44116211 15.63165283 C-2.13331768 15.6798712 -6.16011809 16.37442252 -11.28215027 22.20294189 Z " fill="#000000" transform="translate(289.4696502685547,170.85955810546875)"/>
<path d="M0 0 C2.20914 3.31371 2.22481553 4.3446021 2.125 8.1875 C2.10695312 9.08855469 2.08890625 9.98960937 2.0703125 10.91796875 C2.04710937 11.60503906 2.02390625 12.29210937 2 13 C3.7015625 13.0928125 3.7015625 13.0928125 5.4375 13.1875 C11.70860112 13.96721062 16.55074637 17.2078632 21.5625 20.875 C23.74070806 24.09495974 23.59865642 26.20850936 23 30 C21 33 21 33 18 35 C14.06957308 35.37358513 10.98705644 34.64025282 7.6875 32.5 C7.130625 32.005 6.57375 31.51 6 31 C5.01 30.67 4.02 30.34 3 30 C3 40.23 3 50.46 3 61 C6.96 62.65 10.92 64.3 15 66 C22.84367985 70.55439475 27.6462944 77.1977859 30 86 C31.10479496 98.28120904 29.585814 108.35018153 21.69921875 118.18359375 C16.95317985 123.25694568 11.52417852 126.69734876 5 129 C4.01 129 3.02 129 2 129 C2.05220703 130.24716797 2.05220703 130.24716797 2.10546875 131.51953125 C2.13253906 132.60621094 2.15960938 133.69289063 2.1875 134.8125 C2.23970703 136.43091797 2.23970703 136.43091797 2.29296875 138.08203125 C2 141 2 141 0.69921875 142.828125 C-2.15570307 144.7970366 -4.58055261 144.94104401 -8 145 C-11.42741629 142.91374661 -12.72481037 141.8255689 -14 138 C-14.12781786 135.32605036 -14.04391871 132.67904143 -14 130 C-14.65484375 129.92523438 -15.3096875 129.85046875 -15.984375 129.7734375 C-24.13367027 128.59938649 -34.74032873 125.90874312 -40 119 C-40.75471698 112.20754717 -40.75471698 112.20754717 -38.4375 108.5 C-34.92396994 106.33782765 -33.0994938 106.40491219 -29 107 C-26.38851621 108.14252416 -23.9156861 109.41468719 -21.4296875 110.80859375 C-18.92602381 112.0362745 -16.72912688 112.50542024 -14 113 C-13.87071473 107.26949703 -13.81384926 101.54445724 -13.82299805 95.8125 C-13.81603713 93.86473838 -13.78955492 91.91694225 -13.74291992 89.96972656 C-12.97241806 78.89787919 -12.97241806 78.89787919 -17.41015625 69.43554688 C-20.25429619 67.89497108 -22.90764731 66.91635644 -26 66 C-31.82464924 62.68397556 -35.08602826 57.27131166 -37 51 C-38.33398796 40.21209736 -37.00009234 30.88695855 -30.3125 22.1875 C-26.15134022 17.69726891 -20.75655028 14.91885009 -15 13 C-14.83564453 11.86111328 -14.83564453 11.86111328 -14.66796875 10.69921875 C-14.43013672 9.20841797 -14.43013672 9.20841797 -14.1875 7.6875 C-14.03667969 6.70136719 -13.88585937 5.71523438 -13.73046875 4.69921875 C-12.95228758 1.82369368 -12.35498656 0.76196331 -10 -1 C-6.00471255 -2.33176248 -3.90144863 -1.41870859 0 0 Z M-16 31 C-19.6072616 34.95081032 -21.36623241 37.72322662 -21.625 43.125 C-21.43648748 46.98950669 -21.07665094 47.8991435 -18.625 51.125 C-16.26640084 53.19374606 -16.26640084 53.19374606 -14 53 C-14 45.74 -14 38.48 -14 31 C-14.66 31 -15.32 31 -16 31 Z M2 79 C2 89.89 2 100.78 2 112 C7.14271045 109.97242252 7.14271045 109.97242252 10.25 106.0625 C10.75015625 105.37285156 11.2503125 104.68320312 11.765625 103.97265625 C14.69018315 99.29891617 14.4620593 94.33079526 14 89 C12.16466963 84.41167408 8.91730419 81.85636764 5 79 C4.01 79 3.02 79 2 79 Z " fill="#000000" transform="translate(191,338)"/>
<path d="M0 0 C4.98269946 4.98269946 6.08971623 10.44494811 6.3125 17.3125 C6.05510239 28.3805971 1.82360431 37.64719875 -6.1875 45.3125 C-12.50683951 50.30951076 -20.43496823 52.76542282 -28.45703125 52.3828125 C-36.42730773 51.18298593 -43.71242735 48.21289787 -49 42 C-54.52687558 34.14467221 -57.35803169 27.15808013 -57.375 17.5625 C-57.39949219 16.83740234 -57.42398438 16.11230469 -57.44921875 15.36523438 C-57.48377819 8.95445909 -55.57572852 4.95998639 -51.32421875 0.07421875 C-39.06974715 -10.30844812 -12.33396743 -10.506713 0 0 Z M-41 13 C-41.92159475 18.76532531 -41.32354992 24.16447698 -38.38671875 29.234375 C-35.31588556 33.14428092 -31.71450156 35.65485719 -26.7265625 36.2890625 C-21.58575563 36.06097209 -18.11634145 34.36877778 -14.44140625 30.8046875 C-11.12909784 26.65756965 -10.1683526 22.44302231 -9.5625 17.25 C-9.76281838 13.98701965 -9.76281838 13.98701965 -11.5625 11.625 C-18.35199229 7.09867181 -34.92900187 6.92900187 -41 13 Z " fill="#000000" transform="translate(218,49)"/>
<path d="M0 0 C2.69438234 4.04157351 2.36745793 7.13103683 2.375 11.875 C2.39949219 12.67808594 2.42398437 13.48117188 2.44921875 14.30859375 C2.46902143 18.31533529 2.28741951 20.5080948 0.2265625 24.03515625 C-2.11661622 26.1029087 -2.93678368 26.66420835 -6 26.5625 C-6.66 26.56378906 -7.32 26.56507812 -8 26.56640625 C-11.09324064 25.69039084 -12.15160766 24.65503724 -14 22 C-14.58888488 18.82222238 -14.5583416 15.72337352 -14.5 12.5 C-14.51546875 11.64535156 -14.5309375 10.79070313 -14.546875 9.91015625 C-14.50810691 3.69757051 -14.50810691 3.69757051 -12.15625 0.46875 C-7.62716402 -2.61627958 -4.97840876 -1.81033046 0 0 Z " fill="#000000" transform="translate(273,38)"/>
<path d="M0 0 C3.57000794 3.57000794 3.15931492 7.56148042 3.1875 12.4375 C3.20167969 13.54996094 3.21585938 14.66242187 3.23046875 15.80859375 C2.91894204 20.12244662 2.07280372 22.92719628 -1 26 C-8.02821237 26.56679132 -8.02821237 26.56679132 -11.09838867 24.77612305 C-13 23 -13 23 -13.50170898 20.77929688 C-13.49985596 19.93431641 -13.49800293 19.08933594 -13.49609375 18.21875 C-13.49673828 17.29449219 -13.49738281 16.37023437 -13.49804688 15.41796875 C-13.47806641 14.45503906 -13.45808594 13.49210937 -13.4375 12.5 C-13.44458984 11.53707031 -13.45167969 10.57414062 -13.45898438 9.58203125 C-13.39467284 2.48797401 -13.39467284 2.48797401 -11.58618164 0.25195312 C-7.56895423 -2.91879371 -4.52093035 -1.8673408 0 0 Z " fill="#000000" transform="translate(123,38)"/>
</svg>
