<?xml version="1.0" encoding="UTF-8"?>
<svg version="1.1" xmlns="http://www.w3.org/2000/svg" width="512" height="512">
<path d="M0 0 C0.70003647 -0.00511093 1.40007294 -0.01022186 2.12132263 -0.01548767 C4.42032581 -0.02931252 6.71902676 -0.02843217 9.01806641 -0.02612305 C10.6270051 -0.03001418 12.23594278 -0.03434971 13.84487915 -0.03910828 C17.21221246 -0.04655542 20.5794409 -0.04629038 23.94677734 -0.04101562 C28.24615136 -0.03522611 32.54509386 -0.05214657 36.84439659 -0.0753603 C40.16627481 -0.09014633 43.4880503 -0.09096269 46.8099556 -0.08785057 C48.39427163 -0.08836144 49.97859378 -0.0935549 51.56287766 -0.10366249 C69.8615322 -0.2060788 69.8615322 -0.2060788 75.24594116 4.6204071 C80.22274885 10.16081369 81.05938937 15.35900386 81.08056641 22.57543945 C81.08722321 23.37064499 81.09388 24.16585052 81.10073853 24.9851532 C81.1108361 26.66358132 81.11555644 28.34204935 81.11523438 30.02050781 C81.11959747 32.56880023 81.15591728 35.11534482 81.19384766 37.66333008 C81.19971875 39.300694 81.20368618 40.93806608 81.20556641 42.57543945 C81.21993744 43.32779373 81.23430847 44.08014801 81.24911499 44.8553009 C81.19556888 51.15581998 79.37699269 56.56901663 74.92041016 61.1496582 C73.99808594 61.7065332 73.99808594 61.7065332 73.05712891 62.2746582 C72.15414062 62.8624707 72.15414062 62.8624707 71.23291016 63.4621582 C68.74462891 64.2746582 68.74462891 64.2746582 59.74462891 64.2746582 C59.74462891 70.2146582 59.74462891 76.1546582 59.74462891 82.2746582 C61.31212891 82.4809082 62.87962891 82.6871582 64.49462891 82.8996582 C92.60670945 87.67838233 119.6348127 100.40181082 141.74462891 118.2746582 C142.27008301 118.69859863 142.79553711 119.12253906 143.33691406 119.55932617 C181.12880852 150.24351933 205.45669262 193.69098335 210.74462891 242.2746582 C211.14942315 247.95558782 211.18004954 253.63397766 211.13574219 259.3269043 C211.11962732 261.77489876 211.13573309 264.22124342 211.15478516 266.66918945 C211.17555751 281.60525731 209.37625455 296.37598348 205.05712891 310.7121582 C204.8022168 311.57429932 204.54730469 312.43644043 204.28466797 313.32470703 C189.72897639 361.12632858 157.55490563 400.07505708 113.61962891 423.8996582 C70.90366375 446.2660418 20.0531164 450.10766982 -25.88964844 436.0534668 C-48.69478824 428.7185301 -72.11755201 417.41247729 -89.25537109 400.2746582 C-89.59492458 397.26718443 -89.81150645 395.17573543 -89.25537109 392.2746582 C-86.79224302 389.37686047 -85.26739271 388.42293449 -81.50927734 387.87231445 C-77.16260625 388.40977799 -74.62403248 390.54741229 -71.31787109 393.2121582 C-69.9829355 394.23381443 -68.64429687 395.25064789 -67.30224609 396.26293945 C-66.62613281 396.7729248 -65.95001953 397.28291016 -65.25341797 397.80834961 C-31.92893279 422.2642218 12.74579764 431.69119502 53.32470703 425.67700195 C96.67222761 418.46990814 136.82515581 395.38944488 162.80712891 359.5871582 C168.05772041 352.15829323 172.54411962 344.33628202 176.74462891 336.2746582 C177.06560547 335.66009766 177.38658203 335.04553711 177.71728516 334.41235352 C197.3912715 296.1139345 199.18108988 249.94843266 186.24462891 209.2746582 C178.06987959 185.18365236 164.63882909 165.00545335 147.74462891 146.2746582 C147.06916016 145.52571289 146.39369141 144.77676758 145.69775391 144.00512695 C116.02493046 112.87402372 73.35970694 98.50858834 31.43603516 96.08325195 C28.51855838 96.02117798 25.65848195 96.10918013 22.74462891 96.2746582 C22.07270508 96.31042969 21.40078125 96.34620117 20.70849609 96.38305664 C-19.90992666 98.79516064 -56.95898822 115.17812719 -86.25537109 143.2746582 C-87.07263672 144.04036133 -87.88990234 144.80606445 -88.73193359 145.5949707 C-99.07636642 155.55509024 -107.10399367 166.85004287 -114.25537109 179.2746582 C-114.58778809 179.8437793 -114.92020508 180.41290039 -115.26269531 180.99926758 C-136.91273414 218.35050738 -141.56480753 263.39599559 -130.79443359 304.90356445 C-124.94713396 326.04706096 -115.39318016 346.58940772 -101.35693359 363.5715332 C-98.65753243 366.84123038 -96.8690888 369.20456222 -96.56787109 373.5246582 C-97.25537109 377.2746582 -97.25537109 377.2746582 -99.31787109 379.8371582 C-102.25537109 381.2746582 -102.25537109 381.2746582 -105.50537109 381.6496582 C-111.31847787 379.51818572 -114.56049876 375.11522738 -118.25537109 370.2746582 C-118.64455719 369.40781403 -119.03374329 368.54096985 -119.4347229 367.64785767 C-121.09416846 364.9424015 -121.09416846 364.9424015 -124.42977905 364.65560913 C-125.74040314 364.65799591 -127.05102722 364.66038269 -128.40136719 364.6628418 C-129.1252916 364.65717697 -129.849216 364.65151215 -130.59507751 364.64567566 C-132.99017965 364.63216209 -135.38377226 364.6531276 -137.77880859 364.6730957 C-139.44407184 364.66759654 -141.10932831 364.65947285 -142.77456665 364.64883423 C-147.16222536 364.62591723 -151.54938656 364.63017896 -155.93707275 364.64263916 C-162.9528861 364.66092317 -169.96840624 364.65097397 -176.98414993 364.61677933 C-179.43329288 364.61067795 -181.88180842 364.62393392 -184.3309021 364.63876343 C-185.83746502 364.63581462 -187.34402678 364.63215945 -188.85058594 364.62768555 C-190.16280121 364.63166351 -191.47501648 364.63564148 -192.82699585 364.63973999 C-196.47657288 364.25110281 -198.35979437 363.48517471 -201.25537109 361.2746582 C-202.80123985 358.18292069 -202.54896631 355.68036268 -202.25537109 352.2746582 C-200.09585592 349.33844015 -198.89077229 348.38507073 -195.26873779 347.75567627 C-194.10513733 347.74679382 -192.94153687 347.73791138 -191.74267578 347.72875977 C-191.09835602 347.71842209 -190.45403625 347.70808441 -189.79019165 347.69743347 C-187.66895399 347.66802927 -185.54867144 347.66650695 -183.42724609 347.6652832 C-181.95320824 347.65029976 -180.47918717 347.63357226 -179.00518799 347.61517334 C-175.13199081 347.57150516 -171.25902009 347.55150221 -167.38562012 347.53643799 C-163.43060926 347.51686475 -159.47584289 347.47489508 -155.52099609 347.43481445 C-147.7658226 347.35951801 -140.01084124 347.31129424 -132.25537109 347.2746582 C-134.56537109 342.6546582 -136.87537109 338.0346582 -139.25537109 333.2746582 C-141.62756836 333.2653125 -143.99976563 333.2559668 -146.44384766 333.24633789 C-154.27908508 333.21258 -162.11405879 333.15703786 -169.94908524 333.09075546 C-174.6997949 333.05123574 -179.45031796 333.0190694 -184.20117188 333.00366211 C-188.78552276 332.98852501 -193.36936078 332.9541323 -197.95348358 332.90634918 C-199.70293471 332.89150487 -201.45245906 332.88361544 -203.20197296 332.88277435 C-205.65164451 332.88041203 -208.09989023 332.85339394 -210.54931641 332.82055664 C-211.27364365 332.82558701 -211.99797089 332.83061737 -212.74424744 332.83580017 C-216.11538515 332.76581983 -217.96807195 332.48716569 -220.70965576 330.45928955 C-222.9573366 327.28253772 -222.73010291 325.07251275 -222.25537109 321.2746582 C-220.49521979 318.08962251 -219.75646193 317.44168848 -216.25537109 316.2746582 C-213.97077435 316.18476446 -211.68357783 316.15708616 -209.3972168 316.16113281 C-208.70427521 316.16098679 -208.01133362 316.16084076 -207.2973938 316.16069031 C-205.00861473 316.16138658 -202.71991719 316.1691656 -200.43115234 316.17700195 C-198.84360295 316.17886715 -197.25605298 316.18029057 -195.66850281 316.18128967 C-191.4911439 316.18510686 -187.31381978 316.19493035 -183.13647461 316.20599365 C-178.87337718 316.21622492 -174.61027413 316.22079097 -170.34716797 316.22583008 C-161.98321971 316.23655332 -153.61929973 316.25362017 -145.25537109 316.2746582 C-145.47193359 315.52700195 -145.68849609 314.7793457 -145.91162109 314.0090332 C-146.19005859 313.02418945 -146.46849609 312.0393457 -146.75537109 311.0246582 C-147.03380859 310.05012695 -147.31224609 309.0755957 -147.59912109 308.0715332 C-148.25537109 305.2746582 -148.25537109 305.2746582 -148.25537109 301.2746582 C-149.35926682 301.28576126 -150.46316254 301.29686432 -151.60050964 301.30830383 C-162.00317503 301.40965785 -172.40574025 301.48461313 -182.80878735 301.53371906 C-188.15715804 301.5598138 -193.50513018 301.59521008 -198.85327148 301.65185547 C-204.01448293 301.70617893 -209.175311 301.73607967 -214.33678627 301.74904442 C-216.30601347 301.75828365 -218.27521967 301.77632589 -220.24428368 301.80330849 C-223.0025912 301.83960333 -225.75931441 301.84460339 -228.51782227 301.84228516 C-229.33206161 301.86026154 -230.14630096 301.87823792 -230.98521423 301.89675903 C-235.22754718 301.85817541 -236.79870056 301.63123936 -240.2624054 298.92668152 C-242.25537109 296.2746582 -242.25537109 296.2746582 -242.88037109 293.2746582 C-242.02394513 289.16381356 -240.54430437 287.85753359 -237.25537109 285.2746582 C-234.23865088 284.80549274 -231.79986861 284.63828326 -228.79321289 284.70703125 C-227.53390709 284.70593605 -227.53390709 284.70593605 -226.24916077 284.70481873 C-223.4836387 284.70829272 -220.71981639 284.74714375 -217.95458984 284.78637695 C-216.03360413 284.79570578 -214.11260649 284.80282156 -212.19160461 284.80781555 C-207.14263906 284.82687989 -202.094396 284.87597601 -197.04571533 284.93133545 C-191.89109063 284.98253999 -186.73634885 285.00533218 -181.58154297 285.03051758 C-171.47250208 285.08409514 -161.36399673 285.16940129 -151.25537109 285.2746582 C-151.58537109 284.6146582 -151.91537109 283.9546582 -152.25537109 283.2746582 C-152.48567065 280.90342575 -152.66657051 278.52723878 -152.81787109 276.1496582 C-152.90166016 274.86833008 -152.98544922 273.58700195 -153.07177734 272.2668457 C-153.13236328 271.27942383 -153.19294922 270.29200195 -153.25537109 269.2746582 C-154.56193665 269.28576126 -155.8685022 269.29686432 -157.21466064 269.30830383 C-169.51603534 269.40957614 -181.81732569 269.48457402 -194.11902237 269.53371906 C-200.44378252 269.55983434 -206.76820668 269.59526869 -213.09277344 269.65185547 C-219.19413311 269.70610476 -225.29516921 269.73606419 -231.3967514 269.74904442 C-233.72684576 269.75829691 -236.05692203 269.77636455 -238.38687897 269.80330849 C-241.6458439 269.83950335 -244.90346471 269.84460738 -248.16259766 269.84228516 C-249.1300441 269.86026154 -250.09749054 269.87823792 -251.09425354 269.89675903 C-257.60291442 269.84643633 -257.60291442 269.84643633 -260.89007568 266.96574402 C-262.7527732 263.29424639 -262.34323399 261.19096464 -261.25537109 257.2746582 C-259.67848298 255.20582231 -258.82775524 254.37983257 -256.24640369 253.90551472 C-255.47486297 253.9082801 -254.70332224 253.91104548 -253.90840149 253.91389465 C-252.57698624 253.90770866 -252.57698624 253.90770866 -251.21867371 253.90139771 C-250.24763199 253.91218353 -249.27659027 253.92296936 -248.27612305 253.93408203 C-247.25156006 253.93364395 -246.22699707 253.93320587 -245.17138672 253.93275452 C-241.77861598 253.93484762 -238.38633696 253.9582037 -234.99365234 253.98168945 C-232.64381683 253.98728354 -230.29397783 253.99155452 -227.94413757 253.99455261 C-221.75444913 254.00601606 -215.56497133 254.03549635 -209.37536621 254.06866455 C-203.06130829 254.09933301 -196.74721638 254.11305106 -190.43310547 254.12817383 C-178.04043471 254.16036444 -165.64792041 254.21157906 -153.25537109 254.2746582 C-153.19478516 253.28723633 -153.13419922 252.29981445 -153.07177734 251.2824707 C-152.98798828 250.00114258 -152.90419922 248.71981445 -152.81787109 247.3996582 C-152.73666016 246.12348633 -152.65544922 244.84731445 -152.57177734 243.5324707 C-152.25537109 240.2746582 -152.25537109 240.2746582 -151.25537109 238.2746582 C-151.90105419 238.27742358 -152.54673729 238.28018896 -153.21198654 238.28303814 C-168.91903966 238.3492759 -184.62604424 238.39892797 -200.33320236 238.43009472 C-207.9290544 238.44556713 -215.52481325 238.46666372 -223.12060547 238.50097656 C-229.74069253 238.53086756 -236.3607121 238.55023049 -242.98086476 238.55692369 C-246.48658302 238.56083649 -249.99210818 238.57003964 -253.49776459 238.59184837 C-257.41016778 238.61599032 -261.32238164 238.61662838 -265.23486328 238.61523438 C-266.39867523 238.6260202 -267.56248718 238.63680603 -268.76156616 238.6479187 C-269.82724823 238.64379471 -270.8929303 238.63967072 -271.99090576 238.63542175 C-272.91638592 238.63818713 -273.84186607 238.64095251 -274.79539108 238.64380169 C-277.76818457 238.19770564 -279.11916097 237.36956869 -281.25537109 235.2746582 C-282.12818258 231.84575594 -282.58459938 229.38206244 -281.56787109 225.9621582 C-279.94762596 223.87898589 -278.70115683 223.26260223 -276.25537109 222.2746582 C-273.76415634 222.02856255 -273.76415634 222.02856255 -270.91497803 222.03414917 C-269.83246765 222.03139984 -268.74995728 222.02865051 -267.63464355 222.02581787 C-266.45213013 222.03300842 -265.2696167 222.04019897 -264.05126953 222.04760742 C-262.17770782 222.04716934 -262.17770782 222.04716934 -260.26629639 222.04672241 C-256.84505999 222.04787675 -253.42406516 222.05790498 -250.00287151 222.07187033 C-246.42609558 222.08437555 -242.8493164 222.08554802 -239.27252197 222.08792114 C-232.50109122 222.09413652 -225.72972507 222.11054812 -218.95832276 222.13062012 C-211.24859135 222.15297732 -203.53885685 222.1639721 -195.82910109 222.17401099 C-179.97115368 222.1949143 -164.11327072 222.2300914 -148.25537109 222.2746582 C-148.06974609 220.5112207 -148.06974609 220.5112207 -147.88037109 218.7121582 C-147.39101175 214.73345395 -146.4498506 211.09699262 -145.25537109 207.2746582 C-146.41577801 207.28018896 -146.41577801 207.28018896 -147.59962749 207.28583145 C-166.41976974 207.37415394 -185.23987065 207.4403539 -204.0601759 207.48190689 C-213.16153085 207.50253554 -222.26274749 207.53066187 -231.36401367 207.57641602 C-239.29632751 207.61627457 -247.22854119 207.64208882 -255.16095239 207.65101218 C-259.3614732 207.65622862 -263.56170746 207.66849523 -267.76213646 207.69757843 C-271.71593593 207.72473216 -275.66933086 207.73310338 -279.62321472 207.72708893 C-281.07405101 207.7281892 -282.52490086 207.73614368 -283.97565651 207.7514801 C-285.95752289 207.77140306 -287.93960641 207.76420763 -289.92155457 207.75567627 C-291.58493001 207.76120703 -291.58493001 207.76120703 -293.28190899 207.76684952 C-296.94778784 207.16004383 -298.6234417 205.84702627 -301.25537109 203.2746582 C-301.88427734 201.2746582 -301.88427734 201.2746582 -301.81787109 199.2746582 C-301.81916016 198.6146582 -301.82044922 197.9546582 -301.82177734 197.2746582 C-300.9912212 194.34193581 -299.61905129 193.17736435 -297.25537109 191.2746582 C-294.29563522 190.76684952 -294.29563522 190.76684952 -290.77606201 190.75567627 C-290.12744304 190.74817502 -289.47882407 190.74067377 -288.81054997 190.7329452 C-286.63916203 190.71266011 -284.46881752 190.72077144 -282.29736328 190.72875977 C-280.74013231 190.72002511 -279.18291032 190.70953971 -277.6257019 190.69743347 C-273.39872963 190.6695393 -269.1720497 190.66616953 -264.94499874 190.66715336 C-260.52733222 190.66402718 -256.10979795 190.63841515 -251.69219971 190.61517334 C-243.32708321 190.57458714 -234.96204472 190.55426649 -226.59684491 190.54119945 C-217.0732841 190.52533826 -207.54985621 190.48692637 -198.02637243 190.44660616 C-178.43608247 190.36417139 -158.84579872 190.31010165 -139.25537109 190.2746582 C-138.97666168 189.70676575 -138.69795227 189.13887329 -138.41079712 188.55377197 C-137.12636863 185.94293868 -135.83545264 183.33536345 -134.54443359 180.7277832 C-134.10623291 179.83462402 -133.66803223 178.94146484 -133.21655273 178.02124023 C-129.74500032 171.02684746 -125.85540566 164.59649341 -121.25537109 158.2746582 C-122.73258531 154.82264181 -124.6933111 152.62503884 -127.38037109 150.0246582 C-128.10482422 149.31825195 -128.82927734 148.6118457 -129.57568359 147.8840332 C-130.12998047 147.35293945 -130.68427734 146.8218457 -131.25537109 146.2746582 C-133.93197589 147.29053131 -136.0949299 148.15196788 -138.38037109 149.8996582 C-142.83831315 152.03171745 -147.41233708 152.09914255 -152.25537109 151.2746582 C-157.24251202 148.72678031 -160.9165051 145.98979441 -164.89990234 141.9934082 C-165.64369392 141.25036438 -165.64369392 141.25036438 -166.4025116 140.49230957 C-167.43870718 139.45379276 -168.47125955 138.41162887 -169.50024414 137.3659668 C-171.07260198 135.76985585 -172.65803244 134.18765269 -174.24560547 132.60668945 C-184.66502782 122.12980724 -184.66502782 122.12980724 -185.25537109 113.2746582 C-184.32597707 105.95568025 -181.32067887 102.43653164 -176.25537109 97.2746582 C-175.3039963 96.21930617 -174.35493541 95.16186541 -173.40771484 94.1027832 C-172.37931746 92.9919707 -171.34936534 91.88259557 -170.31787109 90.7746582 C-169.84043457 90.23357422 -169.36299805 89.69249023 -168.87109375 89.13500977 C-166.06604889 86.21234309 -164.01960585 84.91309347 -160.03271484 84.7980957 C-156.25537109 85.2746582 -156.25537109 85.2746582 -153.75537109 87.3996582 C-151.91130099 90.9341259 -151.40854641 92.34847102 -152.25537109 96.2746582 C-154.88194544 100.09152304 -158.17441077 103.2566305 -161.53662109 106.4230957 C-162.26880859 107.11661133 -163.00099609 107.81012695 -163.75537109 108.5246582 C-164.44630859 109.14856445 -165.13724609 109.7724707 -165.84912109 110.4152832 C-167.47689127 112.13381153 -167.47689127 112.13381153 -167.08666992 114.11816406 C-165.28632765 118.78847926 -160.9274735 122.11335239 -157.44287109 125.5871582 C-156.21213867 126.86042969 -156.21213867 126.86042969 -154.95654297 128.15942383 C-154.16183594 128.95670898 -153.36712891 129.75399414 -152.54833984 130.57543945 C-151.82155029 131.30931885 -151.09476074 132.04319824 -150.34594727 132.79931641 C-148.42962578 134.48345224 -148.42962578 134.48345224 -146.41700745 134.13787842 C-143.46258175 132.95806851 -141.81786219 131.19618082 -139.57861328 128.93847656 C-138.65796082 128.0175975 -137.73730835 127.09671844 -136.78875732 126.14793396 C-135.7930919 125.13694916 -134.79759202 124.12580131 -133.80224609 123.11450195 C-132.77728784 122.0839468 -131.75166395 121.05405326 -130.72540283 120.02479553 C-128.02920093 117.31715228 -125.34213037 114.60062048 -122.65686035 111.88214111 C-119.9139038 109.10846848 -117.16240985 106.34329392 -114.41162109 103.57739258 C-109.0178109 98.15143076 -103.63361875 92.71605078 -98.25537109 87.2746582 C-100.50096813 81.31991275 -104.16698366 77.8482171 -108.63037109 73.3996582 C-109.39865234 72.60301758 -110.16693359 71.80637695 -110.95849609 70.9855957 C-111.70357422 70.23793945 -112.44865234 69.4902832 -113.21630859 68.7199707 C-113.89483887 68.03435059 -114.57336914 67.34873047 -115.27246094 66.64233398 C-117.14459047 65.04702188 -117.14459047 65.04702188 -119.36206055 65.42089844 C-122.25732705 66.72647509 -123.94263559 68.87941939 -126.06787109 71.2121582 C-132.62562185 77.94349648 -132.62562185 77.94349648 -138.25537109 78.2746582 C-141.86481576 76.75067045 -143.06620375 75.55840922 -145.25537109 72.2746582 C-145.37970805 67.4255169 -144.21868524 64.84484347 -141.01708984 61.38012695 C-139.67428304 60.05844593 -138.31561545 58.75271768 -136.94287109 57.4621582 C-135.92676758 56.46152344 -135.92676758 56.46152344 -134.89013672 55.44067383 C-129.98288022 50.686919 -126.60140108 47.99531797 -119.56787109 47.7746582 C-118.59462891 47.7230957 -117.62138672 47.6715332 -116.61865234 47.6184082 C-107.49872265 49.39790668 -100.7359978 57.30163507 -94.44287109 63.6496582 C-93.61078125 64.46176758 -92.77869141 65.27387695 -91.92138672 66.1105957 C-86.63376738 71.40245531 -82.34038801 76.23252075 -80.72412109 83.7434082 C-80.83249867 90.78795088 -83.4111906 95.50838746 -87.25537109 101.2746582 C-85.68781929 102.97682801 -84.10077325 104.66106374 -82.50537109 106.3371582 C-81.62365234 107.27688477 -80.74193359 108.21661133 -79.83349609 109.18481445 C-78.98271484 109.87446289 -78.13193359 110.56411133 -77.25537109 111.2746582 C-74.22482317 110.90758752 -71.98514991 109.66968637 -69.41162109 108.0871582 C-68.67049072 107.64009521 -67.92936035 107.19303223 -67.16577148 106.73242188 C-66.37033936 106.25135986 -65.57490723 105.77029785 -64.75537109 105.2746582 C-45.3496217 93.84182807 -24.70611171 85.22870302 -2.25537109 82.2746582 C-2.25537109 76.3346582 -2.25537109 70.3946582 -2.25537109 64.2746582 C-4.89537109 64.2746582 -7.53537109 64.2746582 -10.25537109 64.2746582 C-15.08438061 62.71999507 -18.47434456 59.44619801 -21.25537109 55.2746582 C-22.56787253 51.3371539 -22.457561 47.54988136 -22.49365234 43.44262695 C-22.50172409 42.57326004 -22.50979584 41.70389313 -22.51811218 40.80818176 C-22.5319391 38.96817003 -22.54266748 37.12813279 -22.55053711 35.28808594 C-22.56774336 32.48298201 -22.6116403 29.67905904 -22.65576172 26.87426758 C-22.6658898 25.08456268 -22.67440554 23.29484779 -22.68115234 21.50512695 C-22.69866043 20.67055466 -22.71616852 19.83598236 -22.73420715 18.97612 C-22.71423981 13.57954052 -21.81211164 10.57213058 -18.25537109 6.2746582 C-12.77456519 1.08231577 -7.40480962 0.02709012 0 0 Z M-6.25537109 17.2746582 C-6.34328084 19.56617238 -6.36231148 21.86038345 -6.35302734 24.15356445 C-6.3516124 24.8402269 -6.35019745 25.52688934 -6.34873962 26.23435974 C-6.34312589 28.43533621 -6.33057116 30.63621229 -6.31787109 32.8371582 C-6.31285786 34.32608903 -6.30829465 35.81502144 -6.30419922 37.30395508 C-6.29315202 40.96088895 -6.27587822 44.61776379 -6.25537109 48.2746582 C2.85422055 48.29778365 11.96380216 48.31557432 21.07341671 48.32647038 C25.30294262 48.33169876 29.53244851 48.3387956 33.76196289 48.35009766 C37.84031434 48.36092812 41.91864647 48.36693537 45.99701118 48.36953545 C47.5564053 48.37138941 49.11579831 48.37500948 50.67518425 48.38038826 C52.85192053 48.38760082 55.02857605 48.38864906 57.20532227 48.38818359 C58.44664413 48.39040421 59.687966 48.39262482 60.96690369 48.39491272 C63.65244591 48.59212831 63.65244591 48.59212831 64.74462891 47.2746582 C64.84475292 45.06815164 64.8754407 42.85843434 64.87744141 40.6496582 C64.8788765 39.65651611 64.8788765 39.65651611 64.88034058 38.64331055 C64.88102217 37.24112859 64.87916932 35.8389435 64.875 34.43676758 C64.86965137 32.28370107 64.8749456 30.13084318 64.88134766 27.9777832 C64.88068687 26.61840774 64.8794057 25.25903241 64.87744141 23.8996582 C64.87574951 22.03180664 64.87574951 22.03180664 64.87402344 20.1262207 C65.07035017 17.3756039 65.07035017 17.3756039 63.74462891 16.2746582 C61.60262567 16.17513527 59.45730186 16.14666141 57.31298828 16.14526367 C56.64145218 16.14351135 55.96991608 16.14175903 55.2780304 16.13995361 C53.04812063 16.1355359 50.81828954 16.13847278 48.58837891 16.1418457 C47.04520655 16.14117264 45.5020343 16.1402026 43.9588623 16.13894653 C40.7206115 16.13746967 37.48238823 16.13962374 34.24414062 16.14428711 C30.08420368 16.1499844 25.92433124 16.14670533 21.76439667 16.14071465 C18.57663483 16.13710871 15.38888839 16.13824776 12.2011261 16.14084244 C10.66685478 16.14151162 9.13258209 16.14068359 7.59831238 16.13836288 C5.4575935 16.13583583 3.31698048 16.13967766 1.17626953 16.14526367 C-0.04427124 16.14605927 -1.26481201 16.14685486 -2.52233887 16.14767456 C-5.16838094 15.96315932 -5.16838094 15.96315932 -6.25537109 17.2746582 Z M13.74462891 64.2746582 C13.74462891 69.5546582 13.74462891 74.8346582 13.74462891 80.2746582 C23.64462891 80.2746582 33.54462891 80.2746582 43.74462891 80.2746582 C43.74462891 74.9946582 43.74462891 69.7146582 43.74462891 64.2746582 C33.84462891 64.2746582 23.94462891 64.2746582 13.74462891 64.2746582 Z M-100.25537109 112.2746582 C-106.85537109 118.8746582 -113.45537109 125.4746582 -120.25537109 132.2746582 C-118.42151187 135.94237666 -117.0047428 137.74300816 -114.13037109 140.5246582 C-113.04369141 141.58426758 -113.04369141 141.58426758 -111.93505859 142.6652832 C-111.38076172 143.19637695 -110.82646484 143.7274707 -110.25537109 144.2746582 C-109.60181641 143.62110352 -108.94826172 142.96754883 -108.27490234 142.29418945 C-101.93505859 135.9543457 -95.59521484 129.61450195 -89.25537109 123.2746582 C-90.14504453 122.18626046 -91.04248684 121.10421212 -91.94287109 120.0246582 C-92.44173828 119.42137695 -92.94060547 118.8180957 -93.45458984 118.1965332 C-95.64229042 115.7701186 -95.64229042 115.7701186 -100.25537109 112.2746582 Z " fill="#000000" transform="translate(301.25537109375,33.725341796875)"/>
<path d="M0 0 C0.78455566 0.19335938 1.56911133 0.38671875 2.37744141 0.5859375 C27.7844303 7.05371546 48.72700762 19.48211972 68 37 C68.67417969 37.60199219 69.34835937 38.20398438 70.04296875 38.82421875 C92.00580878 59.53502039 108.93302713 93.14427583 110.3125 123.4375 C110 127 110 127 108.9375 129.4375 C106.05717808 131.76034026 103.64426778 131.87213096 100 132 C97.2851675 131.19288763 96.35707032 130.62285887 94.95043945 128.16918945 C94.02958603 126.06752423 93.52026997 124.23053194 93.10546875 121.98046875 C92.95754883 121.21323486 92.80962891 120.44600098 92.65722656 119.65551758 C92.5022168 118.84107178 92.34720703 118.02662598 92.1875 117.1875 C85.54972424 84.44383786 67.74201649 54.81155195 39.8125 35.875 C10.97247709 16.98208915 -23.3426913 8.81093174 -57.5625 15.5625 C-90.90803039 22.92630463 -120.41258708 42.19508036 -139.30932617 70.89355469 C-152.70251756 92.08380818 -159.40916562 114.9519451 -159.375 140 C-159.37445618 140.67709015 -159.37391235 141.3541803 -159.37335205 142.05178833 C-159.24196787 177.79196434 -144.60264074 208.32628177 -119.515625 233.4921875 C-93.44731409 258.24937035 -60.60788389 267.81097931 -25.2890625 267.30859375 C5.13075448 266.35969705 32.52494032 252.92030146 55 233 C56.18142578 231.97132813 56.18142578 231.97132813 57.38671875 230.921875 C77.90487416 211.77714582 88.30526704 184.91478067 93.58203125 158.03515625 C94.90807899 151.38335577 94.90807899 151.38335577 98 149 C102.28535449 148.5238495 104.7296686 148.30131773 108.5 150.375 C112.30383368 157.03170894 109.64890013 166.08508245 107.875 173.125 C107.6490918 174.03733398 107.42318359 174.94966797 107.19042969 175.88964844 C100.43488005 202.29266527 87.131099 224.70237653 68 244 C67.15050781 244.86238281 66.30101562 245.72476563 65.42578125 246.61328125 C37.86373874 273.07790706 0.78578546 284.82746136 -36.79736328 284.40429688 C-46.77600018 284.19185405 -56.31225094 283.41663246 -66 281 C-66.70721191 280.82839355 -67.41442383 280.65678711 -68.14306641 280.47998047 C-78.68148933 277.84948855 -88.38123994 274.01816312 -98 269 C-98.67482422 268.6488916 -99.34964844 268.2977832 -100.04492188 267.93603516 C-108.71082608 263.37088851 -116.63136841 258.51502521 -124 252 C-125.24330078 250.91912109 -125.24330078 250.91912109 -126.51171875 249.81640625 C-129.04297841 247.57974955 -131.52761885 245.30146091 -134 243 C-134.73992187 242.32582031 -135.47984375 241.65164063 -136.2421875 240.95703125 C-158.9151865 219.45399128 -174.77937604 185.61939126 -176.16113281 154.35400391 C-176.20708621 150.1107956 -176.24665927 145.86846164 -176.25 141.625 C-176.25101212 140.47633957 -176.25101212 140.47633957 -176.25204468 139.30447388 C-176.23651796 128.23653708 -175.85519977 117.75305074 -173 107 C-172.83371094 106.3287207 -172.66742188 105.65744141 -172.49609375 104.96582031 C-166.07602751 79.22611028 -152.95323204 58.30522675 -135 39 C-134.39800781 38.33226562 -133.79601562 37.66453125 -133.17578125 36.9765625 C-115.75603101 18.46099283 -90.47238083 5.92612223 -66 0 C-65.33258789 -0.16516113 -64.66517578 -0.33032227 -63.97753906 -0.50048828 C-43.62482721 -5.30309257 -20.2779373 -5.09139021 0 0 Z " fill="#000000" transform="translate(363,155)"/>
<path d="M0 0 C6.14475542 3.88280805 9.59536205 9.10249569 11.5859375 16.04296875 C13.07743794 23.09241894 11.60170974 29.98705983 7.7109375 35.98828125 C3.56918787 41.15993119 -1.39952282 44.69743904 -8 46 C-9.43527209 46.09020194 -10.87440534 46.13010868 -12.3125 46.125 C-13.38951172 46.12886719 -13.38951172 46.12886719 -14.48828125 46.1328125 C-17 46 -17 46 -20.03076172 44.91210938 C-25.62127632 45.03589983 -27.45938155 47.56143445 -31.29780579 51.41708374 C-32.19597519 52.35968048 -33.09414459 53.30227722 -34.01953125 54.2734375 C-34.96696922 55.23834866 -35.91627448 56.20142957 -36.86735535 57.16275024 C-39.36195443 59.69349499 -41.8320287 62.24687602 -44.29724121 64.80621338 C-47.30027406 67.91533097 -50.33060578 70.99779837 -53.3576231 74.08353615 C-55.71140826 76.48381207 -58.05901124 78.88922499 -60.39692688 81.30502319 C-61.23507431 82.16906769 -62.07322174 83.03311218 -62.93676758 83.92333984 C-63.6751033 84.68802582 -64.41343903 85.45271179 -65.17414856 86.24057007 C-67.73992998 88.71301253 -68.74469479 88.97636063 -72.375 89.3125 C-76 89 -76 89 -78.4375 87.5 C-80.17095071 84.72647887 -80.72911217 82.59683995 -80.64797974 79.32156372 C-79.168089 74.01945247 -74.24084686 70.47264133 -70.33984375 66.83984375 C-69.34865731 65.88393527 -68.35980203 64.92560424 -67.3731842 63.96498108 C-64.24976686 60.93268059 -61.09614157 57.93303444 -57.9375 54.9375 C-54.27219519 51.4612359 -50.6206159 47.97264086 -47.00113106 44.44864082 C-45.54793207 43.0471988 -44.07276976 41.67202722 -42.59519958 40.29637146 C-37.35192501 35.56882777 -37.35192501 35.56882777 -35.8918457 29.02148438 C-36.44038208 27.52584961 -36.44038208 27.52584961 -37 26 C-37.71676909 17.63309926 -36.15138663 11.40262421 -30.9375 4.75 C-22.54740725 -4.24191374 -10.76525373 -5.13092129 0 0 Z M-17.875 14.5 C-20.64839572 17.76281849 -21.07481382 19.73561227 -21 24 C-19.09266488 27.50949663 -17.84861588 28.71110949 -14.0625 30 C-10.3743624 30 -8.85491706 29.2997943 -6 27 C-4.23921122 24.59892439 -3.96425058 23.47665896 -4.1875 20.5 C-5.11758723 17.63819313 -5.78858366 16.06398859 -8 14 C-12.08035596 12.79100564 -14.06467129 12.51200241 -17.875 14.5 Z " fill="#000000" transform="translate(343,274)"/>
<path d="M0 0 C0.85916016 -0.02835937 1.71832031 -0.05671875 2.60351562 -0.0859375 C8.87910297 -0.10541178 8.87910297 -0.10541178 12.1640625 2.8046875 C14.07023444 6.47859432 13.65567188 8.56458123 12.5625 12.5 C10.59190036 15.31514234 8.84920682 15.85070302 5.5625 16.5 C3.7526352 16.61598239 1.93853366 16.67492348 0.125 16.6875 C-0.80183594 16.70167969 -1.72867188 16.71585937 -2.68359375 16.73046875 C-6.56549109 16.40560075 -9.40865302 15.42596228 -12.3125 12.8125 C-13.97333755 9.39855615 -13.35702707 7.11242777 -12.4375 3.5 C-9.1496069 -0.81141766 -5.01322725 -0.01497603 0 0 Z " fill="#000000" transform="translate(230.4375,287.5)"/>
<path d="M0 0 C2.01859826 1.54704764 2.88233434 2.41514987 3.38818359 4.92944336 C3.39156738 5.64237549 3.39495117 6.35530762 3.3984375 7.08984375 C3.40423828 8.26643555 3.40423828 8.26643555 3.41015625 9.46679688 C3.39855469 10.28212891 3.38695312 11.09746094 3.375 11.9375 C3.38660156 12.74896484 3.39820313 13.56042969 3.41015625 14.39648438 C3.39262654 17.95793677 3.35592519 20.34982983 1.625 23.51171875 C-0.579571 25.53080902 -2.02461197 25.85831486 -5 26 C-8.23633139 25.22944491 -9.60814906 24.51589009 -11.62890625 21.85546875 C-13.31404844 18.3459561 -13.36643577 15.81672639 -13.3125 11.9375 C-13.30863281 10.72964844 -13.30476563 9.52179688 -13.30078125 8.27734375 C-13.02073905 5.2259748 -12.66365721 3.52540771 -11 1 C-7.4367155 -1.7714435 -4.20758349 -0.99451973 0 0 Z " fill="#000000" transform="translate(335,383)"/>
<path d="M0 0 C0.80695313 -0.01546875 1.61390625 -0.0309375 2.4453125 -0.046875 C6.27706157 -0.02158293 8.35823477 0.04117247 11.53515625 2.3125 C13.67261977 5.50444553 13.46928834 7.74569326 13 11.5 C11.69490789 13.97967502 10.93642493 15.18224682 8.26171875 16.08984375 C5.4991918 16.59082014 2.87014815 16.6697973 0.0625 16.6875 C-0.95714844 16.70167969 -1.97679687 16.71585937 -3.02734375 16.73046875 C-6.13311288 16.48967982 -8.24611813 15.94159729 -11 14.5 C-13.48038907 10.7794164 -13.46337203 8.90203429 -13 4.5 C-9.64121858 -0.53817213 -5.52350585 -0.1058819 0 0 Z " fill="#000000" transform="translate(430,287.5)"/>
<path d="M0 0 C3.22252585 0.65167962 4.22545887 1.72999615 6.10546875 4.42578125 C6.71391367 7.43786619 6.70957731 10.36143309 6.66796875 13.42578125 C6.69181641 14.23273438 6.71566406 15.0396875 6.74023438 15.87109375 C6.7299042 20.04448318 6.66917793 21.79911978 3.796875 24.9921875 C0.12609369 26.94745128 -1.94261052 26.52353701 -5.89453125 25.42578125 C-7.95391341 23.84692159 -8.74024336 22.73435702 -9.89453125 20.42578125 C-10.04396981 18.15833851 -10.11598027 15.88546375 -10.14453125 13.61328125 C-10.1703125 12.38996094 -10.19609375 11.16664063 -10.22265625 9.90625 C-9.52604147 2.51715754 -6.96144943 0.37876554 0 0 Z " fill="#000000" transform="translate(331.89453125,182.57421875)"/>
</svg>
