<?xml version="1.0" encoding="UTF-8"?>
<svg version="1.1" xmlns="http://www.w3.org/2000/svg" width="512" height="512">
<path d="M0 0 C0.786026 0.00087616 1.572052 0.00175232 2.38189697 0.00265503 C37.33281499 0.13047785 73.48780192 9.84392669 101.625 31.375 C102.19250977 31.80167969 102.76001953 32.22835937 103.34472656 32.66796875 C110.19976497 37.83366524 116.77178812 43.07025464 122.625 49.375 C123.8315625 50.5815625 123.8315625 50.5815625 125.0625 51.8125 C125.908125 52.658125 126.75375 53.50375 127.625 54.375 C128.22054688 54.93574219 128.81609375 55.49648438 129.4296875 56.07421875 C135.72231403 62.10975354 142.17737222 68.72735291 144.8125 77.1875 C144.58125705 81.11863021 143.94990914 83.17824994 141.625 86.375 C137.90918644 88.6616545 135.61024952 89.42973608 131.25 89.1875 C125.73364382 87.19616963 122.22633895 81.74436644 118.625 77.375 C93.15718154 47.39606571 58.60110707 27.21341548 19.14746094 22.57568359 C0.01066258 21.0531857 -19.78102785 21.40799412 -38.375 26.375 C-39.23947754 26.60574219 -40.10395508 26.83648438 -40.99462891 27.07421875 C-60.48970943 32.50568397 -78.53204974 41.79908517 -94.375 54.375 C-94.92591309 54.80780273 -95.47682617 55.24060547 -96.04443359 55.68652344 C-127.085529 80.30005348 -147.32271788 116.92282696 -152.15466309 156.24241638 C-156.51265674 198.42230216 -145.36915039 239.34866663 -118.625 272.375 C-117.21350652 274.04605008 -115.79740836 275.71323086 -114.375 277.375 C-113.84261719 278.02984375 -113.31023437 278.6846875 -112.76171875 279.359375 C-109.04738213 283.88465843 -104.87444497 287.64158957 -100.375 291.375 C-99.63507813 292.00277344 -98.89515625 292.63054687 -98.1328125 293.27734375 C-65.64644992 320.17179146 -25.21858559 331.27029477 16.55322266 328.15673828 C56.93865997 323.97792144 93.86164896 302.39027011 119.625 271.375 C143.26737627 241.4983816 154.42978901 206.34552334 153.46411133 168.45166016 C153.43353638 166.63287354 153.43353638 166.63287354 153.40234375 164.77734375 C153.35968384 163.14526978 153.35968384 163.14526978 153.31616211 161.48022461 C153.67931583 157.82887905 154.72298302 155.49648127 156.625 152.375 C160.03734859 149.97084531 162.00689691 149.375 166.1875 149.375 C170.3582414 150.58830659 172.0161183 151.92206834 174.625 155.375 C182.72410651 191.76996132 169.58058365 236.24023655 150.0625 267.125 C149.56621094 267.86234375 149.06992187 268.5996875 148.55859375 269.359375 C147.36773345 271.93043741 147.68077514 272.73684903 148.625 275.375 C160.61354176 292.41845071 178.29928227 301.647526 196.59266663 310.34831238 C207.97746302 315.82043504 217.20722222 322.21827738 226.06567383 331.20043945 C227.14862345 332.27987828 228.23265102 333.35823655 229.31765747 334.43560791 C232.23174445 337.33557687 235.1301311 340.25076579 238.02533555 343.16957116 C241.07413809 346.238648 244.13609606 349.29455265 247.19621277 352.3523407 C252.32949098 357.4856723 257.45287976 362.62870817 262.57006836 367.77807617 C268.46693313 373.71184502 274.3777456 379.63142412 280.29657155 385.54328185 C286.01686185 391.25724439 291.72853836 396.97973867 297.43591881 402.70659447 C299.85308222 405.13188334 302.2729037 407.55447193 304.69492531 409.97490883 C307.55104734 412.83014517 310.39941079 415.69291382 313.24220657 418.56141663 C314.28002692 419.6063348 315.32031884 420.64880557 316.36338997 421.68848228 C329.11660446 434.40812976 337.81404132 446.20497264 337.875 464.5625 C337.85630729 478.67148982 333.68886451 490.08241129 323.625 500.375 C310.40379993 511.13644192 297.22770374 513.62579292 280.625 512.375 C266.5161387 509.78421352 256.09600379 500.4505597 246.24121094 490.63574219 C245.15137908 489.56447876 244.06078489 488.49399043 242.96949768 487.42420959 C240.03155286 484.538276 237.10661839 481.6395155 234.18565273 478.73640728 C232.34847198 476.9110421 230.50900454 475.08801107 228.66886139 473.26563263 C222.87771023 467.5290838 217.09456542 461.78464035 211.32290339 456.0284822 C204.7252839 449.44869542 198.10251673 442.89573466 191.4558866 436.36546779 C186.27878428 431.27578607 181.12590158 426.16234806 175.98967767 421.03142095 C172.94122688 417.9870999 169.88451243 414.95262376 166.80187225 411.94289398 C150.87865502 396.3752368 139.36006338 381.49079881 129.625 361.375 C128.79001383 359.72652577 127.9490736 358.08104414 127.10028076 356.43963623 C126.75894482 355.77836102 126.41760887 355.1170858 126.06592941 354.43577194 C119.27630659 341.76043099 107.98867882 332.12001261 97.625 322.375 C96.72547607 322.90689941 95.82595215 323.43879883 94.89916992 323.98681641 C52.15395582 349.11729804 3.44355913 357.42579249 -45.0625 345.125 C-66.48104932 339.29826906 -86.62272869 329.72588173 -104.375 316.375 C-105.20773438 315.75367188 -106.04046875 315.13234375 -106.8984375 314.4921875 C-118.2959919 305.67660336 -128.63863556 295.84147832 -137.375 284.375 C-138.07625 283.51261719 -138.7775 282.65023438 -139.5 281.76171875 C-163.45857241 251.51402108 -174.863751 213.9344388 -174.6875 175.6875 C-174.68426727 174.42584518 -174.68426727 174.42584518 -174.68096924 173.13870239 C-174.63098529 160.99101497 -174.33698979 149.21491026 -171.375 137.375 C-171.18164062 136.56466309 -170.98828125 135.75432617 -170.7890625 134.91943359 C-159.23509333 87.53567887 -129.6675145 48.7949271 -88.375 23.375 C-61.75426143 7.22464779 -30.94452938 -0.08479861 0 0 Z M130.85913086 292.02734375 C130.11026611 292.78144531 129.36140137 293.53554688 128.58984375 294.3125 C127.78095703 295.12460937 126.97207031 295.93671875 126.13867188 296.7734375 C125.28853516 297.63195312 124.43839844 298.49046875 123.5625 299.375 C122.70849609 300.23351562 121.85449219 301.09203125 120.97460938 301.9765625 C118.8558362 304.1071724 116.73942241 306.24007372 114.625 308.375 C117.95616615 312.32874187 121.30928556 316.18541857 125 319.8125 C126.03253906 320.83150391 126.03253906 320.83150391 127.0859375 321.87109375 C127.84777344 322.61552734 127.84777344 322.61552734 128.625 323.375 C131.77704981 321.98152624 133.88671773 320.35014921 136.296875 317.8984375 C136.96074219 317.228125 137.62460937 316.5578125 138.30859375 315.8671875 C138.99050781 315.16851562 139.67242187 314.46984375 140.375 313.75 C141.07238281 313.04359375 141.76976562 312.3371875 142.48828125 311.609375 C144.20512488 309.86901297 145.91711832 308.12415019 147.625 306.375 C146.3476664 303.57339927 145.02382335 301.5248862 142.83984375 299.359375 C142.04416992 298.56660156 142.04416992 298.56660156 141.23242188 297.7578125 C140.40581055 296.94957031 140.40581055 296.94957031 139.5625 296.125 C139.00755859 295.57070313 138.45261719 295.01640625 137.88085938 294.4453125 C134.62040123 290.28450167 134.62040123 290.28450167 130.85913086 292.02734375 Z M162.37841797 320.39453125 C161.01160889 321.77705078 161.01160889 321.77705078 159.6171875 323.1875 C159.13170441 323.67581299 158.64622131 324.16412598 158.14602661 324.66723633 C156.59260869 326.23187218 155.04627781 327.80331049 153.5 329.375 C152.44967739 330.43535033 151.39890178 331.49525215 150.34765625 332.5546875 C147.76815584 335.15626956 145.19496863 337.76399773 142.625 340.375 C143.556976 342.25601074 144.49097077 344.13602131 145.42578125 346.015625 C145.94567627 347.06266602 146.46557129 348.10970703 147.0012207 349.18847656 C150.39184071 356.04302485 150.39184071 356.04302485 154.625 362.375 C157.55067258 362.67889365 157.55067258 362.67889365 159.16264343 361.19812012 C159.70669327 360.64740845 160.2507431 360.09669678 160.8112793 359.52929688 C161.43169601 358.90865356 162.05211273 358.28801025 162.69132996 357.64855957 C163.68523491 356.63142883 163.68523491 356.63142883 164.69921875 355.59375 C165.3830513 354.90567261 166.06688385 354.21759521 166.7714386 353.50866699 C168.95891366 351.30436821 171.13574286 349.08987856 173.3125 346.875 C174.79162934 345.38082867 176.27143865 343.88733012 177.75195312 342.39453125 C181.38424493 338.72912108 185.00702091 335.05453619 188.625 331.375 C185.69067762 328.9498134 182.85415423 326.79582825 179.48828125 325.015625 C178.74642578 324.62246094 178.00457031 324.22929687 177.24023438 323.82421875 C176.48033203 323.42847656 175.72042969 323.03273438 174.9375 322.625 C174.16599609 322.21378906 173.39449219 321.80257813 172.59960938 321.37890625 C167.37188555 318.06328676 167.37188555 318.06328676 162.37841797 320.39453125 Z M203.97982788 344.77966309 C203.32696808 345.43696411 202.67410828 346.09426514 202.00146484 346.77148438 C200.8905397 347.88263611 200.8905397 347.88263611 199.75717163 349.01623535 C198.95816437 349.82556519 198.1591571 350.63489502 197.3359375 351.46875 C196.51751373 352.29000366 195.69908997 353.11125732 194.85586548 353.95739746 C192.23253328 356.59196093 189.61622447 359.23337994 187 361.875 C185.22701942 363.65800655 183.45358778 365.4405647 181.6796875 367.22265625 C177.32286986 371.60157335 172.97180504 375.9861448 168.625 380.375 C170.10305031 383.7950767 172.02373593 386.02708398 174.64602661 388.65672302 C175.48704422 389.50482544 176.32806183 390.35292786 177.19456482 391.22673035 C178.1192305 392.14891861 179.04389618 393.07110687 179.99658203 394.02124023 C180.97936609 395.00837289 181.96173178 395.99592223 182.94371033 396.9838562 C185.61075206 399.664288 188.28416436 402.33827854 190.95917368 405.01075625 C193.19480237 407.24531454 195.42744563 409.482844 197.66014278 411.72033077 C202.93156031 417.00284502 208.20829045 422.28001109 213.48828125 427.55395508 C218.92509958 432.98474222 224.35269727 438.42462025 229.77582848 443.86907238 C234.43889145 448.54978903 239.10778196 453.224637 243.78130424 457.8949104 C246.56941118 460.68120924 249.35527616 463.46965765 252.13550186 466.26382256 C254.75370961 468.89466419 257.37915989 471.51806243 260.01017952 474.13608932 C261.42587318 475.54831307 262.8342136 476.96789634 264.24226379 478.38774109 C271.86451553 485.94767487 278.18840435 491.4585563 289.25 491.6875 C297.17529179 491.62206931 302.44708926 490.12918931 308.4375 484.9375 C309.159375 484.091875 309.88125 483.24625 310.625 482.375 C311.346875 481.570625 312.06875 480.76625 312.8125 479.9375 C317.42253306 473.41986706 317.37189493 466.0652515 316.625 458.375 C314.99365663 452.43161928 311.89610476 447.75850226 307.625 443.375 C306.965 443.375 306.305 443.375 305.625 443.375 C304.965 442.055 304.305 440.735 303.625 439.375 C302.965 439.375 302.305 439.375 301.625 439.375 C300.965 438.055 300.305 436.735 299.625 435.375 C298.965 435.375 298.305 435.375 297.625 435.375 C296.965 434.055 296.305 432.735 295.625 431.375 C294.965 431.375 294.305 431.375 293.625 431.375 C293.36545532 430.7906934 293.10591064 430.2063868 292.83850098 429.60437393 C291.53612904 427.21173141 290.13120433 425.62959386 288.20898438 423.70501709 C287.50233643 422.99272949 286.79568848 422.28044189 286.06762695 421.54656982 C285.29249756 420.77548889 284.51736816 420.00440796 283.71875 419.20996094 C282.90237061 418.3900769 282.08599121 417.57019287 281.24487305 416.72546387 C278.5432617 414.01504485 275.83439416 411.31201255 273.125 408.609375 C271.24905507 406.73208341 269.37340744 404.8544985 267.49804688 402.97662354 C263.56739325 399.04233353 259.63254586 395.11227487 255.6953125 391.18457031 C251.13925874 386.6394156 246.5904752 382.08708016 242.04537201 377.53097701 C238.14412394 373.62066474 234.2390066 369.71424874 230.33060455 365.81108689 C227.9955832 363.47918809 225.6623407 361.14556193 223.33178711 358.80919647 C220.73640274 356.20876071 218.13474179 353.61477619 215.53125 351.02246094 C214.36855591 349.85369415 214.36855591 349.85369415 213.18237305 348.66131592 C212.12240112 347.60980347 212.12240112 347.60980347 211.04101562 346.53704834 C210.11851013 345.61567392 210.11851013 345.61567392 209.17736816 344.67568588 C206.95866254 342.81669447 206.16826583 342.91115464 203.97982788 344.77966309 Z " fill="#000000" transform="translate(174.375,-0.375)"/>
<path d="M0 0 C0.72638672 0.20898926 1.45277344 0.41797852 2.20117188 0.63330078 C22.4515676 6.66235482 39.7138183 17.51587104 55 32 C55.8971875 32.83273438 56.794375 33.66546875 57.71875 34.5234375 C80.78843707 56.6210872 94.21160581 87.91052636 95.27734375 119.75 C95.84897921 148.60981322 90.03903962 177.1037859 73 201 C72.28328125 202.01320312 71.5665625 203.02640625 70.828125 204.0703125 C49.4016623 233.51548687 18.14545838 251.83191987 -17.64453125 257.5859375 C-54.14779102 261.74796651 -89.28454481 252.79991378 -118.33886719 230.32519531 C-126.95341509 223.45280172 -134.3372827 215.80152733 -141 207 C-141.58007812 206.25878906 -142.16015625 205.51757812 -142.7578125 204.75390625 C-158.48049682 183.65625776 -166.78913283 158.147163 -168 132 C-168.04125 131.24332031 -168.0825 130.48664063 -168.125 129.70703125 C-168.99917257 97.96363975 -157.81034604 65.94395027 -137 42 C-136.29101562 41.16984375 -135.58203125 40.3396875 -134.8515625 39.484375 C-102.03419399 1.94591137 -48.09912784 -14.07384795 0 0 Z M-115.1875 49.09375 C-135.73518971 69.8107888 -146.93632094 98.71553909 -147.04345703 127.73681641 C-146.46636544 157.79096829 -134.69107559 183.57972351 -114 205 C-113.29746094 205.75410156 -112.59492187 206.50820312 -111.87109375 207.28515625 C-107.07176593 212.31717875 -101.82689496 216.22545702 -96 220 C-95.23042969 220.51433594 -94.46085937 221.02867187 -93.66796875 221.55859375 C-69.61347785 236.91676787 -38.50019812 240.88216509 -10.90673828 234.83398438 C8.52339612 230.13563313 25.40529489 220.48445783 40 207 C41.10408203 206.01773438 41.10408203 206.01773438 42.23046875 205.015625 C61.77981122 186.75396377 73.12073261 159.1942992 74.25 132.79296875 C75.13732729 101.66256954 65.22977468 73.49526487 43.8203125 50.5390625 C37.7353806 44.1947758 31.52128299 38.61380195 24 34 C22.51886719 33.03513672 22.51886719 33.03513672 21.0078125 32.05078125 C8.25997448 24.17711659 -7.04958807 18.55502056 -22 17 C-23.62615234 16.80277344 -23.62615234 16.80277344 -25.28515625 16.6015625 C-59.06650478 13.34988189 -90.9877618 25.70324519 -115.1875 49.09375 Z " fill="#000000" transform="translate(211,48)"/>
<path d="M0 0 C1.13695312 -0.02449219 2.27390625 -0.04898438 3.4453125 -0.07421875 C11.81144614 -0.10367697 11.81144614 -0.10367697 15.8515625 2.2734375 C18.88485504 5.86795597 18.74724362 8.09690735 18.73852539 12.75244141 C18.73867142 13.40622269 18.73881744 14.06000397 18.7389679 14.7335968 C18.73827036 16.89795227 18.7304854 19.06222204 18.72265625 21.2265625 C18.72079151 22.72586012 18.71936787 24.22515834 18.71836853 25.72445679 C18.71454779 29.67331622 18.70472128 33.62213896 18.69366455 37.57098389 C18.68344091 41.59940087 18.67886887 45.62782378 18.67382812 49.65625 C18.66309862 57.56251685 18.6460275 65.46875386 18.625 73.375 C19.38280762 73.35324707 20.14061523 73.33149414 20.92138672 73.30908203 C22.41049561 73.28370361 22.41049561 73.28370361 23.9296875 73.2578125 C24.91437012 73.23605957 25.89905273 73.21430664 26.91357422 73.19189453 C30.55311199 73.43767639 32.23949114 74.6714233 34.625 77.375 C36.22586627 80.57673254 36.12417089 83.90077059 35.625 87.375 C33.83136089 90.1850346 32.60619065 91.88440468 29.625 93.375 C28.29374067 93.48376468 26.95739861 93.53390727 25.62182617 93.55200195 C24.38495308 93.57125481 24.38495308 93.57125481 23.12309265 93.59089661 C22.23040176 93.59828354 21.33771088 93.60567047 20.41796875 93.61328125 C19.50042313 93.621353 18.5828775 93.62942474 17.63752747 93.63774109 C15.69318534 93.65158493 13.74881888 93.66230574 11.80444336 93.67016602 C8.83465348 93.68737165 5.86597887 93.73125382 2.89648438 93.77539062 C1.00782069 93.78551818 -0.88085246 93.79403409 -2.76953125 93.80078125 C-4.09945854 93.82704338 -4.09945854 93.82704338 -5.45625305 93.85383606 C-9.62370535 93.83921783 -11.8075937 93.72668198 -15.42456055 91.48486328 C-18.16338178 88.52217795 -18.28455959 86.46493809 -18.515625 82.5625 C-18.31702317 79.47313828 -17.36247342 77.71737938 -15.375 75.375 C-12.375 73.375 -12.375 73.375 -2.375 73.375 C-2.375 56.215 -2.375 39.055 -2.375 21.375 C-5.675 21.045 -8.975 20.715 -12.375 20.375 C-15.4375 18.875 -15.4375 18.875 -17.375 16.375 C-18.66316919 12.04059424 -18.90700677 8.6252159 -17.125 4.4375 C-12.40227675 -1.12856669 -6.74943862 0.00760072 0 0 Z " fill="#000000" transform="translate(168.375,141.625)"/>
<path d="M0 0 C3.08416293 2.05610862 4.68386831 3.45571068 5.44140625 7.15625 C5.65351271 11.26153629 5.33679 13.461136 3.125 17 C-0.1000645 20.03535482 -2.44453425 20.41279452 -6.89453125 20.33984375 C-10.83141771 19.70439083 -12.38448674 17.99827129 -15 15 C-16.26372224 10.91148688 -16.2741007 8.79184647 -14.875 4.75 C-10.98025461 -0.96229325 -6.57302065 -2.12032924 0 0 Z " fill="#000000" transform="translate(182,107)"/>
<path d="M0 0 C5.57894737 3.15789474 5.57894737 3.15789474 7 6 C7.55512815 10.63213493 7.6364242 13.98172127 5.125 18 C1.85159987 21.08084718 -0.46126475 21.33387487 -4.9609375 21.29296875 C-8.13134567 20.83745033 -9.8192402 19.24684343 -12 17 C-13.73631636 13.52736727 -13.60190402 9.78806987 -13 6 C-9.08606917 1.05608737 -6.27104539 -0.60298513 0 0 Z " fill="#000000" transform="translate(332,106)"/>
</svg>
